<?xml version="1.0" encoding="UTF-8"?>
<svg xmlns="http://www.w3.org/2000/svg" viewBox="0 0 260.87 234.28">
  <defs>
    <style>
      .cls-1 {
        mix-blend-mode: screen;
        opacity: .5;
      }

      .cls-1, .cls-2, .cls-3, .cls-4, .cls-5, .cls-6, .cls-7, .cls-8, .cls-9, .cls-10, .cls-11, .cls-12, .cls-13, .cls-14 {
        stroke-width: 0px;
      }

      .cls-1, .cls-3, .cls-4, .cls-6, .cls-12 {
        fill: #a17e85;
      }

      .cls-2 {
        opacity: .7;
      }

      .cls-2, .cls-15, .cls-3, .cls-4, .cls-5, .cls-16, .cls-6, .cls-17 {
        mix-blend-mode: multiply;
      }

      .cls-2, .cls-5, .cls-11 {
        fill: #ba9aa3;
      }

      .cls-3 {
        opacity: .3;
      }

      .cls-4 {
        opacity: .15;
      }

      .cls-5, .cls-16 {
        opacity: .2;
      }

      .cls-18 {
        isolation: isolate;
      }

      .cls-6, .cls-17 {
        opacity: .8;
      }

      .cls-7 {
        fill: #f7efe7;
      }

      .cls-8 {
        fill: #f8d249;
      }

      .cls-9 {
        fill: #79cbed;
      }

      .cls-10 {
        fill: #d1c0b0;
      }

      .cls-13 {
        fill: #f04735;
      }

      .cls-14 {
        fill: #ffc887;
      }
    </style>
  </defs>
  <g class="cls-18">
    <g id="Layer_1" data-name="Layer 1">
      <g>
        <g>
          <polygon class="cls-7" points="58.54 154.12 27.34 172.25 27.33 172.92 81.19 204.04 112.4 185.91 112.4 185.24 58.54 154.12"/>
          <g>
            <g class="cls-16">
              <polygon class="cls-11" points="86.63 174.61 86.05 174.94 56.6 157.94 57.18 157.61 86.63 174.61"/>
            </g>
            <g class="cls-16">
              <polygon class="cls-11" points="84.75 175.7 84.17 176.04 54.72 159.03 55.3 158.7 84.75 175.7"/>
            </g>
            <g class="cls-16">
              <polygon class="cls-11" points="82.87 176.79 82.29 177.13 52.85 160.13 53.43 159.79 82.87 176.79"/>
            </g>
            <g class="cls-16">
              <path class="cls-11" d="M107.33,184.8s.02.05.04.07c-.02.05-.02.11.01.16-.13.01-.25.04-.34.09s-.13.12-.14.18l-.11.06c-.12,0-.23.03-.32.08-.09.05-.13.12-.14.18l-.11.06c-.12,0-.23.03-.32.08-.09.05-.13.12-.14.19l-.11.06c-.12,0-.23.03-.32.08-.09.05-.13.12-.14.19l-.11.06c-.12,0-.23.03-.32.08-.09.05-.13.12-.14.19l-.11.06c-.11,0-.23.03-.32.08-.09.05-.13.12-.14.19l-.11.06c-.12,0-.23.03-.32.08-.09.05-.13.12-.14.18l-.11.06c-.12,0-.23.03-.32.08-.09.05-.13.12-.14.19l-.1.06c-.12,0-.23.03-.32.08-.09.05-.13.12-.14.19l-.11.06c-.12,0-.23.03-.32.08s-.13.12-.14.18l-.11.06c-.11,0-.23.03-.32.08-.09.05-.13.12-.14.18l-.11.06c-.11,0-.23.03-.32.08-.09.05-.13.12-.14.18l-.11.06c-.12,0-.23.03-.32.08-.09.05-.13.12-.14.18l-.11.06c-.12,0-.23.03-.32.08-.09.05-.13.12-.14.19l-.11.06c-.12,0-.23.03-.32.08-.09.05-.13.12-.14.18l-.11.06c-.11,0-.23.03-.32.08s-.13.12-.14.19l-.14.08s-.1-.02-.15-.02c-.02-.02-.04-.04-.07-.05-.1-.06-.22-.08-.34-.08l-.13-.07c0-.07-.04-.14-.14-.2-.09-.05-.22-.08-.34-.08l-.13-.07c0-.07-.04-.14-.14-.2-.09-.05-.22-.08-.34-.08l-.13-.08c0-.07-.04-.14-.14-.2-.09-.05-.22-.08-.34-.08l-.13-.07c0-.07-.05-.14-.14-.2-.09-.05-.22-.08-.34-.08l-.13-.07c0-.07-.05-.14-.14-.2-.1-.06-.22-.08-.34-.08l-.13-.07c0-.07-.05-.14-.14-.2-.1-.06-.22-.08-.34-.08l-.13-.07c0-.07-.05-.14-.14-.2-.1-.06-.22-.08-.34-.08l-.13-.07c0-.07-.05-.14-.14-.2-.1-.05-.22-.08-.34-.08l-.13-.07c0-.07-.04-.14-.14-.2-.1-.05-.22-.08-.34-.08l-.1-.06c.05-.06.06-.13.03-.19l.18-.11c.1,0,.19-.03.26-.08.07-.04.12-.1.13-.15l.17-.1c.1,0,.19-.03.26-.08.07-.04.12-.1.13-.15l.17-.1c.1,0,.19-.03.26-.08.07-.04.12-.1.13-.15l.17-.1c.1,0,.19-.03.26-.08.07-.04.12-.1.13-.15l.17-.1c.1,0,.19-.03.26-.08.07-.04.12-.1.13-.15l.17-.1c.1,0,.19-.03.26-.08.07-.04.12-.1.13-.15l.17-.1c.1,0,.19-.03.26-.08.07-.04.12-.1.13-.15l.17-.1c.1,0,.19-.03.26-.08.07-.04.12-.1.13-.15l.17-.1c.1,0,.19-.03.26-.08.07-.04.12-.1.13-.15l.17-.1c.1,0,.19-.03.26-.08.07-.04.12-.1.13-.15l.17-.1c.1,0,.19-.03.26-.08.07-.04.12-.1.13-.15l.17-.1c.1,0,.19-.03.26-.08.07-.04.12-.1.13-.15l.17-.1c.1,0,.19-.03.26-.08.07-.04.12-.1.13-.15l.17-.1c.1,0,.19-.03.26-.08.07-.04.12-.1.13-.15l.17-.1c.1,0,.19-.03.26-.08.07-.04.12-.1.13-.15l.17-.1c.1,0,.19-.03.26-.08.07-.04.12-.1.13-.15l.06-.04c.08.01.16.01.24,0l.09.05c.02.05.06.11.13.15.07.04.16.07.25.08l.14.08c.02.05.06.1.13.15.07.04.16.07.25.08l.14.08c.02.05.06.11.13.15.07.04.16.07.25.08l.14.08c.02.05.06.11.13.15s.16.07.25.08l.14.08c.02.05.06.1.13.15.07.04.16.07.25.08l.14.08c.02.05.06.11.13.15.07.04.16.07.25.08l.14.08c.02.05.06.1.13.15.07.04.16.07.25.08l.14.08c.02.05.06.1.13.15.07.04.16.07.25.08l.14.08c.02.05.06.11.13.15.07.04.16.07.25.08l.14.08c.02.05.06.1.13.15.07.04.16.07.25.08l.14.08c.02.05.06.1.13.15.07.04.16.07.25.08l.14.08Z"/>
            </g>
          </g>
          <g>
            <polygon class="cls-2" points="112.4 185.44 112.4 185.24 81.19 203.37 81.19 204.04 82.22 204.04 113.36 185.94 112.4 185.44"/>
            <g class="cls-16">
              <polygon class="cls-11" points="81.19 203.37 81.19 204.04 27.33 172.92 27.34 172.25 81.19 203.37"/>
            </g>
          </g>
        </g>
        <g>
          <polygon class="cls-7" points="118.39 155.36 65.16 124.6 34.32 142.52 34.32 143.18 87.55 173.94 118.39 156.02 118.39 155.36 118.39 155.36"/>
          <g>
            <polygon class="cls-5" points="80.62 168.06 83.25 169.58 83.58 169.39 80.96 167.87 80.62 168.06"/>
            <polygon class="cls-5" points="80.62 167.68 79.25 166.89 78.92 167.08 80.29 167.87 80.62 167.68"/>
            <polygon class="cls-5" points="86.42 169.83 80.28 166.29 79.95 166.48 86.09 170.02 86.42 169.83"/>
            <polygon class="cls-5" points="86.75 170.02 86.42 170.22 88.61 171.48 88.94 171.29 86.75 170.02"/>
          </g>
          <g>
            <polygon class="cls-2" points="118.39 155.56 118.39 155.36 87.55 173.28 87.55 173.94 88.56 173.94 119.34 156.06 118.39 155.56"/>
            <g class="cls-16">
              <polygon class="cls-11" points="87.55 173.28 87.55 173.94 34.32 143.18 34.32 142.52 87.55 173.28"/>
            </g>
          </g>
          <g>
            <polygon class="cls-5" points="78.66 147.29 78.66 147.62 65.16 124.6 78.66 147.29"/>
            <polygon class="cls-2" points="78.66 147.29 78.66 147.62 81.69 148.57 118.39 155.36 78.66 147.29"/>
          </g>
        </g>
        <g>
          <polygon class="cls-7" points="152.98 172.2 124.47 155.64 75.28 184.06 75.28 184.67 103.79 201.24 152.98 172.81 152.98 172.2"/>
          <g>
            <g class="cls-16">
              <polygon class="cls-11" points="98.82 174.35 99.35 174.66 126.25 159.13 125.72 158.82 98.82 174.35"/>
            </g>
            <g class="cls-16">
              <polygon class="cls-11" points="100.54 175.35 101.07 175.66 127.96 160.13 127.43 159.82 100.54 175.35"/>
            </g>
            <g class="cls-16">
              <polygon class="cls-11" points="102.25 176.35 102.78 176.65 129.68 161.13 129.15 160.82 102.25 176.35"/>
            </g>
            <g class="cls-16">
              <path class="cls-11" d="M79.91,183.67s-.02.04-.04.06c.02.05.02.1-.01.15.12.01.23.04.31.08.08.05.12.11.12.17l.1.06c.11,0,.21.03.29.07.08.05.12.11.12.17l.1.06c.11,0,.21.03.29.07.08.05.12.11.13.17l.1.06c.11,0,.21.03.29.07.08.05.12.11.13.17l.1.06c.11,0,.21.03.29.07.08.05.12.11.12.17l.1.06c.1,0,.21.03.29.07.08.05.12.11.12.17l.1.06c.11,0,.21.03.29.07.08.05.12.11.12.17l.1.06c.11,0,.21.03.29.07.08.05.12.11.13.17l.1.06c.11,0,.21.03.29.07.08.05.12.11.13.17l.1.06c.11,0,.21.03.29.07.08.05.12.11.12.17l.1.06c.1,0,.21.03.29.07.08.05.12.11.12.17l.1.06c.1,0,.21.03.29.07.08.05.12.11.12.17l.1.06c.11,0,.21.03.29.07.08.05.12.11.12.17l.1.06c.11,0,.21.03.29.07.08.05.12.11.13.17l.1.06c.11,0,.21.03.29.07.08.05.12.11.12.17l.1.06c.1,0,.21.03.29.07.08.05.12.11.12.17l.13.08s.09-.01.14-.01c.02-.02.04-.03.06-.05.09-.05.2-.07.31-.07l.12-.07c0-.07.04-.13.13-.18.09-.05.2-.07.31-.07l.12-.07c0-.07.04-.13.13-.18.09-.05.2-.07.31-.07l.12-.07c0-.07.04-.13.13-.18.09-.05.2-.07.31-.07l.12-.07c0-.07.04-.13.13-.18.09-.05.2-.07.31-.07l.12-.07c0-.07.04-.13.13-.18.09-.05.2-.07.31-.07l.12-.07c0-.07.04-.13.13-.18.09-.05.2-.07.31-.07l.12-.07c0-.07.04-.13.13-.18.09-.05.2-.07.31-.07l.12-.07c0-.07.04-.13.13-.18.09-.05.2-.07.31-.07l.12-.07c0-.07.04-.13.13-.18.09-.05.2-.07.31-.07l.09-.05c-.04-.05-.05-.12-.03-.17l-.17-.1c-.09,0-.17-.03-.24-.07-.07-.04-.11-.09-.12-.14l-.15-.09c-.09,0-.17-.03-.24-.07-.07-.04-.11-.09-.12-.14l-.15-.09c-.09,0-.17-.03-.24-.07-.07-.04-.11-.09-.12-.14l-.15-.09c-.09,0-.17-.03-.24-.07-.07-.04-.11-.09-.12-.14l-.15-.09c-.09,0-.17-.03-.24-.07-.07-.04-.11-.09-.12-.14l-.15-.09c-.09,0-.17-.03-.24-.07-.07-.04-.11-.09-.12-.14l-.15-.09c-.09,0-.17-.03-.24-.07-.07-.04-.11-.09-.12-.14l-.15-.09c-.09,0-.17-.03-.24-.07-.07-.04-.11-.09-.12-.14l-.15-.09c-.09,0-.17-.03-.24-.07-.07-.04-.11-.09-.12-.14l-.15-.09c-.09,0-.17-.03-.24-.07-.07-.04-.11-.09-.12-.14l-.15-.09c-.09,0-.17-.03-.24-.07-.07-.04-.11-.09-.12-.14l-.15-.09c-.09,0-.17-.03-.24-.07-.07-.04-.11-.09-.12-.14l-.15-.09c-.09,0-.17-.03-.24-.07-.07-.04-.11-.09-.12-.14l-.15-.09c-.09,0-.17-.03-.24-.07-.07-.04-.11-.09-.12-.14l-.15-.09c-.09,0-.17-.03-.24-.07-.07-.04-.11-.09-.12-.14l-.15-.09c-.09,0-.17-.03-.24-.07-.07-.04-.11-.09-.12-.14l-.06-.03c-.07.01-.15.01-.22,0l-.08.05s-.06.1-.12.13c-.06.04-.15.06-.23.07l-.13.07s-.05.1-.12.13c-.07.04-.15.06-.23.07l-.13.07s-.06.1-.12.13c-.07.04-.15.06-.23.07l-.13.07s-.06.1-.12.13c-.07.04-.15.06-.23.07l-.13.07s-.05.1-.12.13c-.07.04-.15.06-.23.07l-.13.07s-.06.1-.12.13c-.07.04-.15.06-.23.07l-.13.07s-.05.1-.12.13c-.06.04-.15.06-.23.07l-.13.07s-.05.1-.12.13c-.07.04-.15.06-.23.07l-.13.07s-.06.1-.12.13c-.07.04-.15.06-.23.07l-.13.07s-.05.1-.12.13c-.07.04-.15.06-.23.07l-.13.07s-.05.1-.12.13c-.07.04-.15.06-.23.07l-.13.07Z"/>
            </g>
          </g>
          <g>
            <g class="cls-16">
              <polygon class="cls-11" points="75.28 184.06 75.28 184.67 103.79 201.24 103.78 200.63 75.28 184.06"/>
            </g>
            <polygon class="cls-2" points="152.98 172.37 152.98 172.2 103.78 200.63 103.79 201.24 104.77 201.24 153.86 172.87 152.98 172.37"/>
          </g>
        </g>
        <g>
          <polygon class="cls-7" points="181.79 141.45 150.58 159.58 150.58 160.25 204.44 191.37 235.65 173.24 235.65 172.57 181.79 141.45"/>
          <g>
            <g class="cls-16">
              <polygon class="cls-11" points="209.88 161.94 209.3 162.27 179.85 145.27 180.43 144.94 209.88 161.94"/>
            </g>
            <g class="cls-16">
              <polygon class="cls-11" points="208 163.03 207.42 163.37 177.97 146.37 178.55 146.03 208 163.03"/>
            </g>
            <g class="cls-16">
              <polygon class="cls-11" points="206.12 164.12 205.54 164.46 176.09 147.46 176.67 147.12 206.12 164.12"/>
            </g>
            <g class="cls-16">
              <path class="cls-11" d="M230.58,172.13s.02.05.04.07c-.02.05-.02.11.01.16-.13.01-.25.04-.34.09s-.13.12-.14.19l-.11.06c-.12,0-.23.03-.32.08-.09.05-.13.12-.14.19l-.11.06c-.12,0-.23.03-.32.08-.09.05-.13.12-.14.19l-.11.06c-.12,0-.23.03-.32.08-.09.05-.13.12-.14.19l-.11.06c-.12,0-.23.03-.32.08-.09.05-.13.12-.14.19l-.11.06c-.11,0-.23.03-.32.08-.09.05-.13.12-.14.19l-.11.06c-.12,0-.23.03-.32.08s-.13.12-.14.19l-.11.06c-.12,0-.23.03-.32.08-.09.05-.13.12-.14.19l-.1.06c-.12,0-.23.03-.32.08-.09.05-.13.12-.14.19l-.11.06c-.12,0-.23.03-.32.08-.09.05-.13.12-.14.18l-.11.06c-.11,0-.23.03-.32.08s-.13.12-.14.18l-.11.06c-.11,0-.23.03-.32.08-.09.05-.13.12-.14.18l-.11.06c-.12,0-.23.03-.32.08-.09.05-.13.12-.14.18l-.11.06c-.12,0-.23.03-.32.08-.09.05-.13.12-.14.19l-.11.06c-.12,0-.23.03-.32.08-.09.05-.13.12-.14.19l-.11.06c-.11,0-.23.03-.32.08-.09.05-.13.12-.14.18l-.14.08s-.1-.02-.15-.02c-.02-.02-.04-.04-.07-.05-.1-.06-.22-.08-.34-.08l-.13-.07c0-.07-.04-.14-.14-.2-.09-.05-.22-.08-.34-.08l-.13-.07c0-.07-.04-.14-.14-.2-.09-.05-.22-.08-.34-.08l-.13-.07c0-.07-.04-.14-.14-.2-.09-.05-.22-.08-.34-.08l-.13-.07c0-.07-.05-.14-.14-.2-.09-.05-.22-.08-.34-.08l-.13-.07c0-.07-.05-.14-.14-.2-.1-.06-.22-.08-.34-.08l-.13-.07c0-.07-.05-.14-.14-.2-.1-.06-.22-.08-.34-.08l-.13-.07c0-.07-.05-.14-.14-.2-.1-.06-.22-.08-.34-.08l-.13-.07c0-.07-.05-.14-.14-.2-.1-.05-.22-.08-.34-.08l-.13-.07c0-.07-.04-.14-.14-.2-.1-.06-.22-.08-.34-.08l-.1-.06c.05-.06.06-.13.03-.19l.18-.11c.1,0,.19-.03.26-.08.07-.04.12-.1.13-.15l.17-.1c.1,0,.19-.03.26-.08.07-.04.12-.1.13-.15l.17-.1c.1,0,.19-.03.26-.08.07-.04.12-.1.13-.15l.17-.1c.1,0,.19-.03.26-.08.07-.04.12-.1.13-.15l.17-.1c.1,0,.19-.03.26-.08.07-.04.12-.1.13-.15l.17-.1c.1,0,.19-.03.26-.08.07-.04.12-.1.13-.15l.17-.1c.1,0,.19-.03.26-.08.07-.04.12-.1.13-.15l.17-.1c.1,0,.19-.03.26-.08.07-.04.12-.1.13-.15l.17-.1c.1,0,.19-.03.26-.08.07-.04.12-.1.13-.15l.17-.1c.1,0,.19-.03.26-.08.07-.04.12-.1.13-.15l.17-.1c.1,0,.19-.03.26-.08.07-.04.12-.1.13-.15l.17-.1c.1,0,.19-.03.26-.08.07-.04.12-.1.13-.15l.17-.1c.1,0,.19-.03.26-.08.07-.04.12-.1.13-.15l.17-.1c.1,0,.19-.03.26-.08.07-.04.12-.1.13-.15l.17-.1c.1,0,.19-.03.26-.08.07-.04.12-.1.13-.15l.17-.1c.1,0,.19-.03.26-.08.07-.04.12-.1.13-.15l.06-.04c.08.01.16.01.24,0l.09.05c.02.05.06.11.13.15s.16.07.25.08l.14.08c.02.05.06.1.13.15.07.04.16.07.25.08l.14.08c.02.05.06.11.13.15.07.04.16.07.25.08l.14.08c.02.05.06.11.13.15.07.04.16.07.25.08l.14.08c.02.05.06.1.13.15.07.04.16.07.25.08l.14.08c.02.05.06.11.13.15s.16.07.25.08l.14.08c.02.05.06.1.13.15.07.04.16.07.25.08l.14.08c.02.05.06.1.13.15.07.04.16.07.25.08l.14.08c.02.05.06.11.13.15.07.04.16.07.25.08l.14.08c.02.05.06.1.13.15.07.04.16.07.25.08l.14.08c.02.05.06.1.13.15.07.04.16.07.25.08l.14.08Z"/>
            </g>
          </g>
          <g>
            <polygon class="cls-2" points="235.65 172.77 235.65 172.57 204.44 190.7 204.44 191.37 205.47 191.37 236.61 173.27 235.65 172.77"/>
            <g class="cls-16">
              <polygon class="cls-11" points="204.44 190.7 204.44 191.37 150.58 160.25 150.58 159.58 204.44 190.7"/>
            </g>
          </g>
        </g>
        <g>
          <polygon class="cls-8" points="210.03 177.57 174.34 156.83 100.68 199.36 100.69 203.05 136.38 223.79 210.04 181.26 210.03 177.57"/>
          <polygon class="cls-13" points="107.68 195.32 143.31 216.09 148.66 213 113.02 192.24 107.68 195.32"/>
          <polygon class="cls-13" points="143.35 219.76 143.31 216.09 148.66 213 148.68 216.69 143.35 219.76"/>
          <g class="cls-17">
            <path class="cls-12" d="M150.59,172l-2.55,1.47,5.95,3.43,2.55-1.47,4.98-2.88,4.54-2.62-5.95-3.43-4.54,2.62-4.99,2.88ZM153.99,176.48l-5.22-3.01,1.82-1.05,5.22,3.01-1.82,1.05ZM156.17,175.22l-5.22-3.01,4.99-2.88,5.22,3.01-4.99,2.88ZM160.12,166.92l5.22,3.01-3.81,2.2-5.22-3.01,3.81-2.2Z"/>
            <path class="cls-12" d="M162.25,165.27l4.78,2.76,12.08-6.97-4.78-2.76-12.08,6.97ZM178.37,161.05l-11.35,6.55-4.05-2.34,11.35-6.55,4.05,2.34Z"/>
            <polygon class="cls-12" points="156.23 170.1 152.34 172.34 152.8 172.61 156.69 170.36 156.23 170.1"/>
            <polygon class="cls-12" points="155.9 171.43 153.33 172.91 153.79 173.18 156.36 171.69 155.9 171.43"/>
            <polygon class="cls-12" points="154.32 173.48 154.78 173.75 158.89 171.37 158.44 171.1 154.32 173.48"/>
            <polygon class="cls-12" points="155.76 174.32 159.38 172.23 158.92 171.96 155.31 174.05 155.76 174.32"/>
            <polygon class="cls-12" points="162.37 169.55 160.14 170.84 160.59 171.11 162.83 169.82 162.37 169.55"/>
            <polygon class="cls-12" points="162.05 168.29 158.88 170.12 159.34 170.38 162.5 168.55 162.05 168.29"/>
            <polygon class="cls-12" points="167.62 163.36 164.46 165.19 165.28 165.66 168.45 163.84 167.62 163.36"/>
            <polygon class="cls-12" points="174.24 159.54 168.61 162.79 169.43 163.27 175.07 160.01 174.24 159.54"/>
            <polygon class="cls-12" points="171.37 163.17 166.16 166.17 166.98 166.65 172.19 163.64 171.37 163.17"/>
            <polygon class="cls-12" points="159.88 168.26 157.76 169.48 158.22 169.74 160.33 168.52 159.88 168.26"/>
            <polygon class="cls-12" points="152.17 174.76 152.82 174.38 151.24 173.47 150.59 173.85 152.17 174.76"/>
          </g>
          <polygon class="cls-6" points="169.05 191.36 200 173.49 199.39 173.14 168.45 191.01 169.05 191.36 169.05 191.36"/>
          <polygon class="cls-6" points="171.84 193.17 202.79 175.3 202.18 174.95 171.23 192.81 171.84 193.17 171.84 193.17"/>
          <g>
            <polygon class="cls-7" points="145.87 190.6 120.42 205.3 108.44 198.38 133.88 183.69 145.87 190.6"/>
            <path class="cls-13" d="M120.42,205.64l-12.58-7.26,26.05-15.04,12.58,7.27-26.05,15.04ZM109.04,198.38l11.38,6.57,24.85-14.34-11.38-6.57-24.85,14.35Z"/>
            <polygon class="cls-10" points="120.55 203.71 136.03 194.77 131.7 192.27 116.22 201.21 120.55 203.71"/>
            <polygon class="cls-10" points="114.12 199.99 136.94 186.81 136.7 186.67 113.87 199.85 114.12 199.99"/>
            <polygon class="cls-10" points="112.84 199.26 135.67 186.08 135.43 185.94 112.6 199.12 112.84 199.26"/>
            <polygon class="cls-10" points="111.52 198.49 134.35 185.31 134.11 185.17 111.28 198.35 111.52 198.49"/>
          </g>
          <g>
            <polygon class="cls-5" points="100.68 199.36 100.69 203.05 136.38 223.79 136.37 220.1 100.68 199.36"/>
            <polygon class="cls-2" points="210.03 178.72 210.04 181.26 210.03 177.57 136.37 220.1 136.38 223.79 142.68 223.79 215.49 181.99 210.03 178.72"/>
          </g>
        </g>
        <g>
          <polygon class="cls-7" points="68.14 93.54 36.94 111.67 36.94 112.34 90.8 143.46 122 125.33 122 124.66 68.14 93.54"/>
          <g>
            <g class="cls-16">
              <polygon class="cls-11" points="96.23 114.03 95.65 114.37 66.2 97.37 66.78 97.03 96.23 114.03"/>
            </g>
            <g class="cls-16">
              <polygon class="cls-11" points="94.35 115.12 93.77 115.46 64.33 98.46 64.91 98.12 94.35 115.12"/>
            </g>
            <g class="cls-16">
              <polygon class="cls-11" points="92.47 116.21 91.89 116.55 62.45 99.55 63.03 99.21 92.47 116.21"/>
            </g>
            <g class="cls-16">
              <path class="cls-11" d="M116.93,124.23s.02.05.04.07c-.02.05-.02.11.01.16-.13.01-.25.04-.34.09-.09.05-.13.12-.14.19l-.11.06c-.12,0-.23.03-.32.08-.09.05-.13.12-.14.18l-.11.06c-.12,0-.23.03-.32.08-.09.05-.13.12-.14.19l-.1.06c-.12,0-.23.03-.32.08-.09.05-.13.12-.14.19l-.11.06c-.12,0-.23.03-.32.08s-.13.12-.14.18l-.11.06c-.11,0-.23.03-.32.08-.09.05-.13.12-.14.18l-.11.06c-.12,0-.23.03-.32.08-.09.05-.13.12-.14.18l-.11.06c-.12,0-.23.03-.32.08s-.13.12-.14.19l-.11.06c-.12,0-.23.03-.32.08-.09.05-.13.12-.14.19l-.1.06c-.12,0-.23.03-.32.08-.09.05-.13.12-.14.18l-.11.06c-.11,0-.23.03-.32.08s-.13.12-.14.19l-.11.06c-.11,0-.23.03-.32.08-.09.05-.13.12-.14.19l-.11.06c-.12,0-.23.03-.32.08s-.13.12-.14.19l-.11.06c-.12,0-.23.03-.32.08-.09.05-.13.12-.14.19l-.11.06c-.12,0-.23.03-.32.08-.09.05-.13.12-.14.18l-.11.06c-.11,0-.23.03-.32.08-.09.05-.13.12-.14.18l-.14.08s-.1-.02-.15-.02c-.02-.02-.04-.04-.07-.05-.1-.06-.22-.08-.34-.08l-.13-.07c0-.07-.04-.14-.14-.2-.09-.05-.22-.08-.34-.08l-.13-.07c0-.07-.04-.14-.14-.2-.09-.05-.22-.08-.34-.08l-.13-.07c0-.07-.04-.14-.14-.2-.09-.05-.22-.08-.34-.08l-.13-.07c0-.07-.05-.14-.14-.2-.09-.05-.22-.08-.34-.08l-.13-.07c0-.07-.05-.14-.14-.2-.1-.05-.22-.08-.34-.08l-.13-.07c0-.07-.05-.14-.14-.2-.1-.05-.22-.08-.34-.08l-.13-.07c0-.07-.05-.14-.14-.2-.1-.06-.22-.08-.34-.08l-.13-.07c0-.07-.05-.14-.14-.2-.1-.06-.22-.08-.34-.08l-.13-.08c0-.07-.04-.14-.14-.2s-.22-.08-.34-.08l-.1-.06c.05-.06.06-.13.03-.19l.18-.11c.1,0,.19-.03.26-.08.07-.04.12-.1.13-.15l.17-.1c.1,0,.19-.03.26-.08.07-.04.12-.1.13-.15l.17-.1c.1,0,.19-.03.26-.08.07-.04.12-.1.13-.15l.17-.1c.1,0,.19-.03.26-.08.07-.04.12-.1.13-.15l.17-.1c.1,0,.19-.03.26-.08.07-.04.12-.1.13-.15l.17-.1c.1,0,.19-.03.26-.08.07-.04.12-.1.13-.15l.17-.1c.1,0,.19-.03.26-.08.07-.04.12-.1.13-.15l.17-.1c.1,0,.19-.03.26-.08.07-.04.12-.1.13-.15l.17-.1c.1,0,.19-.03.26-.08.07-.04.12-.1.13-.15l.17-.1c.1,0,.19-.03.26-.08.07-.04.12-.1.13-.15l.17-.1c.1,0,.19-.03.26-.08.07-.04.12-.1.13-.15l.17-.1c.1,0,.19-.03.26-.08.07-.04.12-.1.13-.15l.17-.1c.1,0,.19-.03.26-.08.07-.04.12-.1.13-.15l.17-.1c.1,0,.19-.03.26-.08.07-.04.12-.1.13-.15l.17-.1c.1,0,.19-.03.26-.08.07-.04.12-.1.13-.15l.17-.1c.1,0,.19-.03.26-.08.07-.04.12-.1.13-.15l.06-.04c.08.01.16.01.24,0l.09.05c.02.05.06.11.13.15s.16.07.25.08l.14.08c.02.05.06.1.13.15.07.04.16.07.25.08l.14.08c.02.05.06.11.13.15.07.04.16.07.25.08l.14.08c.02.05.06.11.13.15.07.04.16.07.25.08l.14.08c.02.05.06.1.13.15.07.04.16.07.25.08l.14.08c.02.05.06.11.13.15.07.04.16.07.25.08l.14.08c.02.05.06.1.13.15.07.04.16.07.25.08l.14.08c.02.05.06.1.13.15.07.04.16.07.25.08l.14.08c.02.05.06.11.13.15.07.04.16.07.25.08l.14.08c.02.05.06.1.13.15.07.04.16.07.25.08l.14.08c.02.05.06.1.13.15.07.04.16.07.25.08l.14.08Z"/>
            </g>
          </g>
          <g>
            <polygon class="cls-2" points="122 124.86 122 124.66 90.8 142.8 90.79 143.46 91.82 143.46 122.96 125.37 122 124.86"/>
            <g class="cls-16">
              <polygon class="cls-11" points="90.8 142.8 90.8 143.46 36.94 112.34 36.94 111.67 90.8 142.8"/>
            </g>
          </g>
        </g>
        <g>
          <polygon class="cls-7" points="184.91 113.91 153.7 132.04 153.7 132.71 207.56 163.84 238.76 145.7 238.77 145.03 184.91 113.91"/>
          <g>
            <g class="cls-16">
              <polygon class="cls-11" points="212.99 134.4 212.41 134.74 182.97 117.74 183.55 117.4 212.99 134.4"/>
            </g>
            <g class="cls-16">
              <polygon class="cls-11" points="211.11 135.49 210.54 135.83 181.09 118.83 181.67 118.49 211.11 135.49"/>
            </g>
            <g class="cls-16">
              <polygon class="cls-11" points="209.24 136.59 208.66 136.92 179.21 119.92 179.79 119.58 209.24 136.59"/>
            </g>
            <g class="cls-16">
              <path class="cls-11" d="M233.7,144.6s.02.05.04.07c-.02.05-.02.11.01.16-.13.01-.25.04-.34.09-.09.05-.13.12-.14.18l-.11.06c-.12,0-.23.03-.32.08-.09.05-.13.12-.14.19l-.11.06c-.12,0-.23.03-.32.08-.09.05-.13.12-.14.19l-.1.06c-.12,0-.23.03-.32.08-.09.05-.13.12-.14.19l-.1.06c-.12,0-.23.03-.32.08s-.13.12-.14.18l-.11.06c-.11,0-.23.03-.32.08-.09.05-.13.12-.14.18l-.11.06c-.12,0-.23.03-.32.08s-.13.12-.14.18l-.11.06c-.12,0-.23.03-.32.08-.09.05-.13.12-.14.19l-.11.06c-.12,0-.23.03-.32.08-.09.05-.13.12-.14.19l-.11.06c-.12,0-.23.03-.32.08-.09.05-.13.12-.14.19l-.11.06c-.11,0-.23.03-.32.08-.09.05-.13.12-.14.19l-.11.06c-.11,0-.23.03-.32.08-.09.05-.13.12-.14.19l-.11.06c-.12,0-.23.03-.32.08s-.13.12-.14.19l-.11.06c-.12,0-.23.03-.32.08-.09.05-.13.12-.14.19l-.1.06c-.12,0-.23.03-.32.08s-.13.12-.14.19l-.11.06c-.11,0-.23.03-.32.08s-.13.12-.14.19l-.14.08s-.1-.02-.15-.02c-.02-.02-.04-.04-.07-.05-.1-.06-.22-.08-.34-.08l-.13-.07c0-.07-.04-.14-.14-.2-.09-.05-.22-.08-.34-.08l-.13-.07c0-.07-.04-.14-.14-.2-.09-.05-.22-.08-.34-.08l-.13-.07c0-.07-.04-.14-.14-.2-.09-.05-.22-.08-.34-.08l-.13-.07c0-.07-.05-.14-.14-.2-.09-.05-.22-.08-.34-.08l-.13-.07c0-.07-.05-.14-.14-.2-.1-.06-.22-.08-.34-.08l-.13-.07c0-.07-.05-.14-.14-.2-.1-.05-.22-.08-.34-.08l-.13-.07c0-.07-.05-.14-.14-.2-.1-.05-.22-.08-.34-.08l-.13-.07c0-.07-.05-.14-.14-.2-.1-.06-.22-.08-.34-.08l-.13-.07c0-.07-.04-.14-.14-.2s-.22-.08-.34-.08l-.1-.06c.05-.06.06-.13.03-.19l.18-.11c.1,0,.19-.03.26-.08.07-.04.12-.1.13-.15l.17-.1c.1,0,.19-.03.26-.08.07-.04.12-.1.13-.15l.17-.1c.1,0,.19-.03.26-.08.07-.04.12-.1.13-.15l.17-.1c.1,0,.19-.03.26-.08.07-.04.12-.1.13-.15l.17-.1c.1,0,.19-.03.26-.08.07-.04.12-.1.13-.15l.17-.1c.1,0,.19-.03.26-.08.07-.04.12-.1.13-.15l.17-.1c.1,0,.19-.03.26-.08.07-.04.12-.1.13-.15l.17-.1c.1,0,.19-.03.26-.08.07-.04.12-.1.13-.15l.17-.1c.1,0,.19-.03.26-.08.07-.04.12-.1.13-.15l.17-.1c.1,0,.19-.03.26-.08.07-.04.12-.1.13-.15l.17-.1c.1,0,.19-.03.26-.08.07-.04.12-.1.13-.15l.17-.1c.1,0,.19-.03.26-.08.07-.04.12-.1.13-.15l.17-.1c.1,0,.19-.03.26-.08.07-.04.12-.1.13-.15l.17-.1c.1,0,.19-.03.26-.08.07-.04.12-.1.13-.15l.17-.1c.1,0,.19-.03.26-.08.07-.04.12-.1.13-.15l.17-.1c.1,0,.19-.03.26-.08.07-.04.12-.1.13-.15l.06-.04c.08.01.16.01.24,0l.09.05c.02.05.06.11.13.15.07.04.16.07.25.08l.14.08c.02.05.06.1.13.15.07.04.16.07.25.08l.14.08c.02.05.06.11.13.15.07.04.16.07.25.08l.14.08c.02.05.06.11.13.15.07.04.16.07.25.08l.14.08c.02.05.06.1.13.15.07.04.16.07.25.08l.14.08c.02.05.06.11.13.15.07.04.16.07.25.08l.14.08c.02.05.06.1.13.15.07.04.16.07.25.08l.14.08c.02.05.06.1.13.15.07.04.16.07.25.08l.14.08c.02.05.06.11.13.15.07.04.16.07.25.08l.14.08c.02.05.06.1.13.15.07.04.16.07.25.08l.14.08c.02.05.06.1.13.15.07.04.16.07.25.08l.14.08Z"/>
            </g>
          </g>
          <g>
            <polygon class="cls-2" points="238.77 145.23 238.77 145.03 207.56 163.17 207.56 163.84 208.58 163.84 239.73 145.74 238.77 145.23"/>
            <g class="cls-16">
              <polygon class="cls-11" points="207.56 163.17 207.56 163.84 153.7 132.71 153.7 132.04 207.56 163.17"/>
            </g>
          </g>
        </g>
        <g>
          <polygon class="cls-7" points="229.45 119.64 176.22 88.88 145.38 106.81 145.38 107.47 198.61 138.22 229.45 120.3 229.45 119.64 229.45 119.64"/>
          <g>
            <polygon class="cls-5" points="191.68 132.35 194.31 133.86 194.64 133.67 192.01 132.15 191.68 132.35"/>
            <polygon class="cls-5" points="191.68 131.96 190.31 131.17 189.98 131.36 191.35 132.15 191.68 131.96"/>
            <polygon class="cls-5" points="197.48 134.12 191.34 130.57 191.01 130.76 197.15 134.31 197.48 134.12"/>
            <polygon class="cls-5" points="197.81 134.31 197.48 134.5 199.67 135.77 200 135.57 197.81 134.31"/>
          </g>
          <g>
            <polygon class="cls-2" points="229.45 119.84 229.45 119.64 198.61 137.56 198.61 138.22 199.62 138.22 230.4 120.34 229.45 119.84"/>
            <g class="cls-16">
              <polygon class="cls-11" points="198.61 137.56 198.61 138.22 145.38 107.47 145.38 106.81 198.61 137.56"/>
            </g>
          </g>
          <g>
            <polygon class="cls-5" points="189.72 111.57 189.72 111.91 176.22 88.88 189.72 111.57"/>
            <polygon class="cls-2" points="189.72 111.57 189.71 111.91 192.75 112.85 229.45 119.64 189.72 111.57"/>
          </g>
        </g>
        <g>
          <polygon class="cls-14" points="127.05 177.07 212.11 127.64 212.27 83.94 127.2 133.38 127.05 177.07"/>
          <polygon class="cls-14" points="127.2 133.38 212.27 83.94 133.65 38.59 48.59 88.02 127.2 133.38"/>
          <polygon class="cls-1" points="144.78 123.17 144.8 137.27 152.21 132.98 152.21 118.85 73.54 73.52 66.16 77.81 144.78 123.17"/>
          <polygon class="cls-1" points="178.33 103.67 178.34 117.74 185.75 113.45 185.75 99.35 107.13 54 99.7 58.31 178.33 103.67"/>
          <polygon class="cls-14" points="48.59 88.02 48.43 131.72 127.05 177.07 127.2 133.38 48.59 88.02"/>
          <polygon class="cls-3" points="48.59 88.02 48.43 131.72 127.05 177.07 127.2 133.38 48.59 88.02"/>
          <g class="cls-17">
            <polygon class="cls-12" points="188.77 108.03 208.48 96.64 208.48 94.19 188.77 105.58 188.77 108.03"/>
            <polygon class="cls-12" points="188.77 110.54 208.48 99.15 208.48 97.87 188.77 109.26 188.77 110.54"/>
            <polygon class="cls-12" points="188.77 111.54 208.48 100.15 208.48 99.74 188.77 111.13 188.77 111.54"/>
            <polygon class="cls-12" points="188.77 112.94 208.48 101.55 208.48 100.71 188.77 112.1 188.77 112.94"/>
            <polygon class="cls-12" points="188.77 114.54 208.48 103.15 208.48 101.93 188.77 113.32 188.77 114.54"/>
            <polygon class="cls-12" points="188.77 115.92 208.48 104.53 208.48 104.34 188.77 115.73 188.77 115.92"/>
            <polygon class="cls-12" points="188.77 115.4 208.48 104.01 208.48 103.48 188.77 114.87 188.77 115.4"/>
            <polygon class="cls-12" points="188.77 116.61 208.48 105.22 208.48 104.88 188.77 116.27 188.77 116.61"/>
            <polygon class="cls-12" points="188.77 117.79 208.48 106.4 208.48 105.57 188.77 116.96 188.77 117.79"/>
            <polygon class="cls-12" points="188.77 119.87 208.48 108.48 208.48 107.65 188.77 119.04 188.77 119.87"/>
            <polygon class="cls-12" points="188.77 118.63 208.48 107.24 208.48 106.82 188.77 118.21 188.77 118.63"/>
            <polygon class="cls-12" points="188.77 121.24 208.48 109.85 208.48 109.02 188.77 120.41 188.77 121.24"/>
          </g>
          <polygon class="cls-6" points="49.18 89.86 87.07 111.73 87.07 110.24 172.13 60.81 172.55 61.05 87.48 110.49 87.49 111.97 126.01 134.16 126.01 134.58 49.18 90.27 49.18 89.86"/>
          <polygon class="cls-1" points="91.38 112.73 176.44 63.3 167.99 58.39 82.93 107.82 82.93 123.02 91.39 127.9 91.38 112.73"/>
          <polygon class="cls-6" points="59.15 133.79 52.25 129.81 52.25 121.84 59.15 125.83 59.15 133.79"/>
          <polygon class="cls-6" points="67.86 138.88 60.97 134.89 60.97 126.93 67.86 130.91 67.86 138.88"/>
          <g>
            <g class="cls-15">
              <path class="cls-12" d="M156.35,126.46l-21.55,12.44-3,1.73v1.91s0,1.28,0,1.28v7.57s0,.24,0,.24v9.08s3-1.73,3-1.73l21.55-12.44,6.38-3.69v-4.78s0-1.28,0-1.28v-7.57s0-.24,0-.24v-6.21l-6.38,3.69ZM134.8,155.7v-1.28l21.34-12.32v1.28l-21.34,12.32ZM156.14,143.62v1.28l-21.34,12.32v-1.28l21.34-12.32ZM134.8,154.19v-1.28l21.34-12.32v1.28l-21.34,12.32ZM134.8,152.67v-1.28l21.34-12.32v1.28l-21.34,12.32ZM134.8,151.16v-1.28s21.34-12.32,21.34-12.32v1.28l-21.34,12.32ZM134.8,149.65v-1.28l21.34-12.32v1.28l-21.34,12.32ZM134.8,148.13v-1.28l21.34-12.32v1.28s-21.34,12.32-21.34,12.32ZM134.8,146.62v-1.28l21.34-12.32v1.28l-21.34,12.32ZM134.8,145.11v-1.28l21.34-12.32v1.28l-21.34,12.32ZM134.8,143.59v-1.28l21.34-12.32v1.28l-21.34,12.32ZM134.8,142.08v-1.28s21.34-12.32,21.34-12.32v1.28l-21.34,12.32ZM134.8,140.57v-1.28l21.34-12.32v1.28l-21.34,12.32ZM132,140.9l2.59-1.5v1.28l-2.59,1.5v-1.28ZM132,142.42l2.59-1.5v1.28l-2.59,1.5v-1.28ZM132,143.93l2.59-1.5v1.28s-2.59,1.5-2.59,1.5v-1.28ZM132,145.44l2.59-1.5v1.28l-2.59,1.5v-1.28ZM132,146.96l2.59-1.5v1.28l-2.59,1.5v-1.28ZM132,148.47l2.59-1.5v1.28l-2.59,1.5v-1.28ZM132,149.98l2.59-1.5v1.28l-2.59,1.5v-1.28ZM132,151.5l2.59-1.5v1.28l-2.59,1.5v-1.28ZM132,153.01l2.59-1.5v1.28l-2.59,1.5v-1.28ZM132,154.53l2.59-1.5v1.28l-2.59,1.5v-1.28ZM132,156.04l2.59-1.5v1.28l-2.59,1.5v-1.28ZM132,157.55l2.59-1.5v1.28l-2.59,1.5v-1.28ZM132,160.34v-1.28l2.59-1.5v1.28l-2.59,1.5ZM134.8,158.73v-1.28l21.34-12.32v1.28l-21.34,12.32ZM162.53,142.72l-6.18,3.57v-1.28l6.18-3.57v1.28ZM162.53,141.21l-6.18,3.57v-1.28l6.18-3.57v1.28ZM162.53,139.69l-6.18,3.57v-1.28s6.18-3.57,6.18-3.57v1.28ZM162.53,138.18l-6.18,3.57v-1.28l6.18-3.57v1.28ZM162.53,136.67l-6.18,3.57v-1.28l6.18-3.57v1.28ZM162.53,135.15l-6.18,3.57v-1.28l6.18-3.57v1.28ZM162.53,133.64l-6.18,3.57v-1.28l6.18-3.57v1.28ZM162.53,132.13l-6.18,3.57v-1.28l6.18-3.57v1.28ZM162.53,130.61l-6.18,3.57v-1.28s6.18-3.57,6.18-3.57v1.28ZM162.53,129.1l-6.18,3.57v-1.28l6.18-3.57v1.28ZM162.53,127.59l-6.18,3.57v-1.28l6.18-3.57v1.28ZM162.53,126.07l-6.18,3.57v-1.28l6.18-3.57v1.28ZM156.35,128.13v-1.28l6.18-3.57v1.28l-6.18,3.57Z"/>
            </g>
            <g class="cls-15">
              <polygon class="cls-12" points="131.72 168.34 150.54 157.47 150.54 151.4 131.72 162.26 131.72 168.34"/>
            </g>
          </g>
          <polygon class="cls-2" points="212.21 99.88 212.27 83.94 127.2 133.38 127.05 177.07 188.77 177.25 248.09 142.77 248.13 121.24 212.21 99.88"/>
        </g>
        <g>
          <polygon class="cls-7" points="143.86 119.36 71.72 77.44 70.45 76.58 142.58 118.5 143.86 119.36"/>
          <polygon class="cls-6" points="143.86 119.36 71.72 77.44 70.45 76.58 142.58 118.5 143.86 119.36"/>
          <polygon class="cls-7" points="142.58 118.5 70.45 76.58 70.44 74.47 142.58 116.39 142.58 118.5"/>
          <polygon class="cls-7" points="142.58 116.39 70.44 74.47 71.71 72.14 143.85 114.06 142.58 116.39"/>
          <polygon class="cls-7" points="143.85 114.06 71.71 72.14 121.07 43.64 193.21 85.56 143.85 114.06"/>
          <polygon class="cls-7" points="193.2 85.57 179.66 93.39 107.29 51.6 121.07 43.64 193.2 85.57"/>
          <polygon class="cls-7" points="193.21 85.56 193.21 88.46 191.59 89.39 191.59 91.83 143.86 119.36 142.58 118.5 142.58 116.39 143.85 114.06 193.21 85.56"/>
          <polygon class="cls-6" points="191.59 89.39 191.59 89.84 149.83 113.76 191.59 89.39"/>
          <g>
            <path class="cls-9" d="M162.62,74.9c.21-.02.4-.08.57-.18.2-.12.31-.25.33-.4.01-.15-.06-.28-.21-.41-.11-.09-.37-.26-.78-.49l-.55-.32-1.6.92.62.36c.45.26.78.41.99.47.21.05.42.07.63.05Z"/>
            <path class="cls-9" d="M152.29,68.93c.21-.02.4-.08.57-.18.2-.12.31-.25.33-.4.01-.15-.06-.28-.21-.41-.11-.09-.37-.26-.78-.49l-.55-.32-1.6.92.62.36c.45.26.78.41.99.47.21.05.42.07.63.05Z"/>
            <path class="cls-9" d="M174.17,80.17c-.08-.06-.35-.22-.81-.49l-.89-.51-1.43.82.84.49c.54.31.91.5,1.09.55.18.05.37.07.56.05.19-.02.37-.08.54-.18.19-.11.29-.23.31-.35.01-.13-.05-.25-.21-.37Z"/>
            <path class="cls-9" d="M121.07,43.64l-13.78,7.96,72.38,41.79,13.54-7.82-72.14-41.92ZM124.93,46.93l2.39,1.38-.23.13-2.39-1.38.23-.13ZM126.61,48.72l-.23.13-3.39-1.95.23-.13,3.39,1.95ZM122.47,45.51l2.23,1.29-.23.13-2.23-1.29.23-.13ZM121.35,44.86l.9.52-.23.13-.9-.52.23-.13ZM120.63,45.27l2.37,1.37-.23.13-2.37-1.37.23-.13ZM119.92,45.68l3.88,2.24-.23.13-3.88-2.24.23-.13ZM121.49,47.68l-2.51-1.45.23-.13,2.51,1.45-.23.13ZM125.59,57.49l1.4-3.43-3.67,2.12-1.06-.61,5.63-3.25,1.11.64-1.45,3.5,3.76-2.17,1.06.61-5.63,3.25-1.14-.66ZM132.21,61.32l-4.28-2.47,5.63-3.25,4.17,2.41-.95.55-3.04-1.75-1.25.72,2.82,1.63-.95.55-2.82-1.63-1.53.88,3.14,1.82-.95.55ZM137.44,64.34l3.09-3.08-5.32,1.78-1.23-.71,4.28-4.02,1.16.67-3.02,2.72,4.89-1.64,1.35.78-2.94,2.84,4.79-1.77,1.14.66-6.99,2.46-1.21-.7ZM143.95,67.98c-.46-.11-.94-.31-1.43-.59-.71-.41-1.09-.82-1.15-1.23-.05-.41.2-.82.75-1.22l1.21.58c-.3.25-.44.49-.41.71.03.22.22.43.56.63.37.21.72.33,1.06.34.34.02.61-.03.82-.15.13-.08.21-.16.22-.26.02-.1-.04-.22-.16-.38-.09-.1-.31-.33-.66-.67-.46-.44-.7-.79-.73-1.06-.04-.38.17-.7.61-.95.29-.17.64-.27,1.05-.32.41-.05.84-.02,1.27.08.44.1.87.28,1.3.53.71.41,1.08.8,1.13,1.19.05.39-.18.73-.68,1.04l-1.19-.63c.24-.2.34-.38.31-.54-.03-.17-.21-.34-.53-.53-.33-.19-.66-.3-.98-.33-.21-.02-.38.01-.53.1-.13.08-.19.17-.17.29.02.15.25.43.67.82.42.39.7.71.82.94.13.23.14.46.05.69-.09.23-.32.44-.67.65-.32.19-.71.31-1.17.37-.46.06-.92.03-1.39-.08ZM149.09,68.61l-2.12,1.23-1.14-.66,5.63-3.25,1.82,1.05c.69.4,1.11.68,1.27.83.24.24.32.5.26.79-.07.29-.32.56-.77.82-.35.2-.7.33-1.06.39-.36.06-.7.08-1.03.04-.33-.03-.61-.1-.86-.19-.32-.13-.74-.34-1.26-.63l-.74-.43ZM154.33,74.09l.79-1.02-2.25-1.3-1.74.47-1.21-.7,7.82-1.98,1.2.69-3.37,4.55-1.24-.71ZM159.43,74.58l-2.12,1.23-1.14-.66,5.63-3.25,1.82,1.05c.69.4,1.11.68,1.27.83.24.23.32.5.26.79-.07.29-.32.56-.77.82-.35.2-.7.33-1.06.39-.36.06-.7.08-1.03.04-.33-.03-.61-.1-.86-.19-.32-.13-.74-.34-1.26-.63l-.74-.43ZM165.69,80.65l-4.28-2.47,5.63-3.25,4.17,2.41-.95.55-3.04-1.75-1.25.72,2.82,1.63-.95.55-2.82-1.63-1.53.88,3.14,1.81-.95.55ZM175.95,80.87c-.09.24-.31.46-.64.65-.42.24-.9.37-1.42.39-.52.02-1.07-.1-1.63-.34.1.22.15.43.14.62-.01.19-.1.49-.27.9l-.41,1.03-1.36-.78.4-1.18c.15-.42.22-.7.23-.82,0-.13-.03-.24-.11-.33-.08-.09-.25-.22-.51-.37l-.23-.13-2.35,1.36-1.14-.66,5.63-3.25,2.39,1.38c.6.35.99.63,1.16.84s.21.45.12.69Z"/>
            <polygon class="cls-9" points="155.7 72.31 157.01 70.66 154.17 71.42 155.7 72.31"/>
          </g>
          <polygon class="cls-10" points="164.35 87.09 162.37 88.21 117.91 62 119.92 60.86 164.35 87.09"/>
          <polygon class="cls-10" points="156.7 86.26 154.73 87.37 114.76 63.79 116.78 62.65 156.7 86.26"/>
          <polygon class="cls-10" points="156.19 89.7 154.22 90.82 111.54 65.63 113.55 64.49 156.19 89.7"/>
          <g>
            <polygon class="cls-10" points="132.5 107.46 131.43 109.91 131.41 111.21 131.08 111.02 131.08 109.71 132.16 107.27 166.84 87.21 167.17 87.4 132.5 107.46"/>
            <polygon class="cls-10" points="152.8 98.98 150.67 97.75 150.33 97.94 152.47 99.17 152.8 98.98"/>
            <g>
              <polygon class="cls-10" points="155.32 99.24 151.71 97.15 151.37 97.34 154.99 99.43 155.32 99.24"/>
              <polygon class="cls-10" points="155.32 99.62 157.21 100.71 157.54 100.52 155.65 99.43 155.32 99.62"/>
              <polygon class="cls-10" points="157.88 100.71 157.54 100.91 160.08 102.37 160.42 102.18 157.88 100.71"/>
            </g>
            <g>
              <polygon class="cls-10" points="154.71 97.69 152.74 96.55 152.41 96.74 154.38 97.88 154.71 97.69"/>
              <polygon class="cls-10" points="155.04 97.88 154.71 98.07 161.12 101.77 161.46 101.58 155.04 97.88"/>
            </g>
            <g>
              <polygon class="cls-10" points="160.37 99.76 153.78 95.95 153.45 96.14 160.04 99.95 160.37 99.76"/>
              <polygon class="cls-10" points="160.71 99.95 160.37 100.14 162.16 101.18 162.49 100.98 160.71 99.95"/>
            </g>
            <g>
              <polygon class="cls-10" points="158.27 97.34 154.82 95.35 154.48 95.55 157.93 97.54 158.27 97.34"/>
              <polygon class="cls-10" points="158.6 97.54 158.27 97.73 163.2 100.58 163.53 100.38 158.6 97.54"/>
            </g>
            <g>
              <polygon class="cls-10" points="148.67 102.91 145.23 100.92 144.89 101.11 148.34 103.1 148.67 102.91"/>
              <polygon class="cls-10" points="149.01 103.1 148.67 103.3 153.61 106.15 153.94 105.95 149.01 103.1"/>
            </g>
            <polygon class="cls-10" points="137.94 107.58 135.81 106.35 135.48 106.54 137.61 107.77 137.94 107.58"/>
            <g>
              <polygon class="cls-10" points="140.46 107.83 136.85 105.75 136.51 105.94 140.13 108.03 140.46 107.83"/>
              <polygon class="cls-10" points="140.46 108.22 142.35 109.31 142.69 109.12 140.79 108.03 140.46 108.22"/>
              <polygon class="cls-10" points="143.02 109.31 142.69 109.5 145.23 110.97 145.56 110.78 143.02 109.31"/>
            </g>
            <g>
              <polygon class="cls-10" points="139.85 106.28 137.88 105.15 137.55 105.34 139.52 106.48 139.85 106.28"/>
              <polygon class="cls-10" points="140.19 106.48 139.85 106.67 146.26 110.37 146.6 110.18 140.19 106.48"/>
            </g>
            <g>
              <polygon class="cls-10" points="136.37 108.2 134.4 107.06 134.07 107.25 136.03 108.39 136.37 108.2"/>
              <polygon class="cls-10" points="136.7 108.39 136.37 108.58 142.78 112.28 143.11 112.09 136.7 108.39"/>
            </g>
            <g>
              <polygon class="cls-10" points="145.52 108.36 138.92 104.55 138.59 104.74 145.18 108.55 145.52 108.36"/>
              <polygon class="cls-10" points="145.85 108.55 145.52 108.74 147.3 109.77 147.64 109.58 145.85 108.55"/>
            </g>
            <g>
              <polygon class="cls-10" points="143.41 105.94 139.96 103.95 139.63 104.14 143.07 106.13 143.41 105.94"/>
              <polygon class="cls-10" points="143.74 106.13 143.41 106.33 148.34 109.17 148.67 108.98 143.74 106.13"/>
            </g>
            <polygon class="cls-10" points="164.74 91.71 169.08 94.22 169.42 94.02 165.08 91.52 164.74 91.71"/>
            <polygon class="cls-10" points="164.74 91.33 163.27 90.47 162.94 90.67 164.41 91.52 164.74 91.33"/>
            <g>
              <polygon class="cls-10" points="167.97 91.99 164.31 89.87 163.97 90.07 167.63 92.18 167.97 91.99"/>
              <polygon class="cls-10" points="168.3 92.18 167.97 92.37 172.69 95.1 173.02 94.91 168.3 92.18"/>
            </g>
            <g>
              <polygon class="cls-10" points="171 92.93 172.12 93.57 172.45 93.38 171.34 92.73 171 92.93"/>
              <polygon class="cls-10" points="171 92.54 165.35 89.28 165.01 89.47 170.67 92.73 171 92.54"/>
              <polygon class="cls-10" points="172.79 93.57 172.45 93.77 173.72 94.5 174.06 94.31 172.79 93.57"/>
            </g>
            <polygon class="cls-10" points="143.46 103.94 147.8 106.44 148.13 106.25 143.79 103.74 143.46 103.94"/>
            <polygon class="cls-10" points="143.46 103.55 141.98 102.7 141.65 102.89 143.13 103.74 143.46 103.55"/>
            <g>
              <polygon class="cls-10" points="146.68 104.21 143.02 102.1 142.69 102.29 146.35 104.4 146.68 104.21"/>
              <polygon class="cls-10" points="147.02 104.4 146.68 104.6 151.4 107.32 151.74 107.13 147.02 104.4"/>
            </g>
            <g>
              <polygon class="cls-10" points="137.3 109.64 133.64 107.53 133.31 107.72 136.97 109.84 137.3 109.64"/>
              <polygon class="cls-10" points="137.63 109.84 137.3 110.03 142.02 112.75 142.35 112.56 137.63 109.84"/>
            </g>
            <polygon class="cls-10" points="136.45 110.22 132.79 108.11 132.62 108.46 136.28 110.57 136.45 110.22"/>
            <polygon class="cls-10" points="139.42 111.93 136.74 110.37 136.57 110.72 139.25 112.28 139.42 111.93"/>
            <polygon class="cls-10" points="136.14 111 132.48 108.89 132.32 109.24 135.98 111.35 136.14 111"/>
            <polygon class="cls-10" points="142 114.37 138.34 112.26 138.17 112.6 141.83 114.72 142 114.37"/>
            <polygon class="cls-10" points="137.96 112.04 136.43 111.15 136.27 111.5 137.8 112.39 137.96 112.04"/>
            <polygon class="cls-10" points="133.71 110.49 132.18 109.6 132.01 109.94 133.54 110.84 133.71 110.49"/>
            <polygon class="cls-10" points="142.43 113.67 139.75 112.11 139.58 112.46 142.26 114.02 142.43 113.67"/>
            <g>
              <polygon class="cls-10" points="149.72 105.15 150.84 105.8 151.17 105.6 150.05 104.96 149.72 105.15"/>
              <polygon class="cls-10" points="149.72 104.77 144.06 101.5 143.73 101.69 149.38 104.96 149.72 104.77"/>
              <polygon class="cls-10" points="151.5 105.8 151.17 105.99 152.44 106.72 152.77 106.53 151.5 105.8"/>
            </g>
            <g>
              <polygon class="cls-10" points="170.16 90.86 169.83 91.05 174.76 93.9 175.1 93.71 170.16 90.86"/>
              <polygon class="cls-10" points="169.83 90.67 166.38 88.68 166.05 88.87 169.5 90.86 169.83 90.67"/>
            </g>
            <g>
              <polygon class="cls-10" points="168.73 88.83 167.42 88.08 167.09 88.27 168.4 89.03 168.73 88.83"/>
              <polygon class="cls-10" points="168.73 89.22 171.98 91.09 172.31 90.9 169.06 89.03 168.73 89.22"/>
              <polygon class="cls-10" points="172.65 91.09 172.31 91.29 175.8 93.3 176.13 93.11 172.65 91.09"/>
            </g>
            <g>
              <polygon class="cls-10" points="149.79 102.47 146.13 100.36 145.8 100.55 149.46 102.66 149.79 102.47"/>
              <polygon class="cls-10" points="150.13 102.66 149.79 102.86 154.51 105.58 154.85 105.39 150.13 102.66"/>
            </g>
            <g>
              <polygon class="cls-10" points="142.95 88.07 136.38 84.28 135.74 84.65 142.31 88.44 142.95 88.07"/>
              <polygon class="cls-10" points="143.59 88.44 142.95 88.81 152.36 94.24 152.99 93.87 143.59 88.44"/>
            </g>
            <polygon class="cls-10" points="114.98 91.41 108.41 87.61 107.77 87.98 114.35 91.77 114.98 91.41"/>
            <polygon class="cls-10" points="115.62 91.77 114.98 92.14 124.39 97.57 125.02 97.2 115.62 91.77"/>
            <g>
              <polygon class="cls-10" points="129.87 96.08 123.3 92.29 122.66 92.66 129.23 96.45 129.87 96.08"/>
              <polygon class="cls-10" points="130.51 96.45 129.87 96.82 139.27 102.25 139.91 101.88 130.51 96.45"/>
            </g>
            <g>
              <polygon class="cls-10" points="139.33 97.31 126.76 90.05 126.12 90.42 138.69 97.68 139.33 97.31"/>
              <polygon class="cls-10" points="139.97 97.68 139.33 98.04 142.73 100.01 143.37 99.64 139.97 97.68"/>
            </g>
            <g>
              <polygon class="cls-10" points="135.31 92.7 128.74 88.91 128.1 89.28 134.67 93.07 135.31 92.7"/>
              <polygon class="cls-10" points="135.94 93.07 135.31 93.44 144.71 98.87 145.35 98.5 135.94 93.07"/>
            </g>
            <polygon class="cls-10" points="133.01 90.03 141.28 94.8 141.92 94.43 133.65 89.66 133.01 90.03"/>
            <polygon class="cls-10" points="120.96 93.76 129.23 98.54 129.87 98.17 121.6 93.4 120.96 93.76"/>
            <polygon class="cls-10" points="125.11 97.94 136.07 104.31 136.71 103.94 125.74 97.57 125.11 97.94"/>
            <polygon class="cls-10" points="133.01 89.29 130.2 87.67 129.56 88.03 132.37 89.66 133.01 89.29"/>
            <g>
              <polygon class="cls-10" points="139.15 90.55 132.18 86.52 131.54 86.89 138.52 90.92 139.15 90.55"/>
              <polygon class="cls-10" points="139.79 90.92 139.15 91.29 148.15 96.48 148.79 96.12 139.79 90.92"/>
            </g>
            <g>
              <polygon class="cls-10" points="144.94 92.34 147.07 93.58 147.71 93.21 145.58 91.98 144.94 92.34"/>
              <polygon class="cls-10" points="144.94 91.61 134.15 85.38 133.52 85.75 144.3 91.98 144.94 91.61"/>
              <polygon class="cls-10" points="148.35 93.58 147.71 93.94 150.13 95.34 150.77 94.97 148.35 93.58"/>
            </g>
            <g>
              <polygon class="cls-10" points="135.73 98.3 137.86 99.53 138.5 99.17 136.37 97.93 135.73 98.3"/>
              <polygon class="cls-10" points="135.73 97.57 124.94 91.34 124.31 91.71 135.09 97.93 135.73 97.57"/>
              <polygon class="cls-10" points="139.14 99.53 138.5 99.9 140.92 101.3 141.56 100.93 139.14 99.53"/>
            </g>
            <polygon class="cls-10" points="90.38 77.97 92.52 79.21 93.15 78.84 91.02 77.61 90.38 77.97"/>
            <polygon class="cls-10" points="104.61 85.47 93.82 79.24 93.19 79.61 103.97 85.84 104.61 85.47"/>
            <polygon class="cls-10" points="105.3 85.85 104.66 86.21 107.09 87.61 107.72 87.25 105.3 85.85"/>
            <polygon class="cls-10" points="113.69 92.2 107.12 88.41 106.48 88.78 113.05 92.57 113.69 92.2"/>
            <polygon class="cls-10" points="113.78 92.93 134.78 105.1 135.42 104.73 114.42 92.57 113.78 92.93"/>
            <polygon class="cls-10" points="100.6 85.41 102.73 86.64 103.37 86.27 101.24 85.04 100.6 85.41"/>
            <polygon class="cls-10" points="100.6 84.68 89.82 78.45 89.18 78.82 99.97 85.04 100.6 84.68"/>
            <polygon class="cls-10" points="104.01 86.64 103.37 87.01 105.79 88.41 106.43 88.04 104.01 86.64"/>
            <polygon class="cls-10" points="111.38 92.43 110.74 92.79 121.77 99.16 122.41 98.8 111.38 92.43"/>
            <polygon class="cls-10" points="122.49 99.53 133.46 105.9 134.09 105.53 123.13 99.16 122.49 99.53"/>
            <polygon class="cls-10" points="101.89 87 88.49 79.24 87.86 79.61 101.26 87.37 101.89 87"/>
            <polygon class="cls-10" points="102.69 87.44 102.05 87.8 110.09 92.47 110.72 92.11 102.69 87.44"/>
            <polygon class="cls-10" points="108.88 94.23 108.59 94.85 119.62 101.21 119.91 100.6 108.88 94.23"/>
            <polygon class="cls-10" points="120.34 101.58 131.31 107.95 131.6 107.33 120.63 100.96 120.34 101.58"/>
            <polygon class="cls-10" points="99.4 88.8 86 81.04 85.71 81.66 99.11 89.42 99.4 88.8"/>
            <polygon class="cls-10" points="100.19 89.24 99.9 89.86 107.94 94.52 108.22 93.91 100.19 89.24"/>
            <polygon class="cls-10" points="107.95 96.7 107.95 97.47 118.98 103.84 118.98 103.07 107.95 96.7"/>
            <polygon class="cls-10" points="119.7 104.2 130.67 110.57 130.67 109.8 119.7 103.44 119.7 104.2"/>
            <polygon class="cls-10" points="98.47 91.28 85.07 83.52 85.07 84.28 98.47 92.04 98.47 91.28"/>
            <polygon class="cls-10" points="99.26 91.71 99.26 92.48 107.29 97.15 107.29 96.38 99.26 91.71"/>
            <polygon class="cls-10" points="108.34 95.4 108.06 96.02 130.77 109.17 131.05 108.55 108.34 95.4"/>
            <polygon class="cls-10" points="103.36 92.6 85.46 82.22 85.18 82.84 103.08 93.22 103.36 92.6"/>
            <polygon class="cls-10" points="103.95 92.91 103.67 93.53 107.4 95.7 107.69 95.08 103.95 92.91"/>
            <polygon class="cls-10" points="111.15 93.75 103.69 89.43 103.05 89.8 110.51 94.12 111.15 93.75"/>
            <polygon class="cls-10" points="111.78 94.12 111.15 94.49 123.45 101.58 124.09 101.21 111.78 94.12"/>
            <polygon class="cls-10" points="124.6 102.2 132.24 106.65 132.88 106.29 125.24 101.83 124.6 102.2"/>
            <polygon class="cls-10" points="96.18 85.89 102.44 89.49 103.08 89.12 96.82 85.52 96.18 85.89"/>
            <polygon class="cls-10" points="96.18 85.15 87.28 80 86.64 80.37 95.55 85.52 96.18 85.15"/>
            <g>
              <polygon class="cls-10" points="145.08 87.23 138.11 83.2 137.47 83.57 144.45 87.6 145.08 87.23"/>
              <polygon class="cls-10" points="145.72 87.6 145.08 87.97 154.08 93.16 154.72 92.8 145.72 87.6"/>
            </g>
            <g>
              <polygon class="cls-10" points="152.83 103.41 153.95 104.06 154.28 103.86 153.16 103.22 152.83 103.41"/>
              <polygon class="cls-10" points="152.83 103.02 147.17 99.76 146.84 99.95 152.49 103.22 152.83 103.02"/>
              <polygon class="cls-10" points="154.61 104.06 154.28 104.25 155.55 104.98 155.88 104.79 154.61 104.06"/>
            </g>
            <g>
              <polygon class="cls-10" points="151.99 101.34 151.65 101.54 156.59 104.38 156.92 104.19 151.99 101.34"/>
              <polygon class="cls-10" points="151.65 101.15 148.21 99.16 147.87 99.35 151.32 101.34 151.65 101.15"/>
            </g>
            <g>
              <polygon class="cls-10" points="150.55 99.32 149.25 98.56 148.91 98.75 150.22 99.51 150.55 99.32"/>
              <polygon class="cls-10" points="150.55 99.7 153.8 101.58 154.14 101.39 150.89 99.51 150.55 99.7"/>
              <polygon class="cls-10" points="154.47 101.58 154.14 101.77 157.62 103.78 157.96 103.59 154.47 101.58"/>
            </g>
            <polygon class="cls-10" points="158.35 95.29 160.99 96.82 161.33 96.63 158.68 95.1 158.35 95.29"/>
            <polygon class="cls-10" points="158.35 94.91 156.97 94.11 156.63 94.3 158.02 95.1 158.35 94.91"/>
            <g>
              <polygon class="cls-10" points="164.18 97.08 158.01 93.51 157.67 93.71 163.85 97.27 164.18 97.08"/>
              <polygon class="cls-10" points="164.51 97.27 164.18 97.46 166.39 98.74 166.72 98.54 164.51 97.27"/>
            </g>
            <g>
              <polygon class="cls-10" points="162.75 95.05 159.04 92.91 158.71 93.11 162.42 95.25 162.75 95.05"/>
              <polygon class="cls-10" points="163.08 95.25 162.75 95.44 167.42 98.14 167.76 97.94 163.08 95.25"/>
            </g>
            <g>
              <polygon class="cls-10" points="165.4 95.39 160.08 92.31 159.75 92.51 165.07 95.58 165.4 95.39"/>
              <polygon class="cls-10" points="165.74 95.58 165.4 95.77 168.46 97.54 168.79 97.34 165.74 95.58"/>
            </g>
            <g>
              <polygon class="cls-10" points="162.26 92.37 161.12 91.71 160.79 91.91 161.93 92.57 162.26 92.37"/>
              <polygon class="cls-10" points="162.26 92.76 164.66 94.14 164.99 93.95 162.59 92.57 162.26 92.76"/>
              <polygon class="cls-10" points="165.33 94.14 164.99 94.34 169.5 96.94 169.83 96.75 165.33 94.14"/>
            </g>
          </g>
          <polygon class="cls-10" points="91.96 76.95 119.32 92.75 137.2 82.43 109.84 66.62 91.96 76.95"/>
          <polygon class="cls-10" points="101 57.25 111.02 63.03 117.56 59.25 107.55 53.47 101 57.25"/>
          <g>
            <polygon class="cls-10" points="102.14 61.6 97.91 59.15 97.53 59.37 101.76 61.82 102.14 61.6"/>
            <polygon class="cls-10" points="102.52 61.82 102.14 62.04 107.48 65.12 107.86 64.9 102.52 61.82"/>
          </g>
          <g>
            <polygon class="cls-10" points="105.17 61.98 99.09 58.47 98.71 58.69 104.79 62.2 105.17 61.98"/>
            <polygon class="cls-10" points="105.55 62.2 105.17 62.42 108.66 64.43 109.05 64.21 105.55 62.2"/>
          </g>
          <g>
            <polygon class="cls-10" points="101.58 58.54 100.28 57.78 99.9 58 101.2 58.76 101.58 58.54"/>
            <polygon class="cls-10" points="101.58 58.98 104.32 60.56 104.7 60.34 101.96 58.76 101.58 58.98"/>
            <polygon class="cls-10" points="105.08 60.56 104.7 60.78 109.85 63.75 110.23 63.53 105.08 60.56"/>
          </g>
          <polygon class="cls-10" points="89.64 63.61 99.66 69.39 106.2 65.62 96.19 59.84 89.64 63.61"/>
          <g>
            <polygon class="cls-10" points="90.78 67.96 86.55 65.52 86.17 65.74 90.4 68.18 90.78 67.96"/>
            <polygon class="cls-10" points="91.16 68.18 90.78 68.4 96.12 71.48 96.5 71.26 91.16 68.18"/>
          </g>
          <g>
            <polygon class="cls-10" points="93.81 68.34 87.73 64.83 87.35 65.05 93.43 68.56 93.81 68.34"/>
            <polygon class="cls-10" points="94.19 68.56 93.81 68.78 97.3 70.8 97.69 70.58 94.19 68.56"/>
          </g>
          <g>
            <polygon class="cls-10" points="90.22 64.9 88.92 64.15 88.54 64.37 89.84 65.12 90.22 64.9"/>
            <polygon class="cls-10" points="90.22 65.34 92.96 66.92 93.34 66.7 90.6 65.12 90.22 65.34"/>
            <polygon class="cls-10" points="93.72 66.92 93.34 67.14 98.49 70.11 98.87 69.89 93.72 66.92"/>
          </g>
          <polygon class="cls-10" points="78.53 70.09 88.54 75.88 95.08 72.1 85.07 66.32 78.53 70.09"/>
          <polygon class="cls-10" points="72.51 75.74 72.51 77.78 82.52 83.6 82.52 81.53 83.24 79.74 73.22 73.96 72.51 75.74"/>
          <g>
            <polygon class="cls-10" points="79.66 74.44 75.43 72 75.05 72.22 79.28 74.66 79.66 74.44"/>
            <polygon class="cls-10" points="80.05 74.66 79.66 74.88 85 77.96 85.38 77.74 80.05 74.66"/>
          </g>
          <g>
            <polygon class="cls-10" points="82.69 74.82 76.62 71.31 76.23 71.53 82.31 75.04 82.69 74.82"/>
            <polygon class="cls-10" points="83.08 75.04 82.69 75.26 86.19 77.28 86.57 77.06 83.08 75.04"/>
          </g>
          <g>
            <polygon class="cls-10" points="79.1 71.38 77.8 70.63 77.42 70.85 78.72 71.6 79.1 71.38"/>
            <polygon class="cls-10" points="79.1 71.82 81.84 73.4 82.23 73.18 79.49 71.6 79.1 71.82"/>
            <polygon class="cls-10" points="82.61 73.4 82.23 73.62 87.37 76.6 87.75 76.38 82.61 73.4"/>
          </g>
          <polygon class="cls-3" points="142.58 118.5 70.45 76.58 70.44 74.47 142.58 116.39 142.58 118.5"/>
          <polygon class="cls-4" points="142.58 116.39 70.44 74.47 71.71 72.14 143.85 114.06 142.58 116.39"/>
          <polygon class="cls-2" points="192.37 88.94 193.21 88.46 193.21 85.56 143.85 114.06 142.58 116.39 142.58 118.5 143.86 119.36 147.21 120.29 151.66 120.12 198.59 92.65 192.37 88.94"/>
        </g>
      </g>
    </g>
  </g>
</svg>