<?xml version="1.0" encoding="UTF-8"?>
<svg xmlns="http://www.w3.org/2000/svg" xmlns:xlink="http://www.w3.org/1999/xlink" viewBox="0 0 260.87 234.28">
  <defs>
    <style>
      .cls-1 {
        mask: url(#mask-11);
      }

      .cls-2 {
        mask: url(#mask-10);
      }

      .cls-3 {
        filter: url(#luminosity-noclip-9);
      }

      .cls-4 {
        filter: url(#luminosity-noclip-7);
      }

      .cls-5 {
        filter: url(#luminosity-noclip-3);
      }

      .cls-6 {
        filter: url(#luminosity-noclip-5);
      }

      .cls-7 {
        fill: url(#Fading_Sky_9);
      }

      .cls-7, .cls-8, .cls-9, .cls-10, .cls-11, .cls-12, .cls-13, .cls-14, .cls-15, .cls-16, .cls-17, .cls-18, .cls-19, .cls-20, .cls-21, .cls-22, .cls-23, .cls-24, .cls-25, .cls-26, .cls-27, .cls-28, .cls-29, .cls-30, .cls-31, .cls-32 {
        stroke-width: 0px;
      }

      .cls-7, .cls-8, .cls-9, .cls-11, .cls-12, .cls-13, .cls-14, .cls-15, .cls-16, .cls-17, .cls-18, .cls-33, .cls-19, .cls-20, .cls-34, .cls-32 {
        mix-blend-mode: multiply;
      }

      .cls-8 {
        fill: url(#Fading_Sky_8);
      }

      .cls-35 {
        mask: url(#mask);
      }

      .cls-36 {
        filter: url(#luminosity-noclip);
      }

      .cls-9 {
        opacity: .7;
      }

      .cls-9, .cls-18, .cls-26 {
        fill: #ba9aa3;
      }

      .cls-37 {
        filter: url(#luminosity-noclip-11);
      }

      .cls-10 {
        fill: url(#Fading_Sky);
      }

      .cls-11, .cls-12, .cls-38 {
        opacity: .3;
      }

      .cls-11, .cls-17, .cls-20, .cls-32 {
        fill: #a17e85;
      }

      .cls-12, .cls-19 {
        fill: #fff;
      }

      .cls-13 {
        fill: url(#Fading_Sky_11);
      }

      .cls-14 {
        fill: url(#Fading_Sky_12);
      }

      .cls-15 {
        fill: url(#Fading_Sky_13);
      }

      .cls-16 {
        fill: url(#Fading_Sky_10);
      }

      .cls-38 {
        mix-blend-mode: screen;
      }

      .cls-17 {
        opacity: .15;
      }

      .cls-18, .cls-33 {
        opacity: .2;
      }

      .cls-39 {
        isolation: isolate;
      }

      .cls-19, .cls-20, .cls-34 {
        opacity: .8;
      }

      .cls-40 {
        mask: url(#mask-3);
      }

      .cls-41 {
        mask: url(#mask-2);
      }

      .cls-42 {
        mask: url(#mask-5);
      }

      .cls-43 {
        mask: url(#mask-4);
      }

      .cls-44 {
        mask: url(#mask-1);
      }

      .cls-45 {
        mask: url(#mask-7);
      }

      .cls-46 {
        mask: url(#mask-6);
      }

      .cls-47 {
        mask: url(#mask-8);
      }

      .cls-48 {
        mask: url(#mask-9);
      }

      .cls-21 {
        fill: #f7efe7;
      }

      .cls-22 {
        fill: #79cbed;
      }

      .cls-23 {
        fill: #414042;
      }

      .cls-24 {
        fill: #d1c0b0;
      }

      .cls-25 {
        fill: #addced;
      }

      .cls-27 {
        fill: url(#Fading_Sky-6);
      }

      .cls-28 {
        fill: url(#Fading_Sky-3);
      }

      .cls-29 {
        fill: url(#Fading_Sky-2);
      }

      .cls-30 {
        fill: url(#Fading_Sky-5);
      }

      .cls-31 {
        fill: url(#Fading_Sky-4);
      }

      .cls-32 {
        opacity: .4;
      }
    </style>
    <filter id="luminosity-noclip" x="38.17" y="158.3" width="17.58" height="18.33" color-interpolation-filters="sRGB" filterUnits="userSpaceOnUse">
      <feFlood flood-color="#fff" result="bg"/>
      <feBlend in="SourceGraphic" in2="bg"/>
    </filter>
    <filter id="luminosity-noclip-2" x="38.17" y="-8417" width="17.58" height="32766" color-interpolation-filters="sRGB" filterUnits="userSpaceOnUse">
      <feFlood flood-color="#fff" result="bg"/>
      <feBlend in="SourceGraphic" in2="bg"/>
    </filter>
    <mask id="mask-1" x="38.17" y="-8417" width="17.58" height="32766" maskUnits="userSpaceOnUse"/>
    <linearGradient id="Fading_Sky_13" data-name="Fading Sky 13" x1="38.17" y1="167.47" x2="55.75" y2="167.47" gradientUnits="userSpaceOnUse">
      <stop offset="0" stop-color="#fff"/>
      <stop offset="1" stop-color="#000"/>
    </linearGradient>
    <mask id="mask" x="38.17" y="158.3" width="17.58" height="18.33" maskUnits="userSpaceOnUse">
      <g class="cls-36">
        <g class="cls-44">
          <polygon class="cls-15" points="55.73 176.41 55.3 176.63 38.9 167.17 38.17 165.9 38.19 158.55 38.63 158.3 55.02 167.76 55.75 169.03 55.73 176.41"/>
        </g>
      </g>
    </mask>
    <linearGradient id="Fading_Sky" data-name="Fading Sky" x1="38.17" y1="167.47" x2="55.75" y2="167.47" gradientUnits="userSpaceOnUse">
      <stop offset="0" stop-color="#2484c6"/>
      <stop offset="1" stop-color="#2484c6"/>
    </linearGradient>
    <filter id="luminosity-noclip-3" x="65.18" y="173.85" width="17.7" height="18.4" color-interpolation-filters="sRGB" filterUnits="userSpaceOnUse">
      <feFlood flood-color="#fff" result="bg"/>
      <feBlend in="SourceGraphic" in2="bg"/>
    </filter>
    <filter id="luminosity-noclip-4" x="65.18" y="-8417" width="17.7" height="32766" color-interpolation-filters="sRGB" filterUnits="userSpaceOnUse">
      <feFlood flood-color="#fff" result="bg"/>
      <feBlend in="SourceGraphic" in2="bg"/>
    </filter>
    <mask id="mask-3" x="65.18" y="-8417" width="17.7" height="32766" maskUnits="userSpaceOnUse"/>
    <linearGradient id="Fading_Sky_12" data-name="Fading Sky 12" x1="65.18" y1="183.05" x2="82.88" y2="183.05" gradientUnits="userSpaceOnUse">
      <stop offset="0" stop-color="#fff"/>
      <stop offset="1" stop-color="#000"/>
    </linearGradient>
    <mask id="mask-2" x="65.18" y="173.85" width="17.7" height="18.4" maskUnits="userSpaceOnUse">
      <g class="cls-5">
        <g class="cls-40">
          <polygon class="cls-14" points="82.86 191.88 82.73 192.01 82.3 192.25 65.91 182.79 65.18 181.53 65.2 174.14 65.71 173.85 82.15 183.35 82.88 184.61 82.86 191.88"/>
        </g>
      </g>
    </mask>
    <linearGradient id="Fading_Sky-2" data-name="Fading Sky" x1="65.18" y1="183.05" x2="82.88" y2="183.05" xlink:href="#Fading_Sky"/>
    <filter id="luminosity-noclip-5" x="65.18" y="173.85" width="6.53" height="12.28" color-interpolation-filters="sRGB" filterUnits="userSpaceOnUse">
      <feFlood flood-color="#fff" result="bg"/>
      <feBlend in="SourceGraphic" in2="bg"/>
    </filter>
    <filter id="luminosity-noclip-6" x="65.18" y="-8417" width="6.53" height="32766" color-interpolation-filters="sRGB" filterUnits="userSpaceOnUse">
      <feFlood flood-color="#fff" result="bg"/>
      <feBlend in="SourceGraphic" in2="bg"/>
    </filter>
    <mask id="mask-5" x="65.18" y="-8417" width="6.53" height="32766" maskUnits="userSpaceOnUse"/>
    <linearGradient id="Fading_Sky_11" data-name="Fading Sky 11" x1="65.18" y1="180" x2="71.7" y2="180" gradientUnits="userSpaceOnUse">
      <stop offset="0" stop-color="#fff"/>
      <stop offset="1" stop-color="#000"/>
    </linearGradient>
    <mask id="mask-4" x="65.18" y="173.85" width="6.53" height="12.28" maskUnits="userSpaceOnUse">
      <g class="cls-6">
        <g class="cls-42">
          <polygon class="cls-13" points="71.7 186.14 65.91 182.79 65.18 181.53 65.2 174.14 65.71 173.85 69.13 175.83 71.7 186.14"/>
        </g>
      </g>
    </mask>
    <linearGradient id="Fading_Sky-3" data-name="Fading Sky" x1="65.18" y1="180" x2="71.7" y2="180" xlink:href="#Fading_Sky"/>
    <filter id="luminosity-noclip-7" x="70.68" y="176.73" width="5.37" height="11.92" color-interpolation-filters="sRGB" filterUnits="userSpaceOnUse">
      <feFlood flood-color="#fff" result="bg"/>
      <feBlend in="SourceGraphic" in2="bg"/>
    </filter>
    <filter id="luminosity-noclip-8" x="70.68" y="-8417" width="5.37" height="32766" color-interpolation-filters="sRGB" filterUnits="userSpaceOnUse">
      <feFlood flood-color="#fff" result="bg"/>
      <feBlend in="SourceGraphic" in2="bg"/>
    </filter>
    <mask id="mask-7" x="70.68" y="-8417" width="5.37" height="32766" maskUnits="userSpaceOnUse"/>
    <linearGradient id="Fading_Sky_10" data-name="Fading Sky 10" x1="70.68" y1="182.69" x2="76.05" y2="182.69" gradientUnits="userSpaceOnUse">
      <stop offset="0" stop-color="#fff"/>
      <stop offset="1" stop-color="#000"/>
    </linearGradient>
    <mask id="mask-6" x="70.68" y="176.73" width="5.37" height="11.92" maskUnits="userSpaceOnUse">
      <g class="cls-4">
        <g class="cls-45">
          <polygon class="cls-16" points="76.05 188.65 73.26 187.03 70.68 176.73 73.48 178.34 76.05 188.65"/>
        </g>
      </g>
    </mask>
    <linearGradient id="Fading_Sky-4" data-name="Fading Sky" x1="70.68" y1="182.69" x2="76.05" y2="182.69" xlink:href="#Fading_Sky"/>
    <filter id="luminosity-noclip-9" x="38.17" y="158.3" width="6.12" height="11.98" color-interpolation-filters="sRGB" filterUnits="userSpaceOnUse">
      <feFlood flood-color="#fff" result="bg"/>
      <feBlend in="SourceGraphic" in2="bg"/>
    </filter>
    <filter id="luminosity-noclip-10" x="38.17" y="-8417" width="6.12" height="32766" color-interpolation-filters="sRGB" filterUnits="userSpaceOnUse">
      <feFlood flood-color="#fff" result="bg"/>
      <feBlend in="SourceGraphic" in2="bg"/>
    </filter>
    <mask id="mask-9" x="38.17" y="-8417" width="6.12" height="32766" maskUnits="userSpaceOnUse"/>
    <linearGradient id="Fading_Sky_9" data-name="Fading Sky 9" x1="38.17" y1="164.29" x2="44.3" y2="164.29" gradientUnits="userSpaceOnUse">
      <stop offset="0" stop-color="#fff"/>
      <stop offset="1" stop-color="#000"/>
    </linearGradient>
    <mask id="mask-8" x="38.17" y="158.3" width="6.12" height="11.98" maskUnits="userSpaceOnUse">
      <g class="cls-3">
        <g class="cls-48">
          <polygon class="cls-7" points="44.3 170.28 38.9 167.17 38.17 165.9 38.19 158.55 38.63 158.3 41.75 160.1 44.3 170.28"/>
        </g>
      </g>
    </mask>
    <linearGradient id="Fading_Sky-5" data-name="Fading Sky" y1="164.29" x2="44.3" y2="164.29" xlink:href="#Fading_Sky"/>
    <filter id="luminosity-noclip-11" x="43.31" y="161" width="5.34" height="11.79" color-interpolation-filters="sRGB" filterUnits="userSpaceOnUse">
      <feFlood flood-color="#fff" result="bg"/>
      <feBlend in="SourceGraphic" in2="bg"/>
    </filter>
    <filter id="luminosity-noclip-12" x="43.31" y="-8417" width="5.34" height="32766" color-interpolation-filters="sRGB" filterUnits="userSpaceOnUse">
      <feFlood flood-color="#fff" result="bg"/>
      <feBlend in="SourceGraphic" in2="bg"/>
    </filter>
    <mask id="mask-11" x="43.31" y="-8417" width="5.34" height="32766" maskUnits="userSpaceOnUse"/>
    <linearGradient id="Fading_Sky_8" data-name="Fading Sky 8" x1="43.31" y1="166.9" x2="48.64" y2="166.9" gradientUnits="userSpaceOnUse">
      <stop offset="0" stop-color="#fff"/>
      <stop offset="1" stop-color="#000"/>
    </linearGradient>
    <mask id="mask-10" x="43.31" y="161" width="5.34" height="11.79" maskUnits="userSpaceOnUse">
      <g class="cls-37">
        <g class="cls-1">
          <polygon class="cls-8" points="48.64 172.79 45.85 171.18 43.31 161 46.1 162.61 48.64 172.79"/>
        </g>
      </g>
    </mask>
    <linearGradient id="Fading_Sky-6" data-name="Fading Sky" x1="43.31" y1="166.9" x2="48.64" y2="166.9" xlink:href="#Fading_Sky"/>
  </defs>
  <g class="cls-39">
    <g id="Layer_1" data-name="Layer 1">
      <g>
        <g>
          <polygon class="cls-21" points="150.26 131.15 120.74 114 69.78 143.44 69.78 144.08 99.3 161.24 150.26 131.79 150.26 131.15"/>
          <g>
            <g class="cls-33">
              <polygon class="cls-26" points="94.16 133.39 94.71 133.7 122.57 117.62 122.02 117.3 94.16 133.39"/>
            </g>
            <g class="cls-33">
              <polygon class="cls-26" points="95.94 134.42 96.49 134.74 124.35 118.65 123.8 118.33 95.94 134.42"/>
            </g>
            <g class="cls-33">
              <polygon class="cls-26" points="97.72 135.45 98.26 135.77 126.13 119.68 125.58 119.36 97.72 135.45"/>
            </g>
            <g class="cls-33">
              <path class="cls-26" d="M74.57,143.03s-.02.04-.04.06c.02.05.02.1-.01.15.13.01.24.04.32.09.08.05.12.11.13.18l.1.06c.11,0,.22.03.3.08.08.05.13.11.13.18l.1.06c.11,0,.22.03.3.08.08.05.13.11.13.18l.1.06c.11,0,.22.03.3.08.08.05.13.11.13.18l.1.06c.11,0,.22.03.3.08s.12.11.13.18l.1.06c.11,0,.22.03.3.08.08.05.12.11.13.18l.1.06c.11,0,.22.03.3.08.08.05.13.11.13.17l.1.06c.11,0,.22.03.3.08.08.05.13.11.13.18l.1.06c.11,0,.22.03.3.08.08.05.13.11.13.18l.1.06c.11,0,.22.03.3.08.08.05.12.11.13.18l.1.06c.11,0,.22.03.3.08s.12.11.13.18l.1.06c.11,0,.22.03.3.08.08.05.13.11.13.18l.1.06c.11,0,.22.03.3.08.08.05.13.11.13.18l.1.06c.11,0,.22.03.3.08.08.05.13.11.13.18l.1.06c.11,0,.22.03.3.08s.12.11.13.18l.1.06c.11,0,.22.03.3.08.08.05.12.11.13.18l.13.08s.09-.01.14-.02c.02-.02.04-.03.07-.05.09-.05.21-.08.33-.08l.12-.07c0-.07.04-.14.13-.19.09-.05.21-.08.33-.08l.12-.07c0-.07.04-.14.13-.19.09-.05.21-.08.33-.08l.12-.07c0-.07.04-.14.13-.19.09-.05.21-.08.33-.08l.12-.07c0-.07.04-.14.13-.19.09-.05.21-.08.33-.08l.12-.07c0-.07.04-.14.13-.19.09-.05.21-.08.33-.08l.12-.07c0-.07.04-.14.13-.19.09-.05.21-.08.33-.08l.12-.07c0-.07.04-.14.13-.19.09-.05.21-.08.33-.08l.12-.07c0-.07.04-.14.13-.19.09-.05.21-.08.33-.08l.12-.07c0-.07.04-.14.13-.19.09-.05.21-.08.33-.08l.09-.05c-.05-.06-.05-.12-.03-.18l-.17-.1c-.09,0-.18-.03-.25-.07-.07-.04-.11-.09-.12-.14l-.16-.09c-.09,0-.18-.03-.25-.07-.07-.04-.11-.09-.12-.14l-.16-.09c-.09,0-.18-.03-.25-.07-.07-.04-.11-.09-.13-.15l-.16-.09c-.09,0-.18-.03-.25-.07-.07-.04-.11-.09-.13-.15l-.16-.09c-.09,0-.18-.03-.25-.07-.07-.04-.11-.09-.13-.15l-.16-.09c-.09,0-.18-.03-.25-.07-.07-.04-.11-.09-.12-.14l-.16-.09c-.09,0-.18-.03-.25-.07-.07-.04-.11-.09-.12-.14l-.16-.09c-.09,0-.18-.03-.25-.07-.07-.04-.11-.09-.13-.15l-.16-.09c-.09,0-.18-.03-.25-.07-.07-.04-.11-.09-.13-.15l-.16-.09c-.09,0-.18-.03-.25-.07-.07-.04-.11-.09-.13-.15l-.16-.09c-.09,0-.18-.03-.25-.07-.07-.04-.11-.09-.12-.14l-.16-.09c-.09,0-.18-.03-.25-.07-.07-.04-.11-.09-.12-.14l-.16-.09c-.09,0-.18-.03-.25-.07-.07-.04-.11-.09-.12-.14l-.16-.09c-.09,0-.18-.03-.25-.07-.07-.04-.11-.09-.13-.15l-.16-.09c-.09,0-.18-.03-.25-.07-.07-.04-.11-.09-.13-.15l-.16-.09c-.09,0-.18-.03-.25-.07-.07-.04-.11-.09-.13-.15l-.06-.03c-.08.01-.15.01-.23,0l-.09.05c-.02.05-.06.1-.13.14-.07.04-.15.06-.24.07l-.13.07c-.02.05-.06.1-.13.14-.07.04-.15.06-.24.07l-.13.07c-.02.05-.06.1-.13.14-.07.04-.15.06-.24.07l-.13.08c-.02.05-.06.1-.13.14-.07.04-.15.06-.24.07l-.13.07c-.02.05-.06.1-.12.14-.07.04-.15.06-.24.07l-.13.07c-.02.05-.06.1-.13.14-.07.04-.15.06-.24.07l-.13.08c-.02.05-.06.1-.13.14-.07.04-.15.06-.24.07l-.13.08c-.02.05-.06.1-.12.14-.07.04-.15.06-.24.07l-.13.07c-.02.05-.06.1-.13.14-.07.04-.15.06-.24.07l-.13.07c-.02.05-.06.1-.13.14-.07.04-.15.06-.24.07l-.13.08c-.02.05-.06.1-.12.14-.07.04-.15.06-.24.07l-.13.07Z"/>
            </g>
          </g>
          <g>
            <g class="cls-33">
              <polygon class="cls-26" points="69.78 143.44 69.78 144.08 99.3 161.24 99.3 160.6 69.78 143.44"/>
            </g>
            <polygon class="cls-9" points="150.26 131.34 150.26 131.15 99.3 160.6 99.3 161.24 100.33 161.24 151.17 131.85 150.26 131.34"/>
          </g>
        </g>
        <g>
          <polygon class="cls-21" points="193.38 139.1 163.51 156.46 163.51 157.1 215.07 186.9 244.95 169.53 244.95 168.89 193.38 139.1"/>
          <g>
            <g class="cls-33">
              <polygon class="cls-26" points="220.27 158.71 219.72 159.04 191.53 142.76 192.08 142.44 220.27 158.71"/>
            </g>
            <g class="cls-33">
              <polygon class="cls-26" points="218.48 159.76 217.92 160.08 189.73 143.81 190.28 143.48 218.48 159.76"/>
            </g>
            <g class="cls-33">
              <polygon class="cls-26" points="216.68 160.8 216.12 161.13 187.93 144.85 188.49 144.53 216.68 160.8"/>
            </g>
            <g class="cls-33">
              <path class="cls-26" d="M240.09,168.48s.02.04.04.06c-.02.05-.02.1.01.15-.13.01-.24.04-.32.09-.08.05-.13.11-.13.18l-.1.06c-.11,0-.22.03-.31.08-.08.05-.13.11-.13.18l-.1.06c-.11,0-.22.03-.31.08-.08.05-.13.11-.13.18l-.1.06c-.11,0-.22.03-.31.08-.08.05-.13.11-.13.18l-.1.06c-.11,0-.22.03-.31.08-.08.05-.13.11-.13.18l-.1.06c-.11,0-.22.03-.31.08-.08.05-.13.11-.13.18l-.1.06c-.11,0-.22.03-.31.08-.08.05-.13.11-.13.18l-.1.06c-.11,0-.22.03-.31.08-.08.05-.13.11-.13.18l-.1.06c-.11,0-.22.03-.31.08-.08.05-.13.11-.13.18l-.1.06c-.11,0-.22.03-.31.08-.08.05-.13.11-.13.18l-.1.06c-.11,0-.22.03-.31.08-.08.05-.13.11-.13.18l-.1.06c-.11,0-.22.03-.31.08-.08.05-.13.11-.13.18l-.1.06c-.11,0-.22.03-.31.08-.08.05-.13.11-.13.18l-.1.06c-.11,0-.22.03-.31.08-.08.05-.13.11-.13.18l-.1.06c-.11,0-.22.03-.31.08-.08.05-.13.11-.13.18l-.1.06c-.11,0-.22.03-.31.08-.08.05-.13.11-.13.18l-.14.08s-.09-.02-.14-.02c-.02-.02-.04-.03-.07-.05-.09-.05-.21-.08-.33-.08l-.12-.07c0-.07-.04-.14-.13-.19-.09-.05-.21-.08-.33-.08l-.12-.07c0-.07-.04-.14-.13-.19-.09-.05-.21-.08-.33-.08l-.12-.07c0-.07-.04-.14-.13-.19-.09-.05-.21-.08-.33-.08l-.12-.07c0-.07-.04-.14-.13-.19-.09-.05-.21-.08-.33-.08l-.12-.07c0-.07-.04-.14-.13-.19-.09-.05-.21-.08-.33-.08l-.12-.07c0-.07-.04-.14-.13-.19-.09-.05-.21-.08-.33-.08l-.12-.07c0-.07-.04-.14-.13-.19-.09-.05-.21-.08-.33-.08l-.12-.07c0-.07-.04-.14-.13-.19-.09-.05-.21-.08-.33-.08l-.12-.07c0-.07-.04-.14-.13-.19-.09-.05-.21-.08-.33-.08l-.09-.05c.05-.06.06-.12.03-.18l.18-.1c.09,0,.18-.03.25-.07.07-.04.11-.09.13-.15l.16-.09c.09,0,.18-.03.25-.07.07-.04.11-.09.13-.15l.16-.09c.09,0,.18-.03.25-.07.07-.04.11-.09.13-.15l.16-.09c.09,0,.18-.03.25-.07.07-.04.11-.09.13-.15l.16-.09c.09,0,.18-.03.25-.07.07-.04.11-.09.13-.15l.16-.09c.09,0,.18-.03.25-.07.07-.04.11-.09.13-.15l.16-.09c.09,0,.18-.03.25-.07.07-.04.11-.09.13-.15l.16-.09c.09,0,.18-.03.25-.07.07-.04.11-.09.13-.15l.16-.09c.09,0,.18-.03.25-.07.07-.04.11-.09.13-.15l.16-.09c.09,0,.18-.03.25-.07.07-.04.11-.09.13-.15l.16-.09c.09,0,.18-.03.25-.07.07-.04.11-.09.13-.15l.16-.09c.09,0,.18-.03.25-.07.07-.04.11-.09.13-.15l.16-.09c.09,0,.18-.03.25-.07.07-.04.11-.09.13-.15l.16-.09c.09,0,.18-.03.25-.07.07-.04.11-.09.13-.15l.16-.09c.09,0,.18-.03.25-.07.07-.04.11-.09.13-.15l.16-.09c.09,0,.18-.03.25-.07.07-.04.11-.09.13-.15l.06-.03c.08.01.15.01.23,0l.09.05c.02.05.06.1.13.14.07.04.15.06.24.07l.13.08c.02.05.06.1.13.14.07.04.15.06.24.07l.13.08c.02.05.06.1.13.14.07.04.15.06.24.07l.13.08c.02.05.06.1.13.14.07.04.15.06.24.07l.13.08c.02.05.06.1.13.14.07.04.15.06.24.07l.13.08c.02.05.06.1.13.14.07.04.15.06.24.07l.13.08c.02.05.06.1.13.14.07.04.15.06.24.07l.13.08c.02.05.06.1.13.14.07.04.15.06.24.07l.13.08c.02.05.06.1.13.14.07.04.15.06.24.07l.13.08c.02.05.06.1.13.14.07.04.15.06.24.07l.13.08c.02.05.06.1.13.14.07.04.15.06.24.07l.13.08Z"/>
            </g>
          </g>
          <g>
            <polygon class="cls-9" points="244.95 169.08 244.95 168.89 215.07 186.26 215.07 186.9 216.05 186.9 245.87 169.57 244.95 169.08"/>
            <g class="cls-33">
              <polygon class="cls-26" points="215.07 186.26 215.07 186.9 163.51 157.1 163.51 156.46 215.07 186.26"/>
            </g>
          </g>
        </g>
        <g>
          <polygon class="cls-21" points="57.14 120.68 27.26 138.04 27.26 138.68 78.82 168.48 108.7 151.12 108.7 150.48 57.14 120.68"/>
          <g>
            <g class="cls-33">
              <polygon class="cls-26" points="84.03 140.3 83.47 140.62 55.28 124.35 55.84 124.02 84.03 140.3"/>
            </g>
            <g class="cls-33">
              <polygon class="cls-26" points="82.23 141.35 81.68 141.67 53.48 125.39 54.04 125.07 82.23 141.35"/>
            </g>
            <g class="cls-33">
              <polygon class="cls-26" points="80.43 142.39 79.88 142.71 51.69 126.44 52.24 126.11 80.43 142.39"/>
            </g>
            <g class="cls-33">
              <path class="cls-26" d="M103.85,150.06s.02.04.04.06c-.02.05-.02.1.01.15-.13.01-.24.04-.32.09-.08.05-.13.11-.13.18l-.1.06c-.11,0-.22.03-.31.08s-.13.11-.13.18l-.1.06c-.11,0-.22.03-.31.08s-.13.11-.13.18l-.1.06c-.11,0-.22.03-.31.08-.08.05-.13.11-.13.18l-.1.06c-.11,0-.22.03-.31.08-.08.05-.13.11-.13.18l-.1.06c-.11,0-.22.03-.31.08-.08.05-.13.11-.13.18l-.1.06c-.11,0-.22.03-.31.08-.08.05-.13.11-.13.18l-.1.06c-.11,0-.22.03-.31.08-.08.05-.13.11-.13.18l-.1.06c-.11,0-.22.03-.31.08-.08.05-.13.11-.13.18l-.1.06c-.11,0-.22.03-.31.08-.08.05-.13.11-.13.18l-.1.06c-.11,0-.22.03-.31.08-.08.05-.13.11-.13.18l-.1.06c-.11,0-.22.03-.31.08-.08.05-.13.11-.13.18l-.1.06c-.11,0-.22.03-.31.08-.08.05-.13.11-.13.18l-.1.06c-.11,0-.22.03-.31.08-.08.05-.13.11-.13.18l-.1.06c-.11,0-.22.03-.31.08-.08.05-.13.11-.13.18l-.1.06c-.11,0-.22.03-.31.08-.08.05-.13.11-.13.18l-.14.08s-.09-.01-.14-.02c-.02-.02-.04-.03-.07-.05-.09-.05-.21-.08-.33-.08l-.12-.07c0-.07-.04-.14-.13-.19-.09-.05-.21-.08-.33-.08l-.12-.07c0-.07-.04-.14-.13-.19-.09-.05-.21-.08-.33-.08l-.12-.07c0-.07-.04-.14-.13-.19-.09-.05-.21-.08-.33-.08l-.12-.07c0-.07-.04-.14-.13-.19-.09-.05-.21-.08-.33-.08l-.12-.07c0-.07-.04-.14-.13-.19-.09-.05-.21-.08-.33-.08l-.12-.07c0-.07-.04-.14-.13-.19-.09-.05-.21-.08-.33-.08l-.12-.07c0-.07-.04-.14-.13-.19-.09-.05-.21-.08-.33-.08l-.12-.07c0-.07-.04-.14-.13-.19-.09-.05-.21-.08-.33-.08l-.12-.07c0-.07-.04-.14-.13-.19-.09-.05-.21-.08-.33-.08l-.09-.05c.05-.06.06-.12.03-.18l.18-.1c.09,0,.18-.03.25-.07.07-.04.11-.09.13-.15l.16-.09c.09,0,.18-.03.25-.07.07-.04.11-.09.13-.15l.16-.09c.09,0,.18-.03.25-.07.07-.04.11-.09.13-.15l.16-.09c.09,0,.18-.03.25-.07.07-.04.11-.09.13-.15l.16-.09c.09,0,.18-.03.25-.07.07-.04.11-.09.13-.15l.16-.09c.09,0,.18-.03.25-.07.07-.04.11-.09.13-.15l.16-.09c.09,0,.18-.03.25-.07.07-.04.11-.09.13-.15l.16-.09c.09,0,.18-.03.25-.07.07-.04.11-.09.13-.15l.16-.09c.09,0,.18-.03.25-.07.07-.04.11-.09.13-.15l.16-.09c.09,0,.18-.03.25-.07.07-.04.11-.09.13-.15l.16-.09c.09,0,.18-.03.25-.07.07-.04.11-.09.13-.15l.16-.09c.09,0,.18-.03.25-.07.07-.04.11-.09.13-.15l.16-.09c.09,0,.18-.03.25-.07.07-.04.11-.09.13-.15l.16-.09c.09,0,.18-.03.25-.07.07-.04.11-.09.13-.15l.16-.09c.09,0,.18-.03.25-.07.07-.04.11-.09.13-.15l.16-.09c.09,0,.18-.03.25-.07.07-.04.11-.09.13-.15l.06-.03c.08.01.15.01.23,0l.09.05c.02.05.06.1.13.14.07.04.15.06.24.07l.13.08c.02.05.06.1.13.14.07.04.15.06.24.07l.13.08c.02.05.06.1.13.14.07.04.15.06.24.07l.13.08c.02.05.06.1.13.14.07.04.15.06.24.07l.13.08c.02.05.06.1.13.14.07.04.15.06.24.07l.13.08c.02.05.06.1.13.14.07.04.15.06.24.07l.13.08c.02.05.06.1.13.14.07.04.15.06.24.07l.13.08c.02.05.06.1.13.14.07.04.15.06.24.07l.13.08c.02.05.06.1.13.14.07.04.15.06.24.07l.13.08c.02.05.06.1.13.14.07.04.15.06.24.07l.13.08c.02.05.06.1.13.14.07.04.15.06.24.07l.13.08Z"/>
            </g>
          </g>
          <g>
            <polygon class="cls-9" points="108.7 150.67 108.7 150.48 78.83 167.84 78.82 168.48 79.81 168.48 109.62 151.15 108.7 150.67"/>
            <g class="cls-33">
              <polygon class="cls-26" points="78.83 167.84 78.82 168.48 27.26 138.68 27.26 138.04 78.83 167.84"/>
            </g>
          </g>
        </g>
        <g>
          <polygon class="cls-21" points="35.66 125.62 5.78 142.98 5.78 143.62 57.34 173.42 87.22 156.05 87.22 155.41 35.66 125.62"/>
          <g>
            <g class="cls-33">
              <polygon class="cls-26" points="62.55 145.24 61.99 145.56 33.8 129.28 34.35 128.96 62.55 145.24"/>
            </g>
            <g class="cls-33">
              <polygon class="cls-26" points="60.75 146.28 60.19 146.6 32 130.33 32.55 130 60.75 146.28"/>
            </g>
            <g class="cls-33">
              <polygon class="cls-26" points="58.95 147.33 58.39 147.65 30.2 131.37 30.76 131.05 58.95 147.33"/>
            </g>
            <g class="cls-33">
              <path class="cls-26" d="M82.37,155s.02.04.04.06c-.02.05-.02.1.01.15-.13.01-.24.04-.32.09-.08.05-.13.11-.13.18l-.1.06c-.11,0-.22.03-.31.08-.08.05-.13.11-.13.18l-.1.06c-.11,0-.22.03-.31.08-.08.05-.13.11-.13.18l-.1.06c-.11,0-.22.03-.31.08-.08.05-.13.11-.13.18l-.1.06c-.11,0-.22.03-.31.08-.08.05-.13.11-.13.18l-.1.06c-.11,0-.22.03-.31.08-.08.05-.13.11-.13.18l-.1.06c-.11,0-.22.03-.31.08-.08.05-.13.11-.13.18l-.1.06c-.11,0-.22.03-.31.08-.08.05-.13.11-.13.18l-.1.06c-.11,0-.22.03-.31.08-.08.05-.13.11-.13.18l-.1.06c-.11,0-.22.03-.31.08-.08.05-.13.11-.13.18l-.1.06c-.11,0-.22.03-.31.08-.08.05-.13.11-.13.18l-.1.06c-.11,0-.22.03-.31.08-.08.05-.13.11-.13.18l-.1.06c-.11,0-.22.03-.31.08-.08.05-.13.11-.13.18l-.1.06c-.11,0-.22.03-.31.08-.08.05-.13.11-.13.18l-.1.06c-.11,0-.22.03-.31.08-.08.05-.13.11-.13.18l-.1.06c-.11,0-.22.03-.31.08-.08.05-.13.11-.13.18l-.14.08s-.09-.02-.14-.02c-.02-.02-.04-.03-.07-.05-.09-.05-.21-.08-.33-.08l-.12-.07c0-.07-.04-.14-.13-.19-.09-.05-.21-.08-.33-.08l-.12-.07c0-.07-.04-.14-.13-.19-.09-.05-.21-.08-.33-.08l-.12-.07c0-.07-.04-.14-.13-.19-.09-.05-.21-.08-.33-.08l-.12-.07c0-.07-.04-.14-.14-.19-.09-.05-.21-.08-.33-.08l-.12-.07c0-.07-.04-.14-.13-.19-.09-.05-.21-.08-.33-.08l-.12-.07c0-.07-.04-.14-.13-.19-.09-.05-.21-.08-.33-.08l-.12-.07c0-.07-.04-.14-.13-.19-.09-.05-.21-.08-.33-.08l-.12-.07c0-.07-.04-.14-.13-.19-.09-.05-.21-.08-.33-.08l-.12-.07c0-.07-.04-.14-.13-.19-.09-.05-.21-.08-.33-.08l-.09-.05c.05-.06.06-.12.03-.18l.18-.1c.09,0,.18-.03.25-.07.07-.04.11-.09.13-.15l.16-.09c.09,0,.18-.03.25-.07.07-.04.11-.09.13-.15l.16-.09c.09,0,.18-.03.25-.07.07-.04.11-.09.13-.15l.16-.09c.09,0,.18-.03.25-.07.07-.04.11-.09.13-.15l.16-.09c.09,0,.18-.03.25-.07.07-.04.11-.09.13-.15l.16-.09c.09,0,.18-.03.25-.07.07-.04.11-.09.13-.15l.16-.09c.09,0,.18-.03.25-.07.07-.04.11-.09.13-.15l.16-.09c.09,0,.18-.03.25-.07.07-.04.11-.09.13-.15l.16-.09c.09,0,.18-.03.25-.07.07-.04.11-.09.13-.15l.16-.09c.09,0,.18-.03.25-.07.07-.04.11-.09.13-.15l.16-.09c.09,0,.18-.03.25-.07.07-.04.11-.09.13-.15l.16-.09c.09,0,.18-.03.25-.07.07-.04.11-.09.13-.15l.16-.09c.09,0,.18-.03.25-.07.07-.04.11-.09.13-.15l.16-.09c.09,0,.18-.03.25-.07.07-.04.11-.09.13-.15l.16-.09c.09,0,.18-.03.25-.07.07-.04.11-.09.13-.15l.16-.09c.09,0,.18-.03.25-.07.07-.04.11-.09.13-.15l.06-.03c.08.01.15.01.23,0l.09.05c.02.05.06.1.13.14.07.04.15.06.24.07l.13.08c.02.05.06.1.13.14.07.04.15.06.24.07l.13.08c.02.05.06.1.13.14.07.04.15.06.24.07l.13.08c.02.05.06.1.13.14.07.04.15.06.24.07l.13.08c.02.05.06.1.13.14.07.04.15.06.24.07l.13.08c.02.05.06.1.13.14.07.04.15.06.24.07l.13.08c.02.05.06.1.13.14.07.04.15.06.24.07l.13.08c.02.05.06.1.13.14.07.04.15.06.24.07l.13.08c.02.05.06.1.13.14.07.04.15.06.24.07l.13.08c.02.05.06.1.13.14.07.04.15.06.24.07l.13.08c.02.05.06.1.13.14.07.04.15.06.24.07l.13.08Z"/>
            </g>
          </g>
          <g>
            <polygon class="cls-9" points="87.22 155.6 87.22 155.41 57.34 172.78 57.34 173.42 58.32 173.42 88.14 156.09 87.22 155.6"/>
            <g class="cls-33">
              <polygon class="cls-26" points="57.34 172.78 57.34 173.42 5.78 143.62 5.78 142.98 57.34 172.78"/>
            </g>
          </g>
        </g>
        <g>
          <polygon class="cls-21" points="88.32 183.92 88.32 184.55 117.85 201.71 117.84 201.08 88.32 183.92"/>
          <g class="cls-33">
            <polygon class="cls-26" points="88.32 183.92 88.32 184.55 117.85 201.71 117.84 201.08 88.32 183.92"/>
          </g>
          <path class="cls-21" d="M88.32,183.92l29.53,17.16,50.96-29.45-29.53-17.16-50.96,29.45Z"/>
          <polygon class="cls-21" points="117.84 201.08 117.85 201.71 168.81 172.26 168.8 171.63 117.84 201.08"/>
          <polygon class="cls-9" points="168.81 171.83 168.8 171.63 117.84 201.08 117.85 201.71 118.75 201.71 169.67 172.29 168.81 171.83"/>
          <g class="cls-33">
            <polygon class="cls-26" points="160.81 174.56 158.3 176.01 157.98 175.82 160.49 174.37 160.81 174.56"/>
            <polygon class="cls-26" points="160.81 174.19 162.12 173.43 162.44 173.61 161.13 174.37 160.81 174.19"/>
            <polygon class="cls-26" points="159.52 173.84 165.39 170.45 165.71 170.63 159.83 174.02 159.52 173.84"/>
            <polygon class="cls-26" points="159.2 174.02 159.52 174.2 157.42 175.42 157.1 175.23 159.2 174.02"/>
          </g>
          <g>
            <polygon class="cls-9" points="126.36 176.19 126.36 176.51 126.85 176.4 139.27 154.47 126.36 176.19"/>
            <g class="cls-33">
              <polygon class="cls-26" points="88.32 183.92 126.36 176.51 126.36 176.19 88.32 183.92"/>
            </g>
          </g>
        </g>
        <g>
          <polygon class="cls-21" points="117.61 178.07 88.08 160.91 37.12 190.36 37.12 190.99 66.65 208.15 117.61 178.7 117.61 178.07"/>
          <g>
            <g class="cls-33">
              <polygon class="cls-26" points="61.51 180.3 62.06 180.62 89.92 164.53 89.37 164.21 61.51 180.3"/>
            </g>
            <g class="cls-33">
              <polygon class="cls-26" points="63.28 181.33 63.83 181.65 91.7 165.56 91.15 165.24 63.28 181.33"/>
            </g>
            <g class="cls-33">
              <polygon class="cls-26" points="65.06 182.36 65.61 182.68 93.47 166.6 92.92 166.28 65.06 182.36"/>
            </g>
            <g class="cls-33">
              <path class="cls-26" d="M41.92,189.95s-.02.04-.04.06c.02.05.02.1-.01.15.13.01.24.04.32.09.08.05.12.11.13.18l.1.06c.11,0,.22.03.3.08.08.05.13.11.13.17l.1.06c.11,0,.22.03.3.08.08.05.13.11.13.18l.1.06c.11,0,.22.03.3.08.08.05.13.11.13.18l.1.06c.11,0,.22.03.3.08.08.05.12.11.13.18l.1.06c.11,0,.22.03.3.08.08.05.12.11.13.18l.1.06c.11,0,.22.03.3.08.08.05.13.11.13.18l.1.06c.11,0,.22.03.3.08.08.05.13.11.13.18l.1.06c.11,0,.22.03.3.08.08.05.13.11.13.18l.1.06c.11,0,.22.03.3.08.08.05.12.11.13.18l.1.06c.11,0,.22.03.3.08.08.05.12.11.13.18l.1.06c.11,0,.22.03.3.08.08.05.13.11.13.17l.1.06c.11,0,.22.03.3.08.08.05.13.11.13.17l.1.06c.11,0,.22.03.3.08.08.05.13.11.13.18l.1.06c.11,0,.22.03.3.08.08.05.12.11.13.17l.1.06c.11,0,.22.03.3.08.08.05.12.11.13.17l.13.08s.09-.01.14-.02c.02-.02.04-.03.07-.05.09-.05.21-.08.33-.08l.12-.07c0-.07.04-.14.13-.19.09-.05.21-.08.33-.08l.12-.07c0-.07.04-.14.13-.19.09-.05.21-.08.33-.08l.12-.07c0-.07.04-.14.13-.19.09-.05.21-.08.33-.08l.12-.07c0-.07.04-.14.13-.19.09-.05.21-.08.33-.08l.12-.07c0-.07.04-.14.13-.19.09-.05.21-.08.33-.08l.12-.07c0-.07.04-.14.13-.19.09-.05.21-.08.33-.08l.12-.07c0-.07.04-.14.13-.19.09-.05.21-.08.33-.08l.12-.07c0-.07.04-.14.13-.19.09-.05.21-.08.33-.08l.12-.07c0-.07.04-.14.13-.19.09-.05.21-.08.33-.08l.09-.05c-.05-.06-.05-.12-.03-.18l-.17-.1c-.09,0-.18-.03-.25-.07-.07-.04-.11-.09-.12-.14l-.16-.09c-.09,0-.18-.03-.25-.07-.07-.04-.11-.09-.12-.14l-.16-.09c-.09,0-.18-.03-.25-.07-.07-.04-.11-.09-.13-.15l-.16-.09c-.09,0-.18-.03-.25-.07-.07-.04-.11-.09-.13-.15l-.16-.09c-.09,0-.18-.03-.25-.07-.07-.04-.11-.09-.13-.15l-.16-.09c-.09,0-.18-.03-.25-.07-.07-.04-.11-.09-.12-.14l-.16-.09c-.09,0-.18-.03-.25-.07-.07-.04-.11-.09-.12-.14l-.16-.09c-.09,0-.18-.03-.25-.07-.07-.04-.11-.09-.13-.15l-.16-.09c-.09,0-.18-.03-.25-.07-.07-.04-.11-.09-.13-.15l-.16-.09c-.09,0-.18-.03-.25-.07-.07-.04-.11-.09-.13-.15l-.16-.09c-.09,0-.18-.03-.25-.07-.07-.04-.11-.09-.12-.14l-.16-.09c-.09,0-.18-.03-.25-.07-.07-.04-.11-.09-.12-.14l-.16-.09c-.09,0-.18-.03-.25-.07-.07-.04-.11-.09-.12-.14l-.16-.09c-.09,0-.18-.03-.25-.07-.07-.04-.11-.09-.13-.15l-.16-.09c-.09,0-.18-.03-.25-.07-.07-.04-.11-.09-.13-.15l-.16-.09c-.09,0-.18-.03-.25-.07-.07-.04-.11-.09-.13-.15l-.06-.03c-.08.01-.15.01-.23,0l-.09.05c-.02.05-.06.1-.13.14-.07.04-.15.06-.24.07l-.13.07c-.02.05-.06.1-.13.14-.07.04-.15.06-.24.07l-.13.07c-.02.05-.06.1-.13.14-.07.04-.15.06-.24.07l-.13.07c-.02.05-.06.1-.13.14-.07.04-.15.06-.24.07l-.13.07c-.02.05-.06.1-.12.14-.07.04-.15.06-.24.07l-.13.07c-.02.05-.06.1-.13.14-.07.04-.15.06-.24.07l-.13.07c-.02.05-.06.1-.13.14-.07.04-.15.06-.24.07l-.13.08c-.02.05-.06.1-.12.14-.07.04-.15.06-.24.07l-.13.07c-.02.05-.06.1-.13.14-.07.04-.15.06-.24.07l-.13.07c-.02.05-.06.1-.13.14-.07.04-.15.06-.24.07l-.13.08c-.02.05-.06.1-.12.14-.07.04-.15.06-.24.07l-.13.07Z"/>
            </g>
          </g>
          <g>
            <g class="cls-33">
              <polygon class="cls-26" points="37.12 190.36 37.12 190.99 66.65 208.15 66.65 207.52 37.12 190.36"/>
            </g>
            <polygon class="cls-9" points="117.61 178.25 117.61 178.07 66.65 207.52 66.65 208.15 67.67 208.15 118.52 178.77 117.61 178.25"/>
          </g>
        </g>
        <g>
          <polygon class="cls-12" points="84.28 186.46 83.67 186.1 83.66 184.42 84.28 184.78 84.28 186.46"/>
          <path class="cls-9" d="M137.85,165.81l-.81-.51-.61,1.05.35,6.95-14.2,5.53.29.21-26.61,10.45-.34-.25-.71.29-.68-1.98-6.36-3.68-.24.14v.34s-.36.21-.36.21l5.88,3.42.43,1.23-8.66,3.56-1.41.13-18.23-10.22,11.53-3.36,1.91.26,6.48,3.77.89-.51-6.99-4.04-2.31-.34-1.26.31-1.07-1.66-3.73-2.27-2.52-.8-.86-1.83-17.04-9.84-1.58-.06-.06.02-.08-.06,27.31-10.85.17.14,13.84-5.42.64-7.43-.89-.62-.61,1.06-.8,6.52-13.11,5.13.3.24-27.31,10.85-.26-.22-4.6,1.58.85.7-6.87,2.45.31,1.19,17.76,10.33,2.25.02,10.32-3.34,2.47.78,3.32,2.07.6,1.7-10.14,2.94.53,1.23,17.72,10.23,2.08.37,6.73-2.81.92.67,4.49-1.86-.14-.1,26.6-10.45.2.14,14.89-5.8-.59-7.93ZM57.67,177.08h-1.8s-17.22-9.99-17.22-9.99l10.64-3.91h1.27s16.25,9.4,16.25,9.4l.63,1.43-9.78,3.07Z"/>
          <polygon class="cls-23" points="81.29 132.2 80.67 131.85 89.74 137.01 90.36 137.37 81.29 132.2"/>
          <polygon class="cls-23" points="71.43 139.5 70.81 139.14 70.81 138.8 71.43 139.16 71.43 139.5"/>
          <polygon class="cls-23" points="71.43 139.16 70.81 138.8 70.81 137.8 71.43 138.16 71.43 139.16"/>
          <polygon class="cls-23" points="71.43 138.16 70.81 137.8 70.81 137.45 71.42 137.81 71.43 138.16"/>
          <polygon class="cls-23" points="71.42 137.81 70.81 137.45 80.67 131.76 81.29 132.12 71.42 137.81"/>
          <polygon class="cls-23" points="81.29 132.12 81.29 132.2 90.36 137.37 89.33 139.17 80.61 134.2 71.43 139.5 71.43 139.16 71.43 138.16 71.42 137.81 81.29 132.12"/>
          <polygon class="cls-20" points="81.29 132.12 81.29 132.2 90.36 137.37 89.33 139.17 80.61 134.2 71.43 139.5 71.43 139.16 71.43 138.16 71.42 137.81 81.29 132.12"/>
          <polygon class="cls-25" points="40.83 155.82 40.21 155.47 70.81 137.8 71.43 138.16 40.83 155.82"/>
          <polygon class="cls-25" points="71.43 138.16 71.43 139.16 40.83 156.82 40.83 155.82 71.43 138.16"/>
          <polygon class="cls-20" points="71.43 138.16 71.43 139.16 40.83 156.82 40.83 155.82 71.43 138.16"/>
          <polygon class="cls-23" points="37.18 159.28 36.56 158.92 36.55 157.23 37.17 157.59 37.18 159.28"/>
          <polygon class="cls-11" points="37.18 159.28 36.56 158.92 36.55 157.23 37.17 157.59 37.18 159.28"/>
          <polygon class="cls-23" points="37.17 157.59 36.55 157.23 40.21 155.12 40.82 155.48 37.17 157.59"/>
          <polygon class="cls-23" points="40.82 155.48 40.83 155.82 40.83 156.82 40.83 157.17 37.18 159.28 37.17 157.59 40.82 155.48"/>
          <polygon class="cls-20" points="40.82 155.48 40.83 155.82 40.83 156.82 40.83 157.17 37.18 159.28 37.17 157.59 40.82 155.48"/>
          <polygon class="cls-23" points="37.89 158.72 39.13 158 39.11 165.38 37.87 166.1 37.89 158.72"/>
          <polygon class="cls-20" points="37.89 158.72 39.13 158 39.11 165.38 37.87 166.1 37.89 158.72"/>
          <polygon class="cls-23" points="37.17 157.55 38.4 156.83 39.14 156.41 37.9 157.13 37.17 157.55"/>
          <polygon class="cls-23" points="38.6 167.37 39.84 166.65 56.23 176.11 55 176.83 38.6 167.37"/>
          <polygon class="cls-23" points="55 176.83 56.23 176.11 56.97 175.69 55.73 176.41 55 176.83"/>
          <polygon class="cls-23" points="64.81 181.46 66.05 180.75 66.78 182.3 65.54 183.01 64.81 181.46"/>
          <polygon class="cls-32" points="64.81 181.46 66.05 180.75 66.78 182.3 65.54 183.01 64.81 181.46"/>
          <polygon class="cls-23" points="64.83 174.19 66.07 173.47 66.05 180.75 64.81 181.46 64.83 174.19"/>
          <polygon class="cls-20" points="64.83 174.19 66.07 173.47 66.05 180.75 64.81 181.46 64.83 174.19"/>
          <polygon class="cls-23" points="64.24 173.18 65.48 172.46 66.21 172.04 64.98 172.76 64.24 173.18"/>
          <polygon class="cls-23" points="65.54 183.01 66.78 182.3 83.36 191.87 82.13 192.59 65.54 183.01"/>
          <polygon class="cls-23" points="83.42 184.25 84.66 183.53 84.63 192.43 83.4 193.15 83.42 184.25"/>
          <polygon class="cls-19" points="83.42 184.25 84.66 183.53 84.63 192.43 83.4 193.15 83.42 184.25"/>
          <polygon class="cls-23" points="82.69 182.99 83.93 182.27 84.66 183.53 83.42 184.25 82.69 182.99"/>
          <polygon class="cls-32" points="82.69 182.99 83.93 182.27 84.66 183.53 83.42 184.25 82.69 182.99"/>
          <polygon class="cls-23" points="128.4 159.39 127.78 159.03 136.85 164.2 137.47 164.56 128.4 159.39"/>
          <polygon class="cls-23" points="118.54 166.69 117.92 166.33 117.92 165.98 118.53 166.34 118.54 166.69"/>
          <polygon class="cls-23" points="118.53 166.34 117.92 165.98 117.91 164.98 118.53 165.34 118.53 166.34"/>
          <polygon class="cls-23" points="118.53 165.34 117.91 164.98 117.91 164.64 118.53 165 118.53 165.34"/>
          <polygon class="cls-11" points="118.54 166.69 117.92 166.33 117.92 165.98 118.53 166.34 118.54 166.69"/>
          <polygon class="cls-11" points="118.53 165.34 117.91 164.98 117.91 164.64 118.53 165 118.53 165.34"/>
          <polygon class="cls-23" points="118.53 165 117.91 164.64 127.78 158.94 128.4 159.3 118.53 165"/>
          <polygon class="cls-23" points="128.4 159.3 137.47 164.56 136.43 166.35 127.72 161.39 118.54 166.69 118.53 166.34 118.53 165.34 118.53 165 128.4 159.3"/>
          <polygon class="cls-25" points="87.93 183.01 87.31 182.65 117.91 164.98 118.53 165.34 87.93 183.01"/>
          <polygon class="cls-25" points="118.53 165.34 118.53 166.34 87.93 184.01 87.93 183.01 118.53 165.34"/>
          <polygon class="cls-20" points="118.53 165.34 118.53 166.34 87.93 184.01 87.93 183.01 118.53 165.34"/>
          <polygon class="cls-23" points="84.28 184.78 83.66 184.42 87.31 182.31 87.93 182.67 84.28 184.78"/>
          <polygon class="cls-23" points="87.93 182.67 87.93 183.01 87.93 184.01 87.94 184.36 84.28 186.46 84.28 184.78 87.93 182.67"/>
          <polygon class="cls-20" points="87.93 182.67 87.93 183.01 87.93 184.01 87.94 184.36 84.28 186.46 84.28 184.78 87.93 182.67"/>
          <g class="cls-34">
            <g class="cls-35">
              <polygon class="cls-10" points="55.73 176.41 55.3 176.63 38.9 167.17 38.17 165.9 38.19 158.55 38.63 158.3 55.02 167.76 55.75 169.03 55.73 176.41"/>
            </g>
          </g>
          <g class="cls-34">
            <g class="cls-41">
              <polygon class="cls-29" points="82.86 191.88 82.73 192.01 82.3 192.25 65.91 182.79 65.18 181.53 65.2 174.14 65.71 173.85 82.15 183.35 82.88 184.61 82.86 191.88"/>
            </g>
          </g>
          <g class="cls-38">
            <g class="cls-43">
              <polygon class="cls-28" points="71.7 186.14 65.91 182.79 65.18 181.53 65.2 174.14 65.71 173.85 69.13 175.83 71.7 186.14"/>
            </g>
          </g>
          <polygon class="cls-23" points="37.87 166.1 39.11 165.38 39.84 166.65 38.6 167.37 37.87 166.1"/>
          <g class="cls-38">
            <g class="cls-46">
              <polygon class="cls-31" points="76.05 188.65 73.26 187.03 70.68 176.73 73.48 178.34 76.05 188.65"/>
            </g>
          </g>
          <g class="cls-38">
            <g class="cls-47">
              <polygon class="cls-30" points="44.3 170.28 38.9 167.17 38.17 165.9 38.19 158.55 38.63 158.3 41.75 160.1 44.3 170.28"/>
            </g>
          </g>
          <g class="cls-38">
            <g class="cls-2">
              <polygon class="cls-27" points="48.64 172.79 45.85 171.18 43.31 161 46.1 162.61 48.64 172.79"/>
            </g>
          </g>
          <polygon class="cls-23" points="64.98 172.76 66.21 172.04 83.93 182.27 82.69 182.99 64.98 172.76"/>
          <path class="cls-23" d="M82.69,182.99l.73,1.26-.03,8.9-.73.42-17.72-10.23-.73-1.26.02-7.54-2.07-1.96-3.94-2.27-1.88-.32-.02,7.54-.73.42-17.72-10.23-.73-1.26.03-8.9.73-.42,17.72,10.23.73,1.26,1.92.34,3.87,2.23,2.1,1.98.73-.42,17.72,10.23ZM82.86,191.89l.02-7.27-.73-1.26-16.59-9.58-.73.42-.02,7.27.73,1.55,16.59,9.58.74-.7h0ZM55.73,176.41l.02-7.39-.73-1.26-16.39-9.46-.73.42-.02,7.39.73,1.26,16.39,9.46.73-.42h0Z"/>
          <path class="cls-11" d="M82.69,182.99l.73,1.26-.03,8.9-.73.42-17.72-10.23-.73-1.26.02-7.54-2.07-1.96-3.94-2.27-1.88-.32-.02,7.54-.73.42-17.72-10.23-.73-1.26.03-8.9.73-.42,17.72,10.23.73,1.26,1.92.34,3.87,2.23,2.1,1.98.73-.42,17.72,10.23ZM82.86,191.89l.02-7.27-.73-1.26-16.59-9.58-.73.42-.02,7.27.73,1.55,16.59,9.58.74-.7h0ZM55.73,176.41l.02-7.39-.73-1.26-16.39-9.46-.73.42-.02,7.39.73,1.26,16.39,9.46.73-.42h0Z"/>
          <polygon class="cls-23" points="58.27 168.96 59.51 168.24 63.37 170.48 62.14 171.2 58.27 168.96"/>
          <polygon class="cls-23" points="62.14 171.2 63.37 170.48 65.48 172.46 64.24 173.18 62.14 171.2"/>
          <polygon class="cls-11" points="62.14 171.2 63.37 170.48 65.48 172.46 64.24 173.18 62.14 171.2"/>
          <polygon class="cls-23" points="56.35 168.62 57.59 167.9 59.51 168.24 58.27 168.96 56.35 168.62"/>
          <polygon class="cls-23" points="55.62 167.36 56.86 166.64 57.59 167.9 56.35 168.62 55.62 167.36"/>
          <polygon class="cls-32" points="55.62 167.36 56.86 166.64 57.59 167.9 56.35 168.62 55.62 167.36"/>
          <polygon class="cls-23" points="37.9 157.13 39.14 156.41 56.86 166.64 55.62 167.36 37.9 157.13"/>
          <polygon class="cls-23" points="56.35 169.97 57.58 170.18 57.56 176.8 56.32 177.52 56.35 169.97"/>
          <polygon class="cls-20" points="56.35 169.97 57.58 170.18 57.56 176.8 56.32 177.52 56.35 169.97"/>
          <polygon class="cls-20" points="128.4 159.3 137.47 164.56 136.43 166.35 127.72 161.39 118.54 166.69 118.53 166.34 118.53 165.34 118.53 165 128.4 159.3"/>
          <polygon class="cls-11" points="84.28 186.46 83.67 186.1 83.66 184.42 84.28 184.78 84.28 186.46"/>
        </g>
        <g>
          <polygon class="cls-21" points="188.34 92.47 158.46 109.83 158.46 110.47 210.02 140.27 239.9 122.9 239.9 122.26 188.34 92.47"/>
          <g>
            <g class="cls-33">
              <polygon class="cls-26" points="215.23 112.09 214.67 112.41 186.48 96.13 187.03 95.81 215.23 112.09"/>
            </g>
            <g class="cls-33">
              <polygon class="cls-26" points="213.43 113.13 212.87 113.45 184.68 97.18 185.24 96.85 213.43 113.13"/>
            </g>
            <g class="cls-33">
              <polygon class="cls-26" points="211.63 114.18 211.08 114.5 182.88 98.22 183.44 97.9 211.63 114.18"/>
            </g>
            <g class="cls-33">
              <path class="cls-26" d="M235.05,121.85s.02.04.04.06c-.02.05-.02.1.01.15-.13.01-.24.04-.32.09-.08.05-.13.11-.13.18l-.1.06c-.11,0-.22.03-.31.08-.08.05-.13.11-.13.18l-.1.06c-.11,0-.22.03-.31.08-.08.05-.13.11-.13.18l-.1.06c-.11,0-.22.03-.31.08-.08.05-.13.11-.13.18l-.1.06c-.11,0-.22.03-.31.08-.08.05-.13.11-.13.18l-.1.06c-.11,0-.22.03-.31.08-.08.05-.13.11-.13.18l-.1.06c-.11,0-.22.03-.31.08-.08.05-.13.11-.13.18l-.1.06c-.11,0-.22.03-.31.08-.08.05-.13.11-.13.18l-.1.06c-.11,0-.22.03-.31.08-.08.05-.13.11-.13.18l-.1.06c-.11,0-.22.03-.31.08-.08.05-.13.11-.13.18l-.1.06c-.11,0-.22.03-.31.08-.08.05-.13.11-.13.18l-.1.06c-.11,0-.22.03-.31.08-.08.05-.13.11-.13.18l-.1.06c-.11,0-.22.03-.31.08-.08.05-.13.11-.13.18l-.1.06c-.11,0-.22.03-.31.08-.08.05-.13.11-.13.18l-.1.06c-.11,0-.22.03-.31.08-.08.05-.13.11-.13.18l-.1.06c-.11,0-.22.03-.31.08-.08.05-.13.11-.13.18l-.14.08s-.09-.02-.14-.02c-.02-.02-.04-.03-.07-.05-.09-.05-.21-.08-.33-.08l-.12-.07c0-.07-.04-.14-.13-.19-.09-.05-.21-.08-.33-.08l-.12-.07c0-.07-.04-.14-.13-.19-.09-.05-.21-.08-.33-.08l-.12-.07c0-.07-.04-.14-.13-.19-.09-.05-.21-.08-.33-.08l-.12-.07c0-.07-.04-.14-.13-.19-.09-.05-.21-.08-.33-.08l-.12-.07c0-.07-.04-.14-.13-.19-.09-.05-.21-.08-.33-.08l-.12-.07c0-.07-.04-.14-.13-.19-.09-.05-.21-.08-.33-.08l-.12-.07c0-.07-.04-.14-.13-.19-.09-.05-.21-.08-.33-.08l-.12-.07c0-.07-.04-.14-.13-.19-.09-.05-.21-.08-.33-.08l-.12-.07c0-.07-.04-.14-.13-.19-.09-.05-.21-.08-.33-.08l-.09-.05c.05-.06.06-.12.03-.18l.18-.1c.09,0,.18-.03.25-.07.07-.04.11-.09.13-.15l.16-.09c.09,0,.18-.03.25-.07.07-.04.11-.09.13-.15l.16-.09c.09,0,.18-.03.25-.07.07-.04.11-.09.13-.15l.16-.09c.09,0,.18-.03.25-.07.07-.04.11-.09.13-.15l.16-.09c.09,0,.18-.03.25-.07.07-.04.11-.09.13-.15l.16-.09c.09,0,.18-.03.25-.07.07-.04.11-.09.13-.15l.16-.09c.09,0,.18-.03.25-.07.07-.04.11-.09.13-.15l.16-.09c.09,0,.18-.03.25-.07.07-.04.11-.09.13-.15l.16-.09c.09,0,.18-.03.25-.07.07-.04.11-.09.13-.15l.16-.09c.09,0,.18-.03.25-.07.07-.04.11-.09.13-.15l.16-.09c.09,0,.18-.03.25-.07.07-.04.11-.09.13-.15l.16-.09c.09,0,.18-.03.25-.07.07-.04.11-.09.13-.15l.16-.09c.09,0,.18-.03.25-.07.07-.04.11-.09.13-.15l.16-.09c.09,0,.18-.03.25-.07.07-.04.11-.09.13-.15l.16-.09c.09,0,.18-.03.25-.07.07-.04.11-.09.13-.15l.16-.09c.09,0,.18-.03.25-.07.07-.04.11-.09.13-.15l.06-.03c.08.01.15.01.23,0l.09.05c.02.05.06.1.13.14.07.04.15.06.24.07l.13.08c.02.05.06.1.13.14.07.04.15.06.24.07l.13.08c.02.05.06.1.13.14.07.04.15.06.24.07l.13.08c.02.05.06.1.13.14.07.04.15.06.24.07l.13.08c.02.05.06.1.13.14.07.04.15.06.24.07l.13.08c.02.05.06.1.13.14.07.04.15.06.24.07l.13.08c.02.05.06.1.13.14.07.04.15.06.24.07l.13.08c.02.05.06.1.13.14.07.04.15.06.24.07l.13.08c.02.05.06.1.13.14.07.04.15.06.24.07l.13.08c.02.05.06.1.13.14.07.04.15.06.24.07l.13.08c.02.05.06.1.13.14.07.04.15.06.24.07l.13.08Z"/>
            </g>
          </g>
          <g>
            <polygon class="cls-9" points="239.9 122.46 239.9 122.26 210.03 139.63 210.02 140.27 211 140.27 240.82 122.94 239.9 122.46"/>
            <g class="cls-33">
              <polygon class="cls-26" points="210.03 139.63 210.02 140.27 158.46 110.47 158.46 109.83 210.03 139.63"/>
            </g>
          </g>
        </g>
        <g>
          <polygon class="cls-21" points="131.94 158.62 32.48 100.82 30.72 99.64 130.18 157.44 131.94 158.62"/>
          <polygon class="cls-20" points="131.94 158.62 32.48 100.82 30.72 99.64 130.18 157.44 131.94 158.62"/>
          <polygon class="cls-21" points="130.18 157.44 30.72 99.64 30.71 96.73 130.17 154.53 130.18 157.44"/>
          <polygon class="cls-21" points="130.17 154.53 30.71 96.73 32.46 93.52 131.92 151.32 130.17 154.53"/>
          <polygon class="cls-21" points="131.92 151.32 32.46 93.52 100.51 54.23 199.97 112.03 131.92 151.32"/>
          <polygon class="cls-21" points="199.97 112.03 181.3 122.81 81.51 65.2 100.51 54.23 199.97 112.03"/>
          <polygon class="cls-21" points="199.97 112.03 199.98 116.02 197.74 117.3 197.75 120.66 131.94 158.62 130.18 157.44 130.17 154.53 131.92 151.32 199.97 112.03"/>
          <polygon class="cls-20" points="197.74 117.3 197.75 117.93 140.17 150.91 197.74 117.3"/>
          <g>
            <path class="cls-22" d="M157.81,97.33c.29-.03.55-.11.78-.25.28-.16.43-.35.45-.55.02-.2-.08-.39-.29-.56-.15-.13-.51-.36-1.07-.68l-.76-.44-2.2,1.27.86.5c.62.36,1.07.57,1.36.64.29.07.58.09.87.06Z"/>
            <path class="cls-22" d="M143.56,89.1c.29-.03.55-.11.78-.25.28-.16.43-.35.45-.55.02-.2-.08-.39-.29-.56-.15-.13-.51-.36-1.07-.68l-.76-.44-2.2,1.27.86.49c.62.36,1.07.57,1.36.64.29.07.58.09.87.06Z"/>
            <path class="cls-22" d="M173.72,104.59c-.11-.08-.48-.31-1.12-.68l-1.22-.71-1.97,1.14,1.16.67c.75.43,1.25.69,1.5.76.25.07.51.09.77.06.26-.03.51-.11.74-.24.26-.15.4-.31.42-.49.02-.17-.07-.35-.29-.52Z"/>
            <path class="cls-22" d="M100.51,54.23l-19,10.97,99.79,57.62,18.67-10.78-99.46-57.8ZM105.84,58.76l3.3,1.9-.32.18-3.3-1.9.32-.18ZM108.16,61.24l-.32.18-4.67-2.69.32-.18,4.67,2.69ZM102.45,56.81l3.08,1.78-.32.18-3.08-1.78.32-.18ZM100.9,55.91l1.24.71-.32.18-1.24-.71.32-.18ZM99.91,56.47l3.26,1.88-.32.18-3.26-1.88.32-.18ZM98.93,57.04l5.35,3.09-.32.18-5.35-3.09.32-.18ZM101.1,59.79l-3.46-2,.32-.18,3.46,2-.32.18ZM106.74,73.33l1.93-4.73-5.06,2.92-1.46-.84,7.76-4.48,1.52.88-2.01,4.82,5.18-2.99,1.46.84-7.76,4.48-1.57-.91ZM115.87,78.6l-5.9-3.41,7.76-4.48,5.75,3.32-1.31.76-4.19-2.42-1.72.99,3.89,2.25-1.31.75-3.89-2.25-2.11,1.22,4.33,2.5-1.31.75ZM123.08,82.76l4.25-4.24-7.34,2.46-1.7-.98,5.91-5.55,1.6.93-4.16,3.75,6.75-2.26,1.86,1.08-4.06,3.91,6.61-2.44,1.58.91-9.64,3.39-1.66-.96ZM132.07,87.78c-.64-.15-1.3-.42-1.97-.81-.98-.57-1.51-1.13-1.58-1.7-.07-.57.27-1.13,1.04-1.69l1.67.79c-.42.35-.61.67-.57.97.04.3.3.59.78.86.5.29.99.45,1.46.47.47.02.85-.05,1.13-.21.18-.11.29-.23.31-.36s-.05-.31-.23-.52c-.12-.14-.43-.45-.92-.92-.63-.6-.96-1.09-1-1.46-.05-.52.23-.96.85-1.31.4-.23.88-.38,1.44-.45.57-.07,1.15-.03,1.75.11.6.14,1.2.38,1.8.73.97.56,1.49,1.11,1.56,1.64.07.53-.25,1.01-.93,1.43l-1.64-.86c.33-.27.47-.52.43-.75-.05-.23-.29-.47-.73-.72-.46-.26-.9-.41-1.35-.46-.29-.03-.53.02-.73.13-.18.11-.26.24-.24.41.03.21.34.59.92,1.13.58.54.96.98,1.13,1.3.17.32.2.64.07.95-.13.31-.44.61-.93.89-.44.26-.98.43-1.62.51-.64.08-1.27.05-1.91-.11ZM139.15,88.66l-2.93,1.69-1.57-.9,7.76-4.48,2.51,1.45c.95.55,1.53.93,1.75,1.14.33.32.45.68.36,1.08-.09.4-.44.78-1.06,1.13-.48.28-.96.46-1.46.54-.5.09-.97.11-1.42.06-.45-.05-.85-.13-1.18-.26-.45-.17-1.03-.46-1.74-.87l-1.02-.59ZM146.37,96.21l1.08-1.41-3.1-1.79-2.4.65-1.66-.96,10.78-2.73,1.66.96-4.65,6.27-1.7-.98ZM153.4,96.89l-2.93,1.69-1.57-.9,7.76-4.48,2.51,1.45c.95.55,1.53.93,1.75,1.14.33.32.45.68.36,1.08-.09.4-.44.78-1.06,1.13-.48.28-.96.46-1.46.54-.5.09-.97.11-1.42.06-.45-.05-.85-.13-1.18-.26-.45-.17-1.03-.46-1.74-.87l-1.02-.59ZM162.04,105.25l-5.9-3.41,7.76-4.48,5.75,3.32-1.31.76-4.19-2.42-1.72.99,3.89,2.25-1.31.75-3.89-2.25-2.11,1.22,4.33,2.5-1.31.75ZM176.18,105.56c-.13.34-.42.64-.88.9-.58.34-1.23.51-1.96.54-.72.02-1.47-.14-2.25-.47.14.31.2.6.19.86-.02.26-.14.68-.37,1.24l-.57,1.42-1.87-1.08.56-1.63c.2-.58.31-.96.31-1.14,0-.18-.04-.33-.15-.46-.11-.13-.34-.3-.7-.51l-.32-.18-3.24,1.87-1.57-.9,7.76-4.48,3.3,1.9c.83.48,1.36.87,1.6,1.16s.29.61.16.95Z"/>
            <polygon class="cls-22" points="148.26 93.75 150.07 91.48 146.15 92.53 148.26 93.75"/>
          </g>
          <polygon class="cls-24" points="160.18 114.14 157.46 115.67 96.15 79.53 98.93 77.97 160.18 114.14"/>
          <polygon class="cls-24" points="149.65 112.98 146.93 114.52 91.82 82 94.6 80.44 149.65 112.98"/>
          <polygon class="cls-24" points="148.94 117.74 146.22 119.27 87.38 84.54 90.15 82.97 148.94 117.74"/>
          <g>
            <polygon class="cls-24" points="116.27 142.22 114.79 145.59 114.77 147.39 114.32 147.13 114.32 145.32 115.81 141.95 163.62 114.3 164.08 114.56 116.27 142.22"/>
            <polygon class="cls-24" points="144.27 130.53 141.32 128.83 140.86 129.09 143.81 130.79 144.27 130.53"/>
            <g>
              <polygon class="cls-24" points="147.74 130.88 142.75 128 142.29 128.27 147.28 131.15 147.74 130.88"/>
              <polygon class="cls-24" points="147.74 131.41 150.34 132.92 150.8 132.65 148.2 131.15 147.74 131.41"/>
              <polygon class="cls-24" points="151.26 132.92 150.8 133.18 154.31 135.2 154.77 134.94 151.26 132.92"/>
            </g>
            <g>
              <polygon class="cls-24" points="146.9 128.74 144.19 127.18 143.73 127.44 146.44 129.01 146.9 128.74"/>
              <polygon class="cls-24" points="147.36 129.01 146.9 129.27 155.74 134.38 156.2 134.11 147.36 129.01"/>
            </g>
            <g>
              <polygon class="cls-24" points="154.71 131.6 145.62 126.35 145.16 126.62 154.25 131.87 154.71 131.6"/>
              <polygon class="cls-24" points="155.17 131.87 154.71 132.13 157.17 133.55 157.63 133.29 155.17 131.87"/>
            </g>
            <g>
              <polygon class="cls-24" points="151.8 128.27 147.05 125.52 146.59 125.79 151.34 128.53 151.8 128.27"/>
              <polygon class="cls-24" points="152.26 128.53 151.8 128.8 158.6 132.73 159.06 132.46 152.26 128.53"/>
            </g>
            <g>
              <polygon class="cls-24" points="138.57 135.95 133.82 133.2 133.36 133.47 138.11 136.21 138.57 135.95"/>
              <polygon class="cls-24" points="139.03 136.21 138.57 136.48 145.37 140.4 145.83 140.14 139.03 136.21"/>
            </g>
            <polygon class="cls-24" points="123.78 142.38 120.84 140.68 120.38 140.95 123.32 142.65 123.78 142.38"/>
            <g>
              <polygon class="cls-24" points="127.25 142.73 122.27 139.86 121.81 140.12 126.79 143 127.25 142.73"/>
              <polygon class="cls-24" points="127.25 143.27 129.86 144.77 130.32 144.51 127.71 143 127.25 143.27"/>
              <polygon class="cls-24" points="130.78 144.77 130.32 145.04 133.82 147.06 134.28 146.79 130.78 144.77"/>
            </g>
            <g>
              <polygon class="cls-24" points="126.41 140.6 123.7 139.03 123.24 139.3 125.95 140.86 126.41 140.6"/>
              <polygon class="cls-24" points="126.87 140.86 126.41 141.13 135.25 146.23 135.71 145.97 126.87 140.86"/>
            </g>
            <g>
              <polygon class="cls-24" points="121.61 143.23 118.89 141.67 118.43 141.93 121.15 143.5 121.61 143.23"/>
              <polygon class="cls-24" points="122.07 143.5 121.61 143.76 130.45 148.87 130.91 148.6 122.07 143.5"/>
            </g>
            <g>
              <polygon class="cls-24" points="134.22 143.45 125.13 138.21 124.67 138.47 133.76 143.72 134.22 143.45"/>
              <polygon class="cls-24" points="134.68 143.72 134.22 143.99 136.68 145.41 137.14 145.14 134.68 143.72"/>
            </g>
            <g>
              <polygon class="cls-24" points="131.31 140.12 126.56 137.38 126.1 137.64 130.85 140.39 131.31 140.12"/>
              <polygon class="cls-24" points="131.77 140.39 131.31 140.65 138.11 144.58 138.57 144.32 131.77 140.39"/>
            </g>
            <polygon class="cls-24" points="160.73 120.5 166.71 123.96 167.17 123.69 161.19 120.24 160.73 120.5"/>
            <polygon class="cls-24" points="160.73 119.97 158.7 118.8 158.24 119.06 160.27 120.24 160.73 119.97"/>
            <g>
              <polygon class="cls-24" points="165.18 120.88 160.13 117.97 159.67 118.24 164.72 121.15 165.18 120.88"/>
              <polygon class="cls-24" points="165.64 121.15 165.18 121.42 171.68 125.17 172.14 124.91 165.64 121.15"/>
            </g>
            <g>
              <polygon class="cls-24" points="169.36 122.18 170.9 123.07 171.36 122.8 169.82 121.91 169.36 122.18"/>
              <polygon class="cls-24" points="169.36 121.65 161.56 117.15 161.1 117.41 168.9 121.91 169.36 121.65"/>
              <polygon class="cls-24" points="171.82 123.07 171.36 123.34 173.11 124.35 173.57 124.08 171.82 123.07"/>
            </g>
            <polygon class="cls-24" points="131.39 137.36 137.37 140.81 137.83 140.55 131.85 137.09 131.39 137.36"/>
            <polygon class="cls-24" points="131.39 136.83 129.35 135.65 128.89 135.92 130.93 137.09 131.39 136.83"/>
            <g>
              <polygon class="cls-24" points="135.83 137.74 130.78 134.83 130.32 135.09 135.37 138.01 135.83 137.74"/>
              <polygon class="cls-24" points="136.29 138.01 135.83 138.27 142.34 142.03 142.8 141.76 136.29 138.01"/>
            </g>
            <g>
              <polygon class="cls-24" points="122.89 145.23 117.85 142.31 117.39 142.58 122.43 145.49 122.89 145.23"/>
              <polygon class="cls-24" points="123.35 145.49 122.89 145.76 129.4 149.52 129.86 149.25 123.35 145.49"/>
            </g>
            <polygon class="cls-24" points="121.72 146.02 116.68 143.11 116.45 143.59 121.49 146.5 121.72 146.02"/>
            <polygon class="cls-24" points="125.81 148.38 122.12 146.23 121.89 146.71 125.58 148.86 125.81 148.38"/>
            <polygon class="cls-24" points="121.3 147.1 116.25 144.19 116.02 144.67 121.07 147.58 121.3 147.1"/>
            <polygon class="cls-24" points="129.37 151.74 124.32 148.83 124.09 149.31 129.14 152.22 129.37 151.74"/>
            <polygon class="cls-24" points="123.81 148.54 121.7 147.31 121.47 147.79 123.58 149.02 123.81 148.54"/>
            <polygon class="cls-24" points="117.94 146.39 115.83 145.16 115.6 145.64 117.71 146.87 117.94 146.39"/>
            <polygon class="cls-24" points="129.96 150.78 126.27 148.64 126.04 149.11 129.73 151.26 129.96 150.78"/>
            <g>
              <polygon class="cls-24" points="140.01 139.04 141.55 139.93 142.02 139.66 140.47 138.77 140.01 139.04"/>
              <polygon class="cls-24" points="140.01 138.5 132.21 134 131.75 134.27 139.55 138.77 140.01 138.5"/>
              <polygon class="cls-24" points="142.48 139.93 142.02 140.19 143.77 141.2 144.23 140.94 142.48 139.93"/>
            </g>
            <g>
              <polygon class="cls-24" points="168.2 119.33 167.74 119.59 174.54 123.52 175 123.26 168.2 119.33"/>
              <polygon class="cls-24" points="167.74 119.06 162.99 116.32 162.53 116.58 167.28 119.33 167.74 119.06"/>
            </g>
            <g>
              <polygon class="cls-24" points="166.23 116.53 164.42 115.49 163.96 115.76 165.77 116.8 166.23 116.53"/>
              <polygon class="cls-24" points="166.23 117.07 170.71 119.65 171.17 119.39 166.69 116.8 166.23 117.07"/>
              <polygon class="cls-24" points="171.63 119.65 171.17 119.92 175.98 122.7 176.44 122.43 171.63 119.65"/>
            </g>
            <g>
              <polygon class="cls-24" points="140.12 135.34 135.07 132.43 134.61 132.69 139.66 135.6 140.12 135.34"/>
              <polygon class="cls-24" points="140.58 135.6 140.12 135.87 146.62 139.63 147.08 139.36 140.58 135.6"/>
            </g>
            <g>
              <polygon class="cls-24" points="130.68 115.49 121.62 110.26 120.74 110.76 129.81 116 130.68 115.49"/>
              <polygon class="cls-24" points="131.56 116 130.68 116.5 143.65 123.99 144.53 123.48 131.56 116"/>
            </g>
            <polygon class="cls-24" points="92.12 120.09 83.06 114.85 82.18 115.36 91.25 120.59 92.12 120.09"/>
            <polygon class="cls-24" points="93 120.59 92.12 121.1 105.09 128.59 105.97 128.08 93 120.59"/>
            <g>
              <polygon class="cls-24" points="112.65 126.53 103.59 121.3 102.71 121.81 111.77 127.04 112.65 126.53"/>
              <polygon class="cls-24" points="113.53 127.04 112.65 127.55 125.61 135.03 126.49 134.53 113.53 127.04"/>
            </g>
            <g>
              <polygon class="cls-24" points="125.69 128.22 108.36 118.21 107.48 118.72 124.81 128.73 125.69 128.22"/>
              <polygon class="cls-24" points="126.57 128.73 125.69 129.24 130.38 131.95 131.26 131.44 126.57 128.73"/>
            </g>
            <g>
              <polygon class="cls-24" points="120.15 121.87 111.08 116.64 110.21 117.15 119.27 122.38 120.15 121.87"/>
              <polygon class="cls-24" points="121.02 122.38 120.15 122.88 133.11 130.37 133.99 129.86 121.02 122.38"/>
            </g>
            <polygon class="cls-24" points="116.98 118.18 128.38 124.77 129.26 124.26 117.86 117.67 116.98 118.18"/>
            <polygon class="cls-24" points="100.37 123.33 111.77 129.92 112.65 129.41 101.24 122.83 100.37 123.33"/>
            <polygon class="cls-24" points="106.08 129.09 121.2 137.87 122.08 137.36 106.96 128.59 106.08 129.09"/>
            <polygon class="cls-24" points="116.98 117.17 113.1 114.93 112.22 115.43 116.1 117.67 116.98 117.17"/>
            <g>
              <polygon class="cls-24" points="125.45 118.91 115.83 113.35 114.95 113.86 124.57 119.41 125.45 118.91"/>
              <polygon class="cls-24" points="126.33 119.41 125.45 119.92 137.86 127.08 138.73 126.58 126.33 119.41"/>
            </g>
            <g>
              <polygon class="cls-24" points="133.43 121.38 136.37 123.07 137.24 122.57 134.3 120.87 133.43 121.38"/>
              <polygon class="cls-24" points="133.43 120.36 118.56 111.78 117.68 112.28 132.55 120.87 133.43 120.36"/>
              <polygon class="cls-24" points="138.12 123.07 137.24 123.58 140.58 125.51 141.46 125 138.12 123.07"/>
            </g>
            <g>
              <polygon class="cls-24" points="120.73 129.59 123.67 131.29 124.55 130.78 121.61 129.08 120.73 129.59"/>
              <polygon class="cls-24" points="120.73 128.58 105.86 119.99 104.98 120.5 119.85 129.08 120.73 128.58"/>
              <polygon class="cls-24" points="125.42 131.29 124.55 131.8 127.89 133.72 128.76 133.22 125.42 131.29"/>
            </g>
            <polygon class="cls-24" points="58.21 101.56 61.15 103.26 62.03 102.76 59.08 101.06 58.21 101.56"/>
            <polygon class="cls-24" points="77.82 111.9 62.95 103.31 62.07 103.82 76.94 112.41 77.82 111.9"/>
            <polygon class="cls-24" points="78.77 112.42 77.9 112.93 81.24 114.85 82.11 114.35 78.77 112.42"/>
            <polygon class="cls-24" points="90.34 121.18 81.28 115.95 80.4 116.46 89.46 121.69 90.34 121.18"/>
            <polygon class="cls-24" points="90.47 122.19 119.42 138.97 120.3 138.46 91.35 121.68 90.47 122.19"/>
            <polygon class="cls-24" points="72.3 111.82 75.24 113.52 76.11 113.01 73.17 111.31 72.3 111.82"/>
            <polygon class="cls-24" points="72.3 110.8 57.42 102.22 56.55 102.72 71.42 111.31 72.3 110.8"/>
            <polygon class="cls-24" points="76.99 113.52 76.11 114.02 79.45 115.95 80.33 115.44 76.99 113.52"/>
            <polygon class="cls-24" points="87.15 121.49 86.28 122 101.48 130.78 102.36 130.27 87.15 121.49"/>
            <polygon class="cls-24" points="102.48 131.28 117.6 140.06 118.47 139.56 103.35 130.78 102.48 131.28"/>
            <polygon class="cls-24" points="74.08 114.01 55.6 103.31 54.72 103.82 73.2 114.52 74.08 114.01"/>
            <polygon class="cls-24" points="75.17 114.61 74.29 115.12 85.37 121.55 86.25 121.05 75.17 114.61"/>
            <polygon class="cls-24" points="83.71 123.97 83.31 124.83 98.52 133.61 98.92 132.75 83.71 123.97"/>
            <polygon class="cls-24" points="99.51 134.11 114.63 142.89 115.03 142.04 99.91 133.26 99.51 134.11"/>
            <polygon class="cls-24" points="70.63 116.49 52.16 105.8 51.76 106.65 70.24 117.35 70.63 116.49"/>
            <polygon class="cls-24" points="71.72 117.09 71.33 117.95 82.41 124.38 82.8 123.53 71.72 117.09"/>
            <polygon class="cls-24" points="82.43 127.38 82.43 128.44 97.63 137.22 97.63 136.16 82.43 127.38"/>
            <polygon class="cls-24" points="98.63 137.73 113.75 146.5 113.75 145.45 98.63 136.67 98.63 137.73"/>
            <polygon class="cls-24" points="69.35 119.9 50.87 109.21 50.87 110.26 69.35 120.96 69.35 119.9"/>
            <polygon class="cls-24" points="70.44 120.5 70.44 121.56 81.52 128 81.52 126.94 70.44 120.5"/>
            <polygon class="cls-24" points="82.97 125.59 82.58 126.44 113.88 144.57 114.28 143.72 82.97 125.59"/>
            <polygon class="cls-24" points="76.1 121.74 51.42 107.41 51.03 108.27 75.71 122.59 76.1 121.74"/>
            <polygon class="cls-24" points="76.91 122.16 76.52 123.02 81.67 126 82.06 125.15 76.91 122.16"/>
            <polygon class="cls-24" points="86.84 123.32 76.55 117.36 75.67 117.87 85.96 123.83 86.84 123.32"/>
            <polygon class="cls-24" points="87.71 123.83 86.84 124.33 103.8 134.11 104.68 133.61 87.71 123.83"/>
            <polygon class="cls-24" points="105.38 134.96 115.91 141.11 116.79 140.6 106.26 134.45 105.38 134.96"/>
            <polygon class="cls-24" points="66.2 112.47 74.83 117.44 75.71 116.94 67.08 111.97 66.2 112.47"/>
            <polygon class="cls-24" points="66.2 111.46 53.92 104.36 53.04 104.86 65.33 111.97 66.2 111.46"/>
            <g>
              <polygon class="cls-24" points="133.62 114.33 124 108.77 123.13 109.28 132.75 114.84 133.62 114.33"/>
              <polygon class="cls-24" points="134.5 114.84 133.62 115.34 146.03 122.51 146.91 122 134.5 114.84"/>
            </g>
            <g>
              <polygon class="cls-24" points="144.3 136.63 145.84 137.52 146.3 137.26 144.76 136.37 144.3 136.63"/>
              <polygon class="cls-24" points="144.3 136.1 136.5 131.6 136.04 131.87 143.84 136.37 144.3 136.1"/>
              <polygon class="cls-24" points="146.76 137.52 146.3 137.79 148.05 138.8 148.51 138.54 146.76 137.52"/>
            </g>
            <g>
              <polygon class="cls-24" points="143.14 133.78 142.68 134.05 149.49 137.98 149.95 137.71 143.14 133.78"/>
              <polygon class="cls-24" points="142.68 133.52 137.93 130.77 137.47 131.04 142.22 133.78 142.68 133.52"/>
            </g>
            <g>
              <polygon class="cls-24" points="141.17 130.99 139.36 129.95 138.9 130.21 140.71 131.25 141.17 130.99"/>
              <polygon class="cls-24" points="141.17 131.52 145.65 134.11 146.11 133.84 141.63 131.25 141.17 131.52"/>
              <polygon class="cls-24" points="146.57 134.11 146.11 134.37 150.92 137.15 151.38 136.88 146.57 134.11"/>
            </g>
            <polygon class="cls-24" points="151.92 125.44 155.56 127.55 156.02 127.28 152.38 125.18 151.92 125.44"/>
            <polygon class="cls-24" points="151.92 124.91 150.01 123.81 149.55 124.08 151.46 125.18 151.92 124.91"/>
            <g>
              <polygon class="cls-24" points="159.95 127.9 151.44 122.99 150.98 123.25 159.49 128.17 159.95 127.9"/>
              <polygon class="cls-24" points="160.41 128.17 159.95 128.43 163 130.19 163.46 129.92 160.41 128.17"/>
            </g>
            <g>
              <polygon class="cls-24" points="157.98 125.11 152.87 122.16 152.41 122.43 157.52 125.38 157.98 125.11"/>
              <polygon class="cls-24" points="158.44 125.38 157.98 125.64 164.43 129.36 164.89 129.1 158.44 125.38"/>
            </g>
            <g>
              <polygon class="cls-24" points="161.64 125.57 154.3 121.34 153.84 121.6 161.18 125.84 161.64 125.57"/>
              <polygon class="cls-24" points="162.1 125.84 161.64 126.1 165.86 128.54 166.32 128.27 162.1 125.84"/>
            </g>
            <g>
              <polygon class="cls-24" points="157.31 121.42 155.73 120.51 155.27 120.77 156.85 121.68 157.31 121.42"/>
              <polygon class="cls-24" points="157.31 121.95 160.62 123.86 161.08 123.59 157.77 121.68 157.31 121.95"/>
              <polygon class="cls-24" points="161.54 123.86 161.08 124.12 167.29 127.71 167.75 127.45 161.54 123.86"/>
            </g>
          </g>
          <polygon class="cls-24" points="60.37 100.15 98.11 121.94 122.76 107.7 85.03 85.92 60.37 100.15"/>
          <polygon class="cls-24" points="72.85 72.99 86.66 80.96 95.68 75.75 81.87 67.78 72.85 72.99"/>
          <g>
            <polygon class="cls-24" points="74.42 78.98 68.58 75.61 68.06 75.92 73.89 79.29 74.42 78.98"/>
            <polygon class="cls-24" points="74.94 79.29 74.42 79.59 81.78 83.84 82.3 83.54 74.94 79.29"/>
          </g>
          <g>
            <polygon class="cls-24" points="78.6 79.51 70.22 74.67 69.69 74.97 78.07 79.81 78.6 79.51"/>
            <polygon class="cls-24" points="79.12 79.81 78.6 80.12 83.41 82.9 83.94 82.59 79.12 79.81"/>
          </g>
          <g>
            <polygon class="cls-24" points="73.65 74.77 71.85 73.73 71.32 74.03 73.12 75.07 73.65 74.77"/>
            <polygon class="cls-24" points="73.65 75.37 77.42 77.55 77.95 77.25 74.17 75.07 73.65 75.37"/>
            <polygon class="cls-24" points="78.48 77.55 77.95 77.86 85.05 81.95 85.57 81.65 78.48 77.55"/>
          </g>
          <polygon class="cls-24" points="57.19 81.76 70.99 89.73 80.01 84.53 66.21 76.56 57.19 81.76"/>
          <g>
            <polygon class="cls-24" points="58.76 87.76 52.92 84.39 52.39 84.69 58.23 88.06 58.76 87.76"/>
            <polygon class="cls-24" points="59.28 88.06 58.76 88.37 66.11 92.61 66.64 92.31 59.28 88.06"/>
          </g>
          <g>
            <polygon class="cls-24" points="62.94 88.29 54.55 83.45 54.03 83.75 62.41 88.59 62.94 88.29"/>
            <polygon class="cls-24" points="63.46 88.59 62.94 88.89 67.75 91.67 68.27 91.37 63.46 88.59"/>
          </g>
          <g>
            <polygon class="cls-24" points="57.98 83.54 56.19 82.5 55.66 82.81 57.46 83.84 57.98 83.54"/>
            <polygon class="cls-24" points="57.98 84.15 61.76 86.33 62.29 86.02 58.51 83.84 57.98 84.15"/>
            <polygon class="cls-24" points="62.81 86.33 62.29 86.63 69.38 90.73 69.91 90.42 62.81 86.33"/>
          </g>
          <polygon class="cls-24" points="41.86 90.7 55.66 98.67 64.68 93.46 50.88 85.49 41.86 90.7"/>
          <polygon class="cls-24" points="33.56 98.49 33.56 101.29 47.37 109.32 47.37 106.46 48.35 104 34.55 96.03 33.56 98.49"/>
          <g>
            <polygon class="cls-24" points="43.43 96.7 37.59 93.32 37.06 93.63 42.9 97 43.43 96.7"/>
            <polygon class="cls-24" points="43.95 97 43.43 97.3 50.78 101.55 51.31 101.25 43.95 97"/>
          </g>
          <g>
            <polygon class="cls-24" points="47.61 97.22 39.22 92.38 38.7 92.68 47.08 97.52 47.61 97.22"/>
            <polygon class="cls-24" points="48.13 97.52 47.61 97.83 52.42 100.61 52.94 100.3 48.13 97.52"/>
          </g>
          <g>
            <polygon class="cls-24" points="42.66 92.48 40.86 91.44 40.33 91.74 42.13 92.78 42.66 92.48"/>
            <polygon class="cls-24" points="42.66 93.08 46.43 95.26 46.96 94.96 43.18 92.78 42.66 93.08"/>
            <polygon class="cls-24" points="47.48 95.26 46.96 95.57 54.05 99.66 54.58 99.36 47.48 95.26"/>
          </g>
          <polygon class="cls-11" points="130.18 157.44 30.72 99.64 30.71 96.73 130.17 154.53 130.18 157.44"/>
          <polygon class="cls-17" points="130.17 154.53 30.71 96.73 32.46 93.52 131.92 151.32 130.17 154.53"/>
          <polygon class="cls-9" points="198.82 116.68 199.98 116.02 199.97 112.03 131.92 151.32 130.17 154.53 130.18 157.44 131.94 158.62 136.55 159.91 142.69 159.68 207.39 121.79 198.82 116.68"/>
        </g>
        <g>
          <polygon class="cls-21" points="242.39 96.17 191.43 66.72 161.9 83.88 161.9 84.51 212.86 113.96 242.39 96.8 242.39 96.17 242.39 96.17"/>
          <g>
            <polygon class="cls-18" points="206.23 108.33 208.75 109.78 209.06 109.6 206.55 108.15 206.23 108.33"/>
            <polygon class="cls-18" points="206.23 107.96 204.92 107.2 204.6 107.39 205.92 108.15 206.23 107.96"/>
            <polygon class="cls-18" points="211.78 110.03 205.91 106.63 205.59 106.82 211.46 110.21 211.78 110.03"/>
            <polygon class="cls-18" points="212.1 110.21 211.78 110.39 213.88 111.61 214.2 111.42 212.1 110.21"/>
          </g>
          <g>
            <polygon class="cls-9" points="242.39 96.36 242.39 96.17 212.86 113.33 212.86 113.96 213.83 113.96 243.3 96.83 242.39 96.36"/>
            <g class="cls-33">
              <polygon class="cls-26" points="212.86 113.33 212.86 113.96 161.9 84.51 161.9 83.88 212.86 113.33"/>
            </g>
          </g>
          <g>
            <polygon class="cls-18" points="204.35 88.44 204.35 88.76 191.43 66.72 204.35 88.44"/>
            <polygon class="cls-9" points="204.35 88.44 204.35 88.76 207.25 89.66 242.39 96.17 204.35 88.44"/>
          </g>
        </g>
      </g>
    </g>
  </g>
</svg>