<?xml version="1.0" encoding="UTF-8"?>
<svg xmlns="http://www.w3.org/2000/svg" xmlns:xlink="http://www.w3.org/1999/xlink" viewBox="0 0 260.87 234.28">
  <defs>
    <style>
      .cls-1, .cls-2, .cls-3, .cls-4, .cls-5, .cls-6, .cls-7, .cls-8, .cls-9, .cls-10, .cls-11, .cls-12, .cls-13, .cls-14, .cls-15, .cls-16, .cls-17, .cls-18, .cls-19, .cls-20, .cls-21, .cls-22, .cls-23, .cls-24, .cls-25, .cls-26, .cls-27, .cls-28, .cls-29, .cls-30, .cls-31 {
        stroke-width: 0px;
      }

      .cls-1, .cls-10, .cls-12, .cls-13, .cls-16, .cls-23, .cls-31 {
        fill: #a17e85;
      }

      .cls-1, .cls-32 {
        mix-blend-mode: screen;
      }

      .cls-1, .cls-13 {
        opacity: .5;
      }

      .cls-33 {
        mask: url(#mask-11);
      }

      .cls-34 {
        mask: url(#mask-10);
      }

      .cls-35 {
        filter: url(#luminosity-noclip-9);
      }

      .cls-36 {
        filter: url(#luminosity-noclip-7);
      }

      .cls-37 {
        filter: url(#luminosity-noclip-3);
      }

      .cls-38 {
        filter: url(#luminosity-noclip-5);
      }

      .cls-2 {
        fill: url(#Fading_Sky_3);
      }

      .cls-2, .cls-3, .cls-4, .cls-5, .cls-6, .cls-7, .cls-8, .cls-39, .cls-10, .cls-11, .cls-12, .cls-13, .cls-14, .cls-40, .cls-41, .cls-15, .cls-16, .cls-42, .cls-31 {
        mix-blend-mode: multiply;
      }

      .cls-3 {
        fill: url(#Fading_Sky_7);
      }

      .cls-4 {
        fill: url(#Fading_Sky_4);
      }

      .cls-5 {
        fill: url(#Fading_Sky_2);
      }

      .cls-6 {
        fill: url(#Fading_Sky_5);
      }

      .cls-7 {
        fill: url(#Fading_Sky_6);
      }

      .cls-43 {
        mask: url(#mask);
      }

      .cls-44 {
        filter: url(#luminosity-noclip);
      }

      .cls-8 {
        opacity: .7;
      }

      .cls-8, .cls-14, .cls-22 {
        fill: #ba9aa3;
      }

      .cls-45 {
        filter: url(#luminosity-noclip-11);
      }

      .cls-9 {
        fill: url(#Fading_Sky);
      }

      .cls-10, .cls-11, .cls-32, .cls-40 {
        opacity: .3;
      }

      .cls-11, .cls-15 {
        fill: #fff;
      }

      .cls-12 {
        opacity: .15;
      }

      .cls-14, .cls-41 {
        opacity: .2;
      }

      .cls-46 {
        isolation: isolate;
      }

      .cls-15, .cls-16, .cls-42 {
        opacity: .8;
      }

      .cls-47 {
        mask: url(#mask-3);
      }

      .cls-48 {
        mask: url(#mask-2);
      }

      .cls-49 {
        mask: url(#mask-5);
      }

      .cls-50 {
        mask: url(#mask-4);
      }

      .cls-51 {
        mask: url(#mask-1);
      }

      .cls-52 {
        mask: url(#mask-7);
      }

      .cls-53 {
        mask: url(#mask-6);
      }

      .cls-54 {
        mask: url(#mask-8);
      }

      .cls-55 {
        mask: url(#mask-9);
      }

      .cls-17 {
        fill: #f7efe7;
      }

      .cls-18 {
        fill: #79cbed;
      }

      .cls-19 {
        fill: #414042;
      }

      .cls-20 {
        fill: #d1c0b0;
      }

      .cls-21 {
        fill: #addced;
      }

      .cls-24 {
        fill: #ffb661;
      }

      .cls-25 {
        fill: #ffc887;
      }

      .cls-26 {
        fill: url(#Fading_Sky-6);
      }

      .cls-27 {
        fill: url(#Fading_Sky-3);
      }

      .cls-28 {
        fill: url(#Fading_Sky-2);
      }

      .cls-29 {
        fill: url(#Fading_Sky-5);
      }

      .cls-30 {
        fill: url(#Fading_Sky-4);
      }

      .cls-31 {
        opacity: .4;
      }
    </style>
    <filter id="luminosity-noclip" x="65.28" y="93.83" width="14.88" height="15.52" color-interpolation-filters="sRGB" filterUnits="userSpaceOnUse">
      <feFlood flood-color="#fff" result="bg"/>
      <feBlend in="SourceGraphic" in2="bg"/>
    </filter>
    <filter id="luminosity-noclip-2" x="65.28" y="-8417" width="14.88" height="32766" color-interpolation-filters="sRGB" filterUnits="userSpaceOnUse">
      <feFlood flood-color="#fff" result="bg"/>
      <feBlend in="SourceGraphic" in2="bg"/>
    </filter>
    <mask id="mask-1" x="65.28" y="-8417" width="14.88" height="32766" maskUnits="userSpaceOnUse"/>
    <linearGradient id="Fading_Sky_7" data-name="Fading Sky 7" x1="65.28" y1="101.59" x2="80.16" y2="101.59" gradientUnits="userSpaceOnUse">
      <stop offset="0" stop-color="#fff"/>
      <stop offset="1" stop-color="#000"/>
    </linearGradient>
    <mask id="mask" x="65.28" y="93.83" width="14.88" height="15.52" maskUnits="userSpaceOnUse">
      <g class="cls-44">
        <g class="cls-51">
          <polygon class="cls-3" points="80.14 109.16 79.77 109.35 65.89 101.34 65.28 100.27 65.29 94.04 65.66 93.83 79.54 101.84 80.16 102.91 80.14 109.16"/>
        </g>
      </g>
    </mask>
    <linearGradient id="Fading_Sky" data-name="Fading Sky" x1="65.28" y1="101.59" x2="80.16" y2="101.59" gradientUnits="userSpaceOnUse">
      <stop offset="0" stop-color="#2484c6"/>
      <stop offset="1" stop-color="#2484c6"/>
    </linearGradient>
    <filter id="luminosity-noclip-3" x="88.14" y="106.99" width="14.99" height="15.58" color-interpolation-filters="sRGB" filterUnits="userSpaceOnUse">
      <feFlood flood-color="#fff" result="bg"/>
      <feBlend in="SourceGraphic" in2="bg"/>
    </filter>
    <filter id="luminosity-noclip-4" x="88.14" y="-8417" width="14.99" height="32766" color-interpolation-filters="sRGB" filterUnits="userSpaceOnUse">
      <feFlood flood-color="#fff" result="bg"/>
      <feBlend in="SourceGraphic" in2="bg"/>
    </filter>
    <mask id="mask-3" x="88.14" y="-8417" width="14.99" height="32766" maskUnits="userSpaceOnUse"/>
    <linearGradient id="Fading_Sky_6" data-name="Fading Sky 6" x1="88.14" y1="114.78" x2="103.12" y2="114.78" gradientUnits="userSpaceOnUse">
      <stop offset="0" stop-color="#fff"/>
      <stop offset="1" stop-color="#000"/>
    </linearGradient>
    <mask id="mask-2" x="88.14" y="106.99" width="14.99" height="15.58" maskUnits="userSpaceOnUse">
      <g class="cls-37">
        <g class="cls-47">
          <polygon class="cls-7" points="103.11 122.26 103 122.36 102.63 122.57 88.75 114.56 88.14 113.49 88.15 107.24 88.58 106.99 102.51 115.03 103.12 116.1 103.11 122.26"/>
        </g>
      </g>
    </mask>
    <linearGradient id="Fading_Sky-2" data-name="Fading Sky" x1="88.14" y1="114.78" x2="103.12" y2="114.78" xlink:href="#Fading_Sky"/>
    <filter id="luminosity-noclip-5" x="88.14" y="106.99" width="5.52" height="10.4" color-interpolation-filters="sRGB" filterUnits="userSpaceOnUse">
      <feFlood flood-color="#fff" result="bg"/>
      <feBlend in="SourceGraphic" in2="bg"/>
    </filter>
    <filter id="luminosity-noclip-6" x="88.14" y="-8417" width="5.52" height="32766" color-interpolation-filters="sRGB" filterUnits="userSpaceOnUse">
      <feFlood flood-color="#fff" result="bg"/>
      <feBlend in="SourceGraphic" in2="bg"/>
    </filter>
    <mask id="mask-5" x="88.14" y="-8417" width="5.52" height="32766" maskUnits="userSpaceOnUse"/>
    <linearGradient id="Fading_Sky_5" data-name="Fading Sky 5" x1="88.14" y1="112.19" x2="93.66" y2="112.19" gradientUnits="userSpaceOnUse">
      <stop offset="0" stop-color="#fff"/>
      <stop offset="1" stop-color="#000"/>
    </linearGradient>
    <mask id="mask-4" x="88.14" y="106.99" width="5.52" height="10.4" maskUnits="userSpaceOnUse">
      <g class="cls-38">
        <g class="cls-49">
          <polygon class="cls-6" points="93.66 117.39 88.75 114.56 88.14 113.49 88.15 107.24 88.58 106.99 91.48 108.67 93.66 117.39"/>
        </g>
      </g>
    </mask>
    <linearGradient id="Fading_Sky-3" data-name="Fading Sky" x1="88.14" y1="112.19" x2="93.66" y2="112.19" xlink:href="#Fading_Sky"/>
    <filter id="luminosity-noclip-7" x="92.8" y="109.43" width="4.55" height="10.09" color-interpolation-filters="sRGB" filterUnits="userSpaceOnUse">
      <feFlood flood-color="#fff" result="bg"/>
      <feBlend in="SourceGraphic" in2="bg"/>
    </filter>
    <filter id="luminosity-noclip-8" x="92.8" y="-8417" width="4.55" height="32766" color-interpolation-filters="sRGB" filterUnits="userSpaceOnUse">
      <feFlood flood-color="#fff" result="bg"/>
      <feBlend in="SourceGraphic" in2="bg"/>
    </filter>
    <mask id="mask-7" x="92.8" y="-8417" width="4.55" height="32766" maskUnits="userSpaceOnUse"/>
    <linearGradient id="Fading_Sky_4" data-name="Fading Sky 4" x1="92.8" y1="114.47" x2="97.34" y2="114.47" gradientUnits="userSpaceOnUse">
      <stop offset="0" stop-color="#fff"/>
      <stop offset="1" stop-color="#000"/>
    </linearGradient>
    <mask id="mask-6" x="92.8" y="109.43" width="4.55" height="10.09" maskUnits="userSpaceOnUse">
      <g class="cls-36">
        <g class="cls-52">
          <polygon class="cls-4" points="97.34 119.52 94.98 118.15 92.8 109.43 95.16 110.79 97.34 119.52"/>
        </g>
      </g>
    </mask>
    <linearGradient id="Fading_Sky-4" data-name="Fading Sky" x1="92.8" y1="114.47" x2="97.34" y2="114.47" xlink:href="#Fading_Sky"/>
    <filter id="luminosity-noclip-9" x="65.28" y="93.83" width="5.18" height="10.14" color-interpolation-filters="sRGB" filterUnits="userSpaceOnUse">
      <feFlood flood-color="#fff" result="bg"/>
      <feBlend in="SourceGraphic" in2="bg"/>
    </filter>
    <filter id="luminosity-noclip-10" x="65.28" y="-8417" width="5.18" height="32766" color-interpolation-filters="sRGB" filterUnits="userSpaceOnUse">
      <feFlood flood-color="#fff" result="bg"/>
      <feBlend in="SourceGraphic" in2="bg"/>
    </filter>
    <mask id="mask-9" x="65.28" y="-8417" width="5.18" height="32766" maskUnits="userSpaceOnUse"/>
    <linearGradient id="Fading_Sky_3" data-name="Fading Sky 3" x1="65.28" y1="98.9" x2="70.46" y2="98.9" gradientUnits="userSpaceOnUse">
      <stop offset="0" stop-color="#fff"/>
      <stop offset="1" stop-color="#000"/>
    </linearGradient>
    <mask id="mask-8" x="65.28" y="93.83" width="5.18" height="10.14" maskUnits="userSpaceOnUse">
      <g class="cls-35">
        <g class="cls-55">
          <polygon class="cls-2" points="70.46 103.97 65.89 101.34 65.28 100.27 65.29 94.04 65.66 93.83 68.31 95.35 70.46 103.97"/>
        </g>
      </g>
    </mask>
    <linearGradient id="Fading_Sky-5" data-name="Fading Sky" y1="98.9" x2="70.46" y2="98.9" xlink:href="#Fading_Sky"/>
    <filter id="luminosity-noclip-11" x="69.62" y="96.11" width="4.52" height="9.98" color-interpolation-filters="sRGB" filterUnits="userSpaceOnUse">
      <feFlood flood-color="#fff" result="bg"/>
      <feBlend in="SourceGraphic" in2="bg"/>
    </filter>
    <filter id="luminosity-noclip-12" x="69.62" y="-8417" width="4.52" height="32766" color-interpolation-filters="sRGB" filterUnits="userSpaceOnUse">
      <feFlood flood-color="#fff" result="bg"/>
      <feBlend in="SourceGraphic" in2="bg"/>
    </filter>
    <mask id="mask-11" x="69.62" y="-8417" width="4.52" height="32766" maskUnits="userSpaceOnUse"/>
    <linearGradient id="Fading_Sky_2" data-name="Fading Sky 2" x1="69.62" y1="101.11" x2="74.14" y2="101.11" gradientUnits="userSpaceOnUse">
      <stop offset="0" stop-color="#fff"/>
      <stop offset="1" stop-color="#000"/>
    </linearGradient>
    <mask id="mask-10" x="69.62" y="96.11" width="4.52" height="9.98" maskUnits="userSpaceOnUse">
      <g class="cls-45">
        <g class="cls-33">
          <polygon class="cls-5" points="74.14 106.1 71.77 104.73 69.62 96.11 71.99 97.48 74.14 106.1"/>
        </g>
      </g>
    </mask>
    <linearGradient id="Fading_Sky-6" data-name="Fading Sky" x1="69.62" y1="101.11" x2="74.14" y2="101.11" xlink:href="#Fading_Sky"/>
  </defs>
  <g class="cls-46">
    <g id="Layer_1" data-name="Layer 1">
      <g>
        <g>
          <polygon class="cls-17" points="171.57 145.8 141.01 163.56 141.01 164.21 193.75 194.69 224.31 176.93 224.32 176.28 171.57 145.8"/>
          <g>
            <g class="cls-41">
              <polygon class="cls-22" points="199.08 165.87 198.51 166.2 169.67 149.55 170.24 149.22 199.08 165.87"/>
            </g>
            <g class="cls-41">
              <polygon class="cls-22" points="197.24 166.94 196.67 167.27 167.83 150.62 168.4 150.29 197.24 166.94"/>
            </g>
            <g class="cls-41">
              <polygon class="cls-22" points="195.4 168.01 194.83 168.34 165.99 151.69 166.56 151.36 195.4 168.01"/>
            </g>
            <g class="cls-41">
              <path class="cls-22" d="M219.35,175.85s.02.05.04.07c-.02.05-.02.11.01.16-.13.01-.24.04-.33.09-.09.05-.13.12-.13.18l-.1.06c-.11,0-.23.03-.31.08s-.13.12-.13.18l-.1.06c-.11,0-.23.03-.31.08-.09.05-.13.12-.13.18l-.1.06c-.11,0-.23.03-.31.08-.09.05-.13.12-.13.18l-.1.06c-.11,0-.23.03-.31.08-.09.05-.13.12-.13.18l-.1.06c-.11,0-.23.03-.31.08-.09.05-.13.12-.13.18l-.1.06c-.11,0-.23.03-.31.08s-.13.12-.13.18l-.1.06c-.11,0-.23.03-.31.08s-.13.12-.13.18l-.1.06c-.11,0-.23.03-.31.08-.09.05-.13.12-.13.18l-.1.06c-.11,0-.23.03-.31.08-.09.05-.13.12-.13.18l-.1.06c-.11,0-.23.03-.31.08-.09.05-.13.12-.13.18l-.1.06c-.11,0-.23.03-.31.08-.09.05-.13.12-.13.18l-.1.06c-.11,0-.23.03-.31.08-.09.05-.13.12-.13.18l-.1.06c-.11,0-.23.03-.31.08-.09.05-.13.12-.13.18l-.1.06c-.11,0-.23.03-.31.08-.09.05-.13.12-.13.18l-.1.06c-.11,0-.23.03-.31.08s-.13.12-.13.18l-.14.08s-.1-.02-.15-.02c-.02-.02-.04-.04-.07-.05-.09-.05-.22-.08-.34-.08l-.13-.07c0-.07-.04-.14-.14-.19-.09-.05-.22-.08-.34-.08l-.13-.07c0-.07-.04-.14-.14-.19-.09-.05-.21-.08-.34-.08l-.13-.07c0-.07-.04-.14-.14-.19-.09-.05-.22-.08-.34-.08l-.13-.07c0-.07-.04-.14-.14-.2-.09-.05-.22-.08-.34-.08l-.13-.07c0-.07-.04-.14-.14-.19-.09-.05-.22-.08-.34-.08l-.13-.07c0-.07-.04-.14-.14-.19-.09-.05-.22-.08-.34-.08l-.13-.07c0-.07-.04-.14-.14-.19-.09-.05-.22-.08-.34-.08l-.13-.07c0-.07-.04-.14-.14-.19-.09-.05-.21-.08-.34-.08l-.13-.07c0-.07-.04-.14-.14-.19-.09-.05-.21-.08-.34-.08l-.1-.06c.05-.06.06-.12.03-.19l.18-.1c.09,0,.19-.03.26-.08.07-.04.11-.1.13-.15l.16-.09c.09,0,.19-.03.26-.08.07-.04.11-.1.13-.15l.16-.09c.09,0,.19-.03.26-.08.07-.04.11-.1.13-.15l.16-.09c.09,0,.19-.03.26-.08.07-.04.11-.1.13-.15l.16-.09c.09,0,.19-.03.26-.08.07-.04.11-.1.13-.15l.16-.09c.09,0,.19-.03.26-.08.07-.04.11-.1.13-.15l.16-.09c.09,0,.19-.03.26-.08.07-.04.11-.1.13-.15l.16-.09c.09,0,.19-.03.26-.08.07-.04.11-.1.13-.15l.16-.09c.09,0,.19-.03.26-.08.07-.04.11-.1.13-.15l.16-.09c.09,0,.19-.03.26-.08.07-.04.11-.1.13-.15l.16-.09c.09,0,.19-.03.26-.08.07-.04.11-.1.13-.15l.16-.09c.09,0,.19-.03.26-.08.07-.04.11-.1.13-.15l.16-.09c.09,0,.19-.03.26-.08.07-.04.11-.1.13-.15l.16-.09c.09,0,.19-.03.26-.08.07-.04.11-.1.13-.15l.16-.09c.09,0,.19-.03.26-.08.07-.04.11-.1.13-.15l.16-.09c.09,0,.19-.03.26-.08.07-.04.12-.1.13-.15l.06-.04c.08.01.16.01.24,0l.09.05c.02.05.06.1.13.14.07.04.16.06.25.07l.13.08c.02.05.06.1.13.14.07.04.16.06.25.07l.13.08c.02.05.06.1.13.14.07.04.16.07.25.07l.13.08c.02.05.06.1.13.14.07.04.16.06.25.07l.13.08c.02.05.06.1.13.14.07.04.16.07.25.07l.13.08c.02.05.06.1.13.14.07.04.16.07.25.07l.13.08c.02.05.06.1.13.14.07.04.16.06.25.07l.14.08c.02.05.06.1.13.14.07.04.16.07.25.07l.13.08c.02.05.06.1.13.14.07.04.16.07.25.07l.13.08c.02.05.06.1.13.14.07.04.16.06.25.07l.14.08c.02.05.06.1.13.14.07.04.16.07.25.07l.13.08Z"/>
            </g>
          </g>
          <g>
            <polygon class="cls-8" points="224.32 176.47 224.32 176.28 193.76 194.04 193.75 194.69 194.76 194.69 225.26 176.97 224.32 176.47"/>
            <g class="cls-41">
              <polygon class="cls-22" points="193.76 194.04 193.75 194.69 141.01 164.21 141.01 163.56 193.76 194.04"/>
            </g>
          </g>
        </g>
        <g>
          <polygon class="cls-17" points="64.1 191.65 64.1 192.3 94.3 209.85 94.3 209.2 64.1 191.65"/>
          <g class="cls-40">
            <polygon class="cls-23" points="64.1 191.65 64.1 192.3 94.3 209.85 94.3 209.2 64.1 191.65"/>
          </g>
          <path class="cls-17" d="M64.1,191.65l30.2,17.55,52.13-30.12-30.2-17.55-52.13,30.12Z"/>
          <polygon class="cls-17" points="94.3 209.2 94.3 209.85 146.43 179.73 146.43 179.08 94.3 209.2"/>
          <g class="cls-42">
            <polygon class="cls-23" points="94.3 209.2 94.3 209.85 146.43 179.73 146.43 179.08 94.3 209.2"/>
          </g>
          <g class="cls-42">
            <polygon class="cls-23" points="95.23 209.85 94.3 209.85 146.43 179.73 146.43 179.28 147.32 179.75 95.23 209.85"/>
          </g>
          <polygon class="cls-17" points="103.01 183.74 103.01 184.07 116.22 161.53 103.01 183.74"/>
          <g class="cls-42">
            <polygon class="cls-23" points="103.01 183.74 103.01 184.07 116.22 161.53 103.01 183.74"/>
          </g>
          <g class="cls-42">
            <polygon class="cls-23" points="103.51 183.96 103.01 184.07 116.22 161.53 103.51 183.96"/>
          </g>
          <polygon class="cls-17" points="64.1 191.65 103.01 184.07 103.01 183.74 64.1 191.65"/>
          <g class="cls-40">
            <polygon class="cls-23" points="64.1 191.65 103.01 184.07 103.01 183.74 64.1 191.65"/>
          </g>
          <polygon class="cls-20" points="138.25 182.07 135.68 183.56 135.36 183.37 137.93 181.88 138.25 182.07"/>
          <polygon class="cls-20" points="138.25 181.7 139.6 180.92 139.92 181.11 138.58 181.88 138.25 181.7"/>
          <polygon class="cls-20" points="136.93 181.34 142.94 177.87 143.26 178.05 137.25 181.52 136.93 181.34"/>
          <polygon class="cls-20" points="136.6 181.52 136.93 181.71 134.78 182.95 134.45 182.77 136.6 181.52"/>
        </g>
        <g>
          <polygon class="cls-17" points="166.41 98.1 135.85 115.86 135.85 116.52 188.59 147 219.15 129.24 219.15 128.58 166.41 98.1"/>
          <g>
            <g class="cls-41">
              <polygon class="cls-22" points="193.91 118.17 193.35 118.5 164.51 101.85 165.08 101.52 193.91 118.17"/>
            </g>
            <g class="cls-41">
              <polygon class="cls-22" points="192.07 119.24 191.51 119.57 162.67 102.92 163.24 102.59 192.07 119.24"/>
            </g>
            <g class="cls-41">
              <polygon class="cls-22" points="190.24 120.31 189.67 120.64 160.83 103.99 161.4 103.66 190.24 120.31"/>
            </g>
            <g class="cls-41">
              <path class="cls-22" d="M214.19,128.16s.02.05.04.07c-.02.05-.02.11.01.16-.13.01-.25.04-.33.09-.09.05-.13.12-.13.18l-.1.06c-.11,0-.23.03-.31.08s-.13.12-.13.18l-.1.06c-.11,0-.23.03-.31.08-.09.05-.13.12-.13.18l-.1.06c-.11,0-.23.03-.31.08-.09.05-.13.12-.13.18l-.1.06c-.11,0-.23.03-.31.08-.09.05-.13.12-.13.18l-.1.06c-.11,0-.23.03-.31.08-.09.05-.13.12-.13.18l-.1.06c-.11,0-.23.03-.31.08-.09.05-.13.12-.13.18l-.1.06c-.11,0-.23.03-.31.08-.09.05-.13.12-.13.18l-.1.06c-.11,0-.23.03-.31.08-.09.05-.13.12-.13.18l-.1.06c-.11,0-.23.03-.31.08-.09.05-.13.12-.13.18l-.1.06c-.11,0-.23.03-.31.08-.09.05-.13.12-.13.18l-.1.06c-.11,0-.23.03-.31.08-.09.05-.13.12-.13.18l-.1.06c-.11,0-.23.03-.31.08-.09.05-.13.12-.13.18l-.1.06c-.11,0-.23.03-.31.08-.09.05-.13.12-.13.18l-.1.06c-.11,0-.23.03-.31.08s-.13.12-.13.18l-.1.06c-.11,0-.23.03-.31.08-.09.05-.13.12-.13.18l-.14.08s-.1-.02-.15-.02c-.02-.02-.04-.04-.07-.05-.09-.05-.21-.08-.34-.08l-.13-.07c0-.07-.04-.14-.14-.19-.09-.05-.22-.08-.34-.08l-.13-.07c0-.07-.04-.14-.14-.19-.09-.05-.22-.08-.34-.08l-.13-.07c0-.07-.04-.14-.14-.19-.09-.05-.22-.08-.34-.08l-.13-.07c0-.07-.04-.14-.14-.2-.09-.05-.22-.08-.34-.08l-.13-.07c0-.07-.04-.14-.14-.19-.09-.05-.22-.08-.34-.08l-.13-.07c0-.07-.04-.14-.14-.19-.09-.05-.22-.08-.34-.08l-.13-.07c0-.07-.04-.14-.14-.19-.09-.05-.22-.08-.34-.08l-.13-.07c0-.07-.04-.14-.14-.19-.09-.05-.22-.08-.34-.08l-.13-.07c0-.07-.04-.14-.14-.19-.09-.05-.22-.08-.34-.08l-.1-.06c.05-.06.06-.12.03-.19l.18-.1c.09,0,.19-.03.26-.08.07-.04.11-.1.13-.15l.16-.09c.09,0,.19-.03.26-.08.07-.04.11-.1.13-.15l.16-.09c.09,0,.19-.03.26-.08.07-.04.11-.1.13-.15l.16-.09c.09,0,.19-.03.26-.08.07-.04.11-.1.13-.15l.16-.09c.09,0,.19-.03.26-.08.07-.04.11-.1.13-.15l.16-.09c.09,0,.19-.03.26-.08.07-.04.11-.1.13-.15l.16-.09c.09,0,.19-.03.26-.08.07-.04.11-.1.13-.15l.16-.09c.09,0,.19-.03.26-.08.07-.04.11-.1.13-.15l.16-.09c.09,0,.19-.03.26-.08.07-.04.11-.1.13-.15l.16-.09c.09,0,.19-.03.26-.08.07-.04.11-.1.13-.15l.16-.09c.09,0,.19-.03.26-.08.07-.04.11-.1.13-.15l.16-.09c.09,0,.19-.03.26-.08.07-.04.11-.1.13-.15l.16-.09c.09,0,.19-.03.26-.08.07-.04.11-.1.13-.15l.16-.09c.09,0,.19-.03.26-.08.07-.04.11-.1.13-.15l.16-.09c.09,0,.19-.03.26-.08.07-.04.11-.1.13-.15l.16-.09c.09,0,.19-.03.26-.08.07-.04.12-.1.13-.15l.06-.04c.08.01.16.01.24,0l.09.05c.02.05.06.1.13.14.07.04.16.06.25.07l.13.08c.02.05.06.1.13.14.07.04.16.06.25.07l.13.08c.02.05.06.1.13.14.07.04.16.07.25.07l.13.08c.02.05.06.1.13.14.07.04.16.06.25.07l.13.08c.02.05.06.1.13.14.07.04.16.07.25.07l.13.08c.02.05.06.1.13.14.07.04.16.07.25.07l.13.08c.02.05.06.1.13.14.07.04.16.06.25.07l.14.08c.02.05.06.1.13.14.07.04.16.07.25.07l.13.08c.02.05.06.1.13.14.07.04.16.07.25.07l.13.08c.02.05.06.1.13.14.07.04.16.06.25.07l.14.08c.02.05.06.1.13.14.07.04.16.07.25.07l.13.08Z"/>
            </g>
          </g>
          <g>
            <polygon class="cls-8" points="219.15 128.78 219.15 128.58 188.59 146.34 188.59 147 189.6 147 220.09 129.27 219.15 128.78"/>
            <g class="cls-41">
              <polygon class="cls-22" points="188.59 146.34 188.59 147 135.85 116.52 135.85 115.86 188.59 146.34"/>
            </g>
          </g>
        </g>
        <g>
          <polygon class="cls-24" points="262.79 143.16 262.79 143.67 193.57 184.15 193.57 183.39 262.79 143.16"/>
          <polygon class="cls-24" points="193.57 183.39 193.57 184.15 147.27 157.3 147.27 156.66 193.57 183.39"/>
          <polygon class="cls-14" points="193.57 183.39 193.57 184.15 147.27 157.3 147.27 156.66 193.57 183.39"/>
          <polygon class="cls-24" points="262.79 143.16 193.57 183.39 147.27 156.66 216.5 116.43 262.79 143.16"/>
          <polygon class="cls-17" points="245.15 146.54 192.95 176.88 158.03 156.72 210.24 126.38 245.15 146.54"/>
          <g>
            <polygon class="cls-20" points="198.35 142.4 169.19 159.24 165.98 157.39 195.15 140.55 198.35 142.4"/>
            <polygon class="cls-20" points="216.04 136.47 172.9 161.38 171.81 160.75 214.95 135.84 216.04 136.47"/>
            <polygon class="cls-20" points="216.44 139.1 175.37 162.81 174.28 162.18 215.35 138.47 216.44 139.1"/>
            <polygon class="cls-20" points="220.99 139.33 177.85 164.24 176.76 163.61 219.89 138.7 220.99 139.33"/>
            <polygon class="cls-20" points="221.39 141.95 180.32 165.67 179.23 165.04 220.3 141.32 221.39 141.95"/>
            <polygon class="cls-20" points="220.02 145.6 182.8 167.09 181.7 166.47 218.93 144.97 220.02 145.6"/>
            <polygon class="cls-20" points="204.59 157.37 185.27 168.52 184.18 167.89 203.5 156.74 204.59 157.37"/>
          </g>
          <g class="cls-39">
            <path class="cls-8" d="M230.59,152.89l4.49,2.59,11.35-6.56-4.49-2.59-11.35,6.56ZM245.75,148.93l-10.67,6.16-3.81-2.2,10.67-6.16,3.81,2.2Z"/>
            <polygon class="cls-8" points="235.64 151.1 232.67 152.82 233.44 153.27 236.41 151.55 235.64 151.1"/>
            <polygon class="cls-8" points="241.87 147.51 236.57 150.56 237.34 151.01 242.64 147.95 241.87 147.51"/>
            <polygon class="cls-8" points="239.16 150.92 234.27 153.74 235.04 154.19 239.93 151.36 239.16 150.92"/>
          </g>
          <g class="cls-39">
            <path class="cls-8" d="M218.22,157.08l-2.4,1.39,5.59,3.23,2.4-1.39,4.69-2.71,4.27-2.46-5.59-3.23-4.27,2.46-4.69,2.71ZM221.42,161.29l-4.91-2.83,1.71-.99,4.91,2.83-1.71.99ZM223.47,160.11l-4.91-2.83,4.69-2.71,4.91,2.83-4.69,2.71ZM227.18,152.3l4.91,2.83-3.58,2.07-4.91-2.83,3.58-2.07Z"/>
            <polygon class="cls-8" points="223.53 155.29 219.87 157.4 220.3 157.65 223.96 155.54 223.53 155.29"/>
            <polygon class="cls-8" points="223.22 156.54 220.8 157.94 221.23 158.18 223.65 156.79 223.22 156.54"/>
            <polygon class="cls-8" points="221.73 158.47 222.16 158.72 226.03 156.48 225.6 156.24 221.73 158.47"/>
            <polygon class="cls-8" points="223.09 159.26 226.49 157.29 226.06 157.04 222.66 159.01 223.09 159.26"/>
            <polygon class="cls-8" points="229.3 154.78 227.2 155.99 227.63 156.24 229.73 155.03 229.3 154.78"/>
            <polygon class="cls-8" points="228.99 153.59 226.02 155.31 226.45 155.56 229.42 153.84 228.99 153.59"/>
            <polygon class="cls-8" points="226.96 153.56 224.97 154.7 225.4 154.95 227.38 153.81 226.96 153.56"/>
            <polygon class="cls-8" points="219.71 159.67 220.32 159.32 218.84 158.46 218.23 158.81 219.71 159.67"/>
          </g>
          <polygon class="cls-8" points="262.79 143.31 262.79 143.67 262.79 143.16 193.57 183.39 193.57 184.15 194.86 184.15 263.95 143.99 262.79 143.31"/>
          <g class="cls-42">
            <path class="cls-8" d="M199.09,178.75c-3.05,1.76-8,1.76-11.05,0-3.05-1.76-3.05-4.62,0-6.38,3.05-1.76,8-1.76,11.05,0,3.05,1.76,3.05,4.62,0,6.38ZM188.67,172.73c-2.7,1.56-2.7,4.1,0,5.66,2.7,1.56,7.1,1.56,9.81,0,2.7-1.56,2.7-4.1,0-5.66-2.7-1.56-7.1-1.56-9.81,0Z"/>
            <path class="cls-8" d="M197.23,177.68l-1.24-.72c1.17-.68,1.34-1.74.39-2.52l1.44-.58c1.43,1.19,1.18,2.79-.59,3.82Z"/>
            <path class="cls-8" d="M190.77,176.7l-1.44.58c-1.45-1.19-1.21-2.8.58-3.83,1.71-.99,4.43-1.16,6.46-.4l-.95.85c-1.34-.5-3.14-.39-4.27.27-1.18.68-1.34,1.75-.38,2.53Z"/>
            <path class="cls-8" d="M193.69,178.55c-1.17.02-2.32-.2-3.25-.61l1.06-.81c.61.27,1.37.41,2.15.4l.04,1.01Z"/>
          </g>
          <polygon class="cls-8" points="252.36 144.02 252.36 144.42 213.54 122.01 213.27 122.64 252.36 145.22 253.52 145.54 262.79 143.16 252.36 144.02"/>
          <polygon class="cls-14" points="252.36 144.02 213.04 121.33 213.04 121.72 252.36 144.42 252.36 144.02"/>
        </g>
        <g>
          <polygon class="cls-25" points="100.01 179.87 183.32 131.46 183.47 88.67 100.17 137.08 100.01 179.87"/>
          <polygon class="cls-25" points="100.17 137.08 183.47 88.67 106.48 44.25 23.18 92.66 100.17 137.08"/>
          <polygon class="cls-1" points="117.38 127.08 117.4 140.89 124.66 136.7 124.66 122.85 47.61 78.46 40.39 82.66 117.38 127.08"/>
          <polygon class="cls-1" points="150.23 107.99 150.24 121.76 157.5 117.57 157.5 103.76 80.51 59.35 73.23 63.57 150.23 107.99"/>
          <polygon class="cls-25" points="23.18 92.66 23.03 135.46 100.01 179.87 100.17 137.08 23.18 92.66"/>
          <polygon class="cls-10" points="23.18 92.66 23.03 135.46 100.01 179.87 100.17 137.08 23.18 92.66"/>
          <g class="cls-42">
            <polygon class="cls-23" points="160.46 112.26 179.76 101.11 179.76 98.7 160.46 109.86 160.46 112.26"/>
            <polygon class="cls-23" points="160.46 114.72 179.76 103.56 179.76 102.31 160.46 113.47 160.46 114.72"/>
            <polygon class="cls-23" points="160.46 115.7 179.76 104.55 179.76 104.14 160.46 115.29 160.46 115.7"/>
            <polygon class="cls-23" points="160.46 117.06 179.76 105.91 179.76 105.09 160.46 116.25 160.46 117.06"/>
            <polygon class="cls-23" points="160.46 118.63 179.76 107.48 179.76 106.28 160.46 117.44 160.46 118.63"/>
            <polygon class="cls-23" points="160.46 119.99 179.76 108.83 179.76 108.64 160.46 119.8 160.46 119.99"/>
            <polygon class="cls-23" points="160.46 119.48 179.76 108.33 179.76 107.8 160.46 118.95 160.46 119.48"/>
            <polygon class="cls-23" points="160.46 120.66 179.76 109.5 179.76 109.18 160.46 120.33 160.46 120.66"/>
            <polygon class="cls-23" points="160.46 121.82 179.76 110.67 179.76 109.85 160.46 121 160.46 121.82"/>
            <polygon class="cls-23" points="160.46 123.86 179.76 112.7 179.76 111.89 160.46 123.04 160.46 123.86"/>
            <polygon class="cls-23" points="160.46 122.64 179.76 111.49 179.76 111.08 160.46 122.23 160.46 122.64"/>
            <polygon class="cls-23" points="160.46 125.2 179.76 114.04 179.76 113.23 160.46 124.38 160.46 125.2"/>
          </g>
          <polygon class="cls-16" points="23.75 94.46 60.87 115.88 60.87 114.43 144.17 66.02 144.58 66.25 61.27 114.67 61.28 116.12 98.99 137.85 98.99 138.26 23.75 94.87 23.75 94.46"/>
          <polygon class="cls-1" points="65.08 116.86 148.39 68.45 140.11 63.64 56.81 112.05 56.81 126.94 65.09 131.72 65.08 116.86"/>
          <polygon class="cls-16" points="33.52 137.49 26.77 133.59 26.77 125.79 33.52 129.69 33.52 137.49"/>
          <polygon class="cls-16" points="42.05 142.47 35.3 138.57 35.3 130.77 42.05 134.67 42.05 142.47"/>
          <g>
            <g class="cls-39">
              <path class="cls-23" d="M128.71,130.31l-21.1,12.18-2.94,1.7v9.05s0,.23,0,.23v8.66s0,.23,0,.23v1.48l2.94-1.7,21.1-12.18,6.25-3.61v-4.45s0-.23,0-.23v-8.66s0-.23,0-.23v-6.08l-6.25,3.61ZM107.61,158.94v-1.25s20.9-12.07,20.9-12.07v1.25l-20.9,12.07ZM128.51,147.11v1.25l-20.9,12.07v-1.25l20.9-12.07ZM107.61,157.46v-1.25l20.9-12.07v1.25l-20.9,12.07ZM107.61,155.98v-1.25l20.9-12.07v1.25s-20.9,12.07-20.9,12.07ZM107.61,154.5v-1.25l20.9-12.07v1.25l-20.9,12.07ZM107.61,153.02v-1.25l20.9-12.07v1.25l-20.9,12.07ZM107.61,151.53v-1.25l20.9-12.07v1.25l-20.9,12.07ZM107.61,150.05v-1.25s20.9-12.07,20.9-12.07v1.25l-20.9,12.07ZM107.61,148.57v-1.25l20.9-12.07v1.25l-20.9,12.07ZM107.61,147.09v-1.25l20.9-12.07v1.25s-20.9,12.07-20.9,12.07ZM107.61,145.61v-1.25l20.9-12.07v1.25l-20.9,12.07ZM107.61,144.12v-1.25l20.9-12.07v1.25l-20.9,12.07ZM104.87,144.45l2.54-1.47v1.25l-2.54,1.47v-1.25ZM104.87,145.94l2.54-1.47v1.25l-2.54,1.47v-1.25ZM104.87,147.42l2.54-1.47v1.25l-2.54,1.47v-1.25ZM104.87,148.9l2.54-1.47v1.25l-2.54,1.47v-1.25ZM104.87,150.38l2.54-1.47v1.25s-2.54,1.47-2.54,1.47v-1.25ZM104.87,151.86l2.54-1.47v1.25l-2.54,1.47v-1.25ZM104.87,153.35l2.54-1.47v1.25l-2.54,1.47v-1.25ZM104.87,154.83l2.54-1.47v1.25l-2.54,1.47v-1.25ZM104.87,156.31l2.54-1.47v1.25l-2.54,1.47v-1.25ZM104.87,157.79l2.54-1.47v1.25l-2.54,1.47v-1.25ZM104.87,159.28l2.54-1.47v1.25s-2.54,1.47-2.54,1.47v-1.25ZM104.87,160.76l2.54-1.47v1.25l-2.54,1.47v-1.25ZM104.87,163.49v-1.25l2.54-1.47v1.25l-2.54,1.47ZM107.61,161.91v-1.25l20.9-12.07v1.25l-20.9,12.07ZM134.76,146.23l-6.05,3.49v-1.25l6.05-3.49v1.25ZM134.76,144.75l-6.05,3.49v-1.25l6.05-3.49v1.25ZM134.76,143.27l-6.05,3.49v-1.25l6.05-3.49v1.25ZM134.76,141.79l-6.05,3.49v-1.25l6.05-3.49v1.25ZM134.76,140.3l-6.05,3.49v-1.25s6.05-3.49,6.05-3.49v1.25ZM134.76,138.82l-6.05,3.49v-1.25l6.05-3.49v1.25ZM134.76,137.34l-6.05,3.49v-1.25l6.05-3.49v1.25ZM134.76,135.86l-6.05,3.49v-1.25l6.05-3.49v1.25ZM134.76,134.38l-6.05,3.49v-1.25l6.05-3.49v1.25ZM134.76,132.89l-6.05,3.49v-1.25s6.05-3.49,6.05-3.49v1.25ZM134.76,131.41l-6.05,3.49v-1.25l6.05-3.49v1.25ZM134.76,129.93l-6.05,3.49v-1.25l6.05-3.49v1.25ZM128.71,131.94v-1.25l6.05-3.49v1.25l-6.05,3.49Z"/>
            </g>
            <g class="cls-39">
              <polygon class="cls-23" points="104.59 171.32 123.02 160.68 123.02 154.73 104.59 165.37 104.59 171.32"/>
            </g>
          </g>
          <polygon class="cls-8" points="183.41 104.28 183.47 88.67 100.17 137.08 100.01 179.87 160.46 180.05 218.56 146.28 218.59 125.2 183.41 104.28"/>
        </g>
        <g>
          <polygon class="cls-17" points="130.49 125.93 59.84 84.87 58.59 84.03 129.23 125.09 130.49 125.93"/>
          <polygon class="cls-13" points="130.49 125.93 59.84 84.87 58.59 84.03 129.23 125.09 130.49 125.93"/>
          <polygon class="cls-17" points="129.23 125.09 58.59 84.03 58.58 81.97 129.23 123.02 129.23 125.09"/>
          <polygon class="cls-17" points="129.23 123.02 58.58 81.97 59.82 79.69 130.47 120.74 129.23 123.02"/>
          <polygon class="cls-17" points="130.47 120.74 59.82 79.69 108.16 51.78 178.81 92.84 130.47 120.74"/>
          <polygon class="cls-17" points="178.81 92.84 165.55 100.49 94.67 59.57 108.16 51.78 178.81 92.84"/>
          <polygon class="cls-17" points="178.81 92.84 178.82 95.67 177.23 96.58 177.23 98.97 130.49 125.93 129.23 125.09 129.23 123.02 130.47 120.74 178.81 92.84"/>
          <polygon class="cls-16" points="177.23 96.58 177.23 97.02 136.33 120.45 177.23 96.58"/>
          <g>
            <path class="cls-18" d="M148.86,82.39c.21-.02.39-.08.55-.17.2-.12.31-.25.32-.39.01-.14-.06-.28-.2-.4-.11-.09-.36-.25-.76-.48l-.54-.31-1.56.9.61.35c.44.25.76.41.97.46.21.05.41.07.62.04Z"/>
            <path class="cls-18" d="M138.74,76.55c.21-.02.39-.08.55-.17.2-.12.31-.25.32-.39.01-.14-.06-.28-.2-.4-.11-.09-.36-.25-.76-.48l-.54-.31-1.56.9.61.35c.44.25.76.41.97.46.21.05.41.07.62.04Z"/>
            <path class="cls-18" d="M160.16,87.55c-.08-.06-.34-.22-.79-.48l-.87-.5-1.4.81.82.48c.53.31.89.49,1.07.54.18.05.36.07.54.05.19-.02.36-.08.53-.17.19-.11.29-.22.3-.35.01-.12-.05-.25-.2-.37Z"/>
            <path class="cls-18" d="M108.16,51.78l-13.5,7.79,70.88,40.92,13.26-7.66-70.65-41.06ZM111.95,55l2.34,1.35-.22.13-2.34-1.35.22-.13ZM113.59,56.76l-.22.13-3.32-1.91.22-.13,3.32,1.91ZM109.54,53.61l2.18,1.26-.22.13-2.19-1.26.22-.13ZM108.43,52.97l.88.51-.22.13-.88-.51.22-.13ZM107.74,53.38l2.32,1.34-.22.13-2.32-1.34.22-.13ZM107.04,53.78l3.8,2.2-.22.13-3.8-2.2.22-.13ZM108.58,55.73l-2.46-1.42.22-.13,2.46,1.42-.22.13ZM112.59,65.34l1.37-3.36-3.59,2.07-1.03-.6,5.51-3.18,1.08.62-1.42,3.43,3.68-2.12,1.03.6-5.51,3.18-1.12-.64ZM119.07,69.09l-4.19-2.42,5.51-3.18,4.09,2.36-.93.54-2.97-1.72-1.22.71,2.77,1.6-.93.54-2.77-1.6-1.5.87,3.08,1.78-.93.54ZM124.19,72.05l3.02-3.01-5.21,1.75-1.21-.7,4.19-3.94,1.14.66-2.95,2.67,4.79-1.6,1.32.76-2.88,2.78,4.69-1.73,1.12.65-6.85,2.41-1.18-.68ZM130.58,75.61c-.46-.11-.92-.3-1.4-.58-.7-.4-1.07-.8-1.12-1.21-.05-.4.19-.8.74-1.2l1.19.56c-.3.25-.43.48-.4.69.03.21.21.42.55.61.36.21.7.32,1.04.34.33.02.6-.03.8-.15.13-.08.2-.16.22-.26.02-.1-.04-.22-.16-.37-.09-.1-.3-.32-.65-.65-.45-.43-.69-.78-.71-1.04-.03-.37.17-.68.6-.93.28-.16.62-.27,1.03-.32.4-.05.82-.02,1.25.08s.85.27,1.28.52c.69.4,1.06.79,1.11,1.16.05.38-.17.72-.66,1.02l-1.16-.61c.24-.19.34-.37.3-.53-.03-.16-.21-.33-.52-.51-.32-.19-.64-.29-.96-.32-.2-.02-.38.01-.52.1-.13.08-.19.17-.17.29.02.15.24.42.65.8.41.39.68.69.8.92.12.23.14.45.05.67-.09.22-.31.43-.66.63-.32.18-.7.3-1.15.36-.45.06-.9.03-1.36-.07ZM135.61,76.23l-2.08,1.2-1.11-.64,5.51-3.18,1.79,1.03c.68.39,1.09.66,1.24.81.23.23.32.49.25.77-.06.28-.32.55-.75.8-.34.2-.68.32-1.04.39-.35.06-.69.08-1.01.04-.32-.03-.6-.09-.84-.18-.32-.12-.73-.33-1.23-.62l-.73-.42ZM140.74,81.6l.77-1-2.2-1.27-1.71.46-1.18-.68,7.66-1.94,1.18.68-3.3,4.46-1.21-.7ZM145.73,82.08l-2.08,1.2-1.11-.64,5.51-3.18,1.79,1.03c.68.39,1.09.66,1.24.81.23.23.32.49.25.77-.06.28-.32.55-.75.8-.34.2-.68.32-1.04.39-.35.06-.69.08-1.01.04-.32-.03-.6-.09-.84-.18-.32-.12-.73-.33-1.23-.62l-.73-.42ZM151.86,88.02l-4.19-2.42,5.51-3.18,4.09,2.36-.93.54-2.97-1.72-1.22.71,2.77,1.6-.93.54-2.77-1.6-1.5.87,3.08,1.78-.93.54ZM161.91,88.24c-.09.24-.3.45-.63.64-.41.24-.88.37-1.39.38-.51.02-1.05-.1-1.6-.34.1.22.14.42.13.61-.01.19-.1.48-.26.88l-.4,1.01-1.33-.77.39-1.16c.14-.41.22-.68.22-.81,0-.13-.03-.23-.1-.33-.08-.09-.24-.21-.5-.36l-.23-.13-2.3,1.33-1.11-.64,5.51-3.18,2.34,1.35c.59.34.97.62,1.14.83s.21.44.11.67Z"/>
            <polygon class="cls-18" points="142.08 79.85 143.36 78.24 140.58 78.99 142.08 79.85"/>
          </g>
          <polygon class="cls-20" points="150.55 94.33 148.61 95.42 105.07 69.75 107.04 68.64 150.55 94.33"/>
          <polygon class="cls-20" points="143.06 93.51 141.13 94.6 101.99 71.51 103.96 70.4 143.06 93.51"/>
          <polygon class="cls-20" points="142.56 96.89 140.63 97.98 98.83 73.31 100.8 72.2 142.56 96.89"/>
          <g>
            <polygon class="cls-20" points="119.36 114.28 118.31 116.67 118.29 117.95 117.97 117.76 117.97 116.48 119.03 114.09 152.99 94.45 153.32 94.63 119.36 114.28"/>
            <polygon class="cls-20" points="139.24 105.97 137.15 104.77 136.82 104.96 138.91 106.16 139.24 105.97"/>
            <g>
              <polygon class="cls-20" points="141.71 106.22 138.17 104.18 137.84 104.37 141.38 106.41 141.71 106.22"/>
              <polygon class="cls-20" points="141.71 106.6 143.56 107.67 143.88 107.48 142.03 106.41 141.71 106.6"/>
              <polygon class="cls-20" points="144.21 107.67 143.88 107.86 146.37 109.3 146.7 109.11 144.21 107.67"/>
            </g>
            <g>
              <polygon class="cls-20" points="141.11 104.71 139.18 103.59 138.86 103.78 140.78 104.9 141.11 104.71"/>
              <polygon class="cls-20" points="141.44 104.9 141.11 105.08 147.39 108.71 147.72 108.52 141.44 104.9"/>
            </g>
            <g>
              <polygon class="cls-20" points="146.66 106.74 140.2 103.01 139.87 103.2 146.33 106.92 146.66 106.74"/>
              <polygon class="cls-20" points="146.98 106.92 146.66 107.11 148.41 108.12 148.73 107.93 146.98 106.92"/>
            </g>
            <g>
              <polygon class="cls-20" points="144.59 104.37 141.22 102.42 140.89 102.61 144.26 104.56 144.59 104.37"/>
              <polygon class="cls-20" points="144.92 104.56 144.59 104.75 149.42 107.54 149.75 107.35 144.92 104.56"/>
            </g>
            <g>
              <polygon class="cls-20" points="135.2 109.82 131.82 107.87 131.49 108.06 134.87 110.01 135.2 109.82"/>
              <polygon class="cls-20" points="135.52 110.01 135.2 110.2 140.03 112.99 140.35 112.8 135.52 110.01"/>
            </g>
            <polygon class="cls-20" points="124.69 114.39 122.6 113.19 122.27 113.38 124.36 114.58 124.69 114.39"/>
            <g>
              <polygon class="cls-20" points="127.15 114.64 123.62 112.6 123.29 112.79 126.83 114.83 127.15 114.64"/>
              <polygon class="cls-20" points="127.15 115.02 129.01 116.09 129.33 115.9 127.48 114.83 127.15 115.02"/>
              <polygon class="cls-20" points="129.66 116.09 129.33 116.28 131.82 117.72 132.15 117.53 129.66 116.09"/>
            </g>
            <g>
              <polygon class="cls-20" points="126.56 113.13 124.63 112.01 124.3 112.2 126.23 113.32 126.56 113.13"/>
              <polygon class="cls-20" points="126.89 113.32 126.56 113.5 132.84 117.13 133.16 116.94 126.89 113.32"/>
            </g>
            <g>
              <polygon class="cls-20" points="123.14 115 121.22 113.89 120.89 114.07 122.82 115.19 123.14 115"/>
              <polygon class="cls-20" points="123.47 115.19 123.14 115.38 129.42 119 129.75 118.81 123.47 115.19"/>
            </g>
            <g>
              <polygon class="cls-20" points="132.11 115.16 125.65 111.43 125.32 111.62 131.78 115.34 132.11 115.16"/>
              <polygon class="cls-20" points="132.43 115.34 132.11 115.53 133.85 116.54 134.18 116.35 132.43 115.34"/>
            </g>
            <g>
              <polygon class="cls-20" points="130.04 112.79 126.66 110.84 126.34 111.03 129.71 112.98 130.04 112.79"/>
              <polygon class="cls-20" points="130.37 112.98 130.04 113.17 134.87 115.96 135.2 115.77 130.37 112.98"/>
            </g>
            <polygon class="cls-20" points="150.94 98.85 155.19 101.31 155.51 101.12 151.26 98.67 150.94 98.85"/>
            <polygon class="cls-20" points="150.94 98.48 149.49 97.64 149.16 97.83 150.61 98.67 150.94 98.48"/>
            <g>
              <polygon class="cls-20" points="154.09 99.12 150.51 97.06 150.18 97.24 153.76 99.31 154.09 99.12"/>
              <polygon class="cls-20" points="154.42 99.31 154.09 99.5 158.71 102.17 159.04 101.98 154.42 99.31"/>
            </g>
            <g>
              <polygon class="cls-20" points="157.06 100.04 158.16 100.68 158.49 100.49 157.39 99.86 157.06 100.04"/>
              <polygon class="cls-20" points="157.06 99.67 151.52 96.47 151.2 96.66 156.74 99.86 157.06 99.67"/>
              <polygon class="cls-20" points="158.81 100.68 158.49 100.87 159.73 101.58 160.06 101.4 158.81 100.68"/>
            </g>
            <polygon class="cls-20" points="130.09 110.83 134.34 113.28 134.67 113.09 130.42 110.64 130.09 110.83"/>
            <polygon class="cls-20" points="130.09 110.45 128.65 109.61 128.32 109.8 129.76 110.64 130.09 110.45"/>
            <g>
              <polygon class="cls-20" points="133.25 111.1 129.66 109.03 129.34 109.22 132.92 111.29 133.25 111.1"/>
              <polygon class="cls-20" points="133.57 111.29 133.25 111.47 137.87 114.14 138.2 113.95 133.57 111.29"/>
            </g>
            <g>
              <polygon class="cls-20" points="124.06 116.42 120.48 114.35 120.15 114.53 123.73 116.6 124.06 116.42"/>
              <polygon class="cls-20" points="124.39 116.6 124.06 116.79 128.68 119.46 129.01 119.27 124.39 116.6"/>
            </g>
            <polygon class="cls-20" points="123.23 116.98 119.64 114.91 119.48 115.25 123.06 117.32 123.23 116.98"/>
            <polygon class="cls-20" points="126.13 118.65 123.51 117.13 123.35 117.47 125.97 118.99 126.13 118.65"/>
            <polygon class="cls-20" points="122.93 117.74 119.34 115.68 119.18 116.02 122.76 118.09 122.93 117.74"/>
            <polygon class="cls-20" points="128.66 121.04 125.07 118.97 124.91 119.32 128.49 121.38 128.66 121.04"/>
            <polygon class="cls-20" points="124.71 118.77 123.21 117.89 123.05 118.23 124.55 119.11 124.71 118.77"/>
            <polygon class="cls-20" points="120.54 117.24 119.04 116.37 118.88 116.71 120.38 117.59 120.54 117.24"/>
            <polygon class="cls-20" points="129.08 120.36 126.46 118.84 126.29 119.18 128.92 120.7 129.08 120.36"/>
            <g>
              <polygon class="cls-20" points="136.22 112.02 137.31 112.65 137.64 112.46 136.55 111.83 136.22 112.02"/>
              <polygon class="cls-20" points="136.22 111.64 130.68 108.44 130.35 108.63 135.89 111.83 136.22 111.64"/>
              <polygon class="cls-20" points="137.97 112.65 137.64 112.84 138.89 113.56 139.21 113.37 137.97 112.65"/>
            </g>
            <g>
              <polygon class="cls-20" points="156.24 98.02 155.92 98.21 160.75 101 161.07 100.81 156.24 98.02"/>
              <polygon class="cls-20" points="155.92 97.83 152.54 95.88 152.21 96.07 155.59 98.02 155.92 97.83"/>
            </g>
            <g>
              <polygon class="cls-20" points="154.84 96.04 153.56 95.3 153.23 95.48 154.51 96.22 154.84 96.04"/>
              <polygon class="cls-20" points="154.84 96.41 158.02 98.25 158.35 98.06 155.16 96.22 154.84 96.41"/>
              <polygon class="cls-20" points="158.68 98.25 158.35 98.44 161.76 100.41 162.09 100.22 158.68 98.25"/>
            </g>
            <g>
              <polygon class="cls-20" points="136.29 109.39 132.71 107.32 132.38 107.51 135.97 109.58 136.29 109.39"/>
              <polygon class="cls-20" points="136.62 109.58 136.29 109.77 140.91 112.44 141.24 112.25 136.62 109.58"/>
            </g>
            <g>
              <polygon class="cls-20" points="129.59 95.29 123.16 91.58 122.53 91.94 128.97 95.65 129.59 95.29"/>
              <polygon class="cls-20" points="130.22 95.65 129.59 96.01 138.8 101.33 139.43 100.97 130.22 95.65"/>
            </g>
            <polygon class="cls-20" points="102.2 98.56 95.77 94.84 95.14 95.2 101.58 98.92 102.2 98.56"/>
            <polygon class="cls-20" points="102.83 98.92 102.2 99.28 111.41 104.59 112.04 104.23 102.83 98.92"/>
            <g>
              <polygon class="cls-20" points="116.78 103.14 110.35 99.42 109.72 99.78 116.16 103.5 116.78 103.14"/>
              <polygon class="cls-20" points="117.41 103.5 116.78 103.86 125.99 109.17 126.62 108.81 117.41 103.5"/>
            </g>
            <g>
              <polygon class="cls-20" points="126.05 104.34 113.73 97.23 113.11 97.59 125.42 104.7 126.05 104.34"/>
              <polygon class="cls-20" points="126.67 104.7 126.05 105.06 129.38 106.98 130 106.62 126.67 104.7"/>
            </g>
            <g>
              <polygon class="cls-20" points="122.11 99.83 115.67 96.11 115.05 96.47 121.48 100.19 122.11 99.83"/>
              <polygon class="cls-20" points="122.73 100.19 122.11 100.54 131.32 105.86 131.94 105.5 122.73 100.19"/>
            </g>
            <polygon class="cls-20" points="119.86 97.2 127.96 101.88 128.58 101.52 120.48 96.84 119.86 97.2"/>
            <polygon class="cls-20" points="108.06 100.87 116.16 105.54 116.78 105.18 108.68 100.51 108.06 100.87"/>
            <polygon class="cls-20" points="112.12 104.95 122.86 111.19 123.48 110.83 112.74 104.59 112.12 104.95"/>
            <polygon class="cls-20" points="119.86 96.48 117.1 94.89 116.48 95.25 119.23 96.84 119.86 96.48"/>
            <g>
              <polygon class="cls-20" points="125.87 97.72 119.04 93.78 118.42 94.14 125.25 98.08 125.87 97.72"/>
              <polygon class="cls-20" points="126.5 98.08 125.87 98.44 134.69 103.53 135.31 103.17 126.5 98.08"/>
            </g>
            <g>
              <polygon class="cls-20" points="131.54 99.47 133.63 100.68 134.25 100.32 132.16 99.11 131.54 99.47"/>
              <polygon class="cls-20" points="131.54 98.75 120.98 92.66 120.36 93.02 130.92 99.11 131.54 98.75"/>
              <polygon class="cls-20" points="134.88 100.68 134.25 101.04 136.63 102.41 137.25 102.05 134.88 100.68"/>
            </g>
            <g>
              <polygon class="cls-20" points="122.52 105.31 124.61 106.51 125.23 106.15 123.14 104.95 122.52 105.31"/>
              <polygon class="cls-20" points="122.52 104.59 111.96 98.49 111.34 98.85 121.9 104.95 122.52 104.59"/>
              <polygon class="cls-20" points="125.86 106.51 125.23 106.87 127.61 108.24 128.23 107.88 125.86 106.51"/>
            </g>
            <polygon class="cls-20" points="78.11 85.4 80.2 86.61 80.83 86.25 78.74 85.04 78.11 85.4"/>
            <polygon class="cls-20" points="92.04 92.74 81.48 86.64 80.86 87 91.42 93.1 92.04 92.74"/>
            <polygon class="cls-20" points="92.72 93.11 92.1 93.47 94.47 94.84 95.09 94.48 92.72 93.11"/>
            <polygon class="cls-20" points="100.94 99.34 94.5 95.62 93.88 95.98 100.31 99.7 100.94 99.34"/>
            <polygon class="cls-20" points="101.03 100.05 121.59 111.97 122.21 111.61 101.65 99.69 101.03 100.05"/>
            <polygon class="cls-20" points="88.12 92.68 90.21 93.89 90.83 93.53 88.74 92.32 88.12 92.68"/>
            <polygon class="cls-20" points="88.12 91.96 77.56 85.87 76.93 86.23 87.5 92.32 88.12 91.96"/>
            <polygon class="cls-20" points="91.46 93.89 90.83 94.25 93.2 95.62 93.83 95.26 91.46 93.89"/>
            <polygon class="cls-20" points="98.67 99.55 98.05 99.91 108.85 106.15 109.48 105.79 98.67 99.55"/>
            <polygon class="cls-20" points="109.56 106.51 120.3 112.75 120.92 112.39 110.18 106.15 109.56 106.51"/>
            <polygon class="cls-20" points="89.39 94.24 76.26 86.64 75.64 87 88.76 94.6 89.39 94.24"/>
            <polygon class="cls-20" points="90.16 94.67 89.54 95.03 97.41 99.6 98.03 99.24 90.16 94.67"/>
            <polygon class="cls-20" points="96.23 101.32 95.95 101.92 106.75 108.16 107.03 107.55 96.23 101.32"/>
            <polygon class="cls-20" points="107.45 108.52 118.19 114.76 118.47 114.15 107.73 107.91 107.45 108.52"/>
            <polygon class="cls-20" points="86.94 96.01 73.82 88.41 73.54 89.01 86.66 96.61 86.94 96.01"/>
            <polygon class="cls-20" points="87.71 96.43 87.43 97.04 95.3 101.61 95.58 101 87.71 96.43"/>
            <polygon class="cls-20" points="95.32 103.74 95.32 104.49 106.12 110.73 106.12 109.98 95.32 103.74"/>
            <polygon class="cls-20" points="106.82 111.09 117.56 117.32 117.56 116.57 106.82 110.34 106.82 111.09"/>
            <polygon class="cls-20" points="86.03 98.43 72.9 90.83 72.9 91.58 86.03 99.18 86.03 98.43"/>
            <polygon class="cls-20" points="86.8 98.85 86.8 99.6 94.67 104.18 94.67 103.43 86.8 98.85"/>
            <polygon class="cls-20" points="95.7 102.47 95.42 103.07 117.66 115.95 117.94 115.34 95.7 102.47"/>
            <polygon class="cls-20" points="90.82 99.73 73.29 89.56 73.01 90.16 90.55 100.34 90.82 99.73"/>
            <polygon class="cls-20" points="91.4 100.03 91.12 100.64 94.78 102.76 95.06 102.15 91.4 100.03"/>
            <polygon class="cls-20" points="98.45 100.86 91.14 96.62 90.52 96.98 97.82 101.22 98.45 100.86"/>
            <polygon class="cls-20" points="99.07 101.22 98.45 101.58 110.5 108.52 111.12 108.16 99.07 101.22"/>
            <polygon class="cls-20" points="111.62 109.12 119.1 113.49 119.73 113.13 112.24 108.76 111.62 109.12"/>
            <polygon class="cls-20" points="83.79 93.15 89.92 96.68 90.55 96.32 84.42 92.79 83.79 93.15"/>
            <polygon class="cls-20" points="83.79 92.43 75.07 87.39 74.45 87.75 83.17 92.79 83.79 92.43"/>
            <g>
              <polygon class="cls-20" points="131.68 94.47 124.85 90.52 124.22 90.88 131.06 94.83 131.68 94.47"/>
              <polygon class="cls-20" points="132.3 94.83 131.68 95.19 140.49 100.28 141.12 99.92 132.3 94.83"/>
            </g>
            <g>
              <polygon class="cls-20" points="139.26 110.31 140.36 110.94 140.69 110.76 139.59 110.12 139.26 110.31"/>
              <polygon class="cls-20" points="139.26 109.93 133.72 106.74 133.4 106.92 138.94 110.12 139.26 109.93"/>
              <polygon class="cls-20" points="141.01 110.94 140.69 111.13 141.93 111.85 142.26 111.66 141.01 110.94"/>
            </g>
            <g>
              <polygon class="cls-20" points="138.44 108.29 138.12 108.48 142.95 111.26 143.27 111.08 138.44 108.29"/>
              <polygon class="cls-20" points="138.12 108.1 134.74 106.15 134.41 106.34 137.79 108.29 138.12 108.1"/>
            </g>
            <g>
              <polygon class="cls-20" points="137.04 106.3 135.76 105.56 135.43 105.75 136.71 106.49 137.04 106.3"/>
              <polygon class="cls-20" points="137.04 106.68 140.22 108.52 140.55 108.33 137.37 106.49 137.04 106.68"/>
              <polygon class="cls-20" points="140.88 108.52 140.55 108.71 143.96 110.68 144.29 110.49 140.88 108.52"/>
            </g>
            <polygon class="cls-20" points="144.67 102.36 147.26 103.86 147.59 103.67 145 102.17 144.67 102.36"/>
            <polygon class="cls-20" points="144.67 101.99 143.32 101.21 142.99 101.39 144.35 102.17 144.67 101.99"/>
            <g>
              <polygon class="cls-20" points="150.38 104.11 144.34 100.62 144.01 100.81 150.06 104.3 150.38 104.11"/>
              <polygon class="cls-20" points="150.71 104.3 150.38 104.49 152.54 105.73 152.87 105.54 150.71 104.3"/>
            </g>
            <g>
              <polygon class="cls-20" points="148.98 102.13 145.35 100.03 145.03 100.22 148.66 102.32 148.98 102.13"/>
              <polygon class="cls-20" points="149.31 102.32 148.98 102.51 153.56 105.15 153.89 104.96 149.31 102.32"/>
            </g>
            <g>
              <polygon class="cls-20" points="151.58 102.45 146.37 99.44 146.04 99.63 151.26 102.64 151.58 102.45"/>
              <polygon class="cls-20" points="151.91 102.64 151.58 102.83 154.58 104.56 154.9 104.37 151.91 102.64"/>
            </g>
            <g>
              <polygon class="cls-20" points="148.5 99.5 147.39 98.86 147.06 99.05 148.18 99.69 148.5 99.5"/>
              <polygon class="cls-20" points="148.5 99.88 150.85 101.24 151.18 101.05 148.83 99.69 148.5 99.88"/>
              <polygon class="cls-20" points="151.51 101.24 151.18 101.43 155.59 103.97 155.92 103.78 151.51 101.24"/>
            </g>
          </g>
          <polygon class="cls-20" points="79.65 84.4 106.45 99.87 123.97 89.76 97.16 74.29 79.65 84.4"/>
          <polygon class="cls-20" points="88.51 65.1 98.32 70.77 104.73 67.07 94.92 61.41 88.51 65.1"/>
          <g>
            <polygon class="cls-20" points="89.63 69.36 85.48 66.97 85.11 67.19 89.26 69.58 89.63 69.36"/>
            <polygon class="cls-20" points="90 69.58 89.63 69.79 94.85 72.81 95.23 72.6 90 69.58"/>
          </g>
          <g>
            <polygon class="cls-20" points="92.6 69.74 86.64 66.3 86.27 66.52 92.22 69.95 92.6 69.74"/>
            <polygon class="cls-20" points="92.97 69.95 92.6 70.17 96.02 72.14 96.39 71.93 92.97 69.95"/>
          </g>
          <g>
            <polygon class="cls-20" points="89.08 66.37 87.8 65.63 87.43 65.84 88.71 66.58 89.08 66.37"/>
            <polygon class="cls-20" points="89.08 66.8 91.76 68.35 92.14 68.13 89.45 66.58 89.08 66.8"/>
            <polygon class="cls-20" points="92.51 68.35 92.14 68.56 97.18 71.47 97.55 71.26 92.51 68.35"/>
          </g>
          <polygon class="cls-20" points="77.39 71.34 87.2 77 93.6 73.3 83.8 67.64 77.39 71.34"/>
          <g>
            <polygon class="cls-20" points="78.5 75.6 74.36 73.2 73.98 73.42 78.13 75.81 78.5 75.6"/>
            <polygon class="cls-20" points="78.88 75.81 78.5 76.03 83.73 79.05 84.1 78.83 78.88 75.81"/>
          </g>
          <g>
            <polygon class="cls-20" points="81.47 75.97 75.52 72.53 75.14 72.75 81.1 76.19 81.47 75.97"/>
            <polygon class="cls-20" points="81.84 76.19 81.47 76.4 84.89 78.37 85.26 78.16 81.84 76.19"/>
          </g>
          <g>
            <polygon class="cls-20" points="77.96 72.6 76.68 71.86 76.31 72.08 77.58 72.82 77.96 72.6"/>
            <polygon class="cls-20" points="77.96 73.03 80.64 74.58 81.01 74.36 78.33 72.82 77.96 73.03"/>
            <polygon class="cls-20" points="81.38 74.58 81.01 74.8 86.05 77.7 86.42 77.49 81.38 74.58"/>
          </g>
          <polygon class="cls-20" points="66.5 77.68 76.31 83.35 82.71 79.65 72.91 73.98 66.5 77.68"/>
          <polygon class="cls-20" points="60.61 83.22 60.61 85.21 70.41 90.91 70.41 88.88 71.11 87.13 61.31 81.47 60.61 83.22"/>
          <g>
            <polygon class="cls-20" points="67.62 81.94 63.47 79.55 63.1 79.76 67.24 82.16 67.62 81.94"/>
            <polygon class="cls-20" points="67.99 82.16 67.62 82.37 72.84 85.39 73.21 85.18 67.99 82.16"/>
          </g>
          <g>
            <polygon class="cls-20" points="70.58 82.32 64.63 78.88 64.26 79.09 70.21 82.53 70.58 82.32"/>
            <polygon class="cls-20" points="70.96 82.53 70.58 82.75 74 84.72 74.38 84.51 70.96 82.53"/>
          </g>
          <g>
            <polygon class="cls-20" points="67.07 78.95 65.79 78.21 65.42 78.42 66.69 79.16 67.07 78.95"/>
            <polygon class="cls-20" points="67.07 79.38 69.75 80.93 70.12 80.71 67.44 79.16 67.07 79.38"/>
            <polygon class="cls-20" points="70.5 80.93 70.12 81.14 75.16 84.05 75.54 83.84 70.5 80.93"/>
          </g>
          <polygon class="cls-10" points="129.23 125.09 58.59 84.03 58.58 81.97 129.23 123.02 129.23 125.09"/>
          <polygon class="cls-12" points="129.23 123.02 58.58 81.97 59.82 79.69 130.47 120.74 129.23 123.02"/>
          <polygon class="cls-8" points="177.23 96.58 178.82 95.67 178.81 92.84 130.47 120.74 129.23 123.02 129.23 125.09 130.49 125.93 177.23 98.97 177.23 96.58"/>
        </g>
        <g>
          <polygon class="cls-11" points="104.31 117.67 103.79 117.37 103.78 115.94 104.31 116.24 104.31 117.67"/>
          <path class="cls-16" d="M149.65,100.18l-.68-.43-.51.89.3,5.88-12.02,4.68.24.18-22.52,8.85-.29-.21-.6.25-.58-1.68-5.38-3.11-.2.12v.29s-.31.18-.31.18l4.98,2.9.37,1.04-7.33,3.02-1.2.11-15.43-8.65,9.76-2.85,1.62.22,5.49,3.19.75-.43-5.92-3.42-1.96-.29-1.07.27-.91-1.41-3.16-1.92-2.13-.67-.73-1.55-14.43-8.33-1.34-.05-.05.02-.07-.05,23.12-9.18.14.12,11.72-4.59.54-6.29-.75-.53-.52.9-.67,5.52-11.1,4.35.25.21-23.12,9.18-.22-.18-3.89,1.34.72.59-5.82,2.07.26,1.01,15.03,8.75,1.9.02,8.74-2.82,2.09.66,2.81,1.75.51,1.44-8.59,2.48.44,1.04,15,8.66,1.76.32,5.7-2.38.78.57,3.8-1.57-.12-.09,22.52-8.85.17.12,12.6-4.91-.5-6.71ZM81.78,109.73h-1.52s-14.58-8.46-14.58-8.46l9.01-3.31h1.08s13.76,7.96,13.76,7.96l.53,1.21-8.28,2.6Z"/>
          <polygon class="cls-19" points="101.78 71.74 101.25 71.43 108.93 75.81 109.45 76.11 101.78 71.74"/>
          <polygon class="cls-19" points="93.43 77.92 92.91 77.61 92.9 77.32 93.43 77.62 93.43 77.92"/>
          <polygon class="cls-19" points="93.43 77.62 92.9 77.32 92.9 76.47 93.42 76.78 93.43 77.62"/>
          <polygon class="cls-19" points="93.42 76.78 92.9 76.47 92.9 76.18 93.42 76.49 93.42 76.78"/>
          <polygon class="cls-19" points="93.42 76.49 92.9 76.18 101.25 71.36 101.78 71.66 93.42 76.49"/>
          <polygon class="cls-19" points="101.78 71.66 101.78 71.74 109.45 76.11 108.58 77.63 101.2 73.43 93.43 77.92 93.43 77.62 93.42 76.78 93.42 76.49 101.78 71.66"/>
          <polygon class="cls-16" points="101.78 71.66 101.78 71.74 109.45 76.11 108.58 77.63 101.2 73.43 93.43 77.92 93.43 77.62 93.42 76.78 93.42 76.49 101.78 71.66"/>
          <polygon class="cls-21" points="67.52 91.73 67 91.43 92.9 76.47 93.42 76.78 67.52 91.73"/>
          <polygon class="cls-21" points="93.42 76.78 93.43 77.62 67.52 92.58 67.52 91.73 93.42 76.78"/>
          <polygon class="cls-16" points="93.42 76.78 93.43 77.62 67.52 92.58 67.52 91.73 93.42 76.78"/>
          <polygon class="cls-19" points="64.43 94.66 63.91 94.35 63.91 92.92 64.43 93.23 64.43 94.66"/>
          <polygon class="cls-10" points="64.43 94.66 63.91 94.35 63.91 92.92 64.43 93.23 64.43 94.66"/>
          <polygon class="cls-19" points="64.43 93.23 63.91 92.92 67 91.14 67.52 91.44 64.43 93.23"/>
          <polygon class="cls-19" points="67.52 91.44 67.52 91.73 67.52 92.58 67.52 92.87 64.43 94.66 64.43 93.23 67.52 91.44"/>
          <polygon class="cls-16" points="67.52 91.44 67.52 91.73 67.52 92.58 67.52 92.87 64.43 94.66 64.43 93.23 67.52 91.44"/>
          <polygon class="cls-19" points="65.04 94.18 66.09 93.57 66.07 99.83 65.02 100.43 65.04 94.18"/>
          <polygon class="cls-16" points="65.04 94.18 66.09 93.57 66.07 99.83 65.02 100.43 65.04 94.18"/>
          <polygon class="cls-19" points="64.42 93.19 65.47 92.58 66.09 92.23 65.05 92.84 64.42 93.19"/>
          <polygon class="cls-19" points="65.64 101.5 66.69 100.9 80.56 108.91 79.52 109.52 65.64 101.5"/>
          <polygon class="cls-19" points="79.52 109.52 80.56 108.91 81.18 108.55 80.14 109.16 79.52 109.52"/>
          <polygon class="cls-19" points="87.83 113.44 88.87 112.83 89.49 114.14 88.44 114.75 87.83 113.44"/>
          <polygon class="cls-31" points="87.83 113.44 88.87 112.83 89.49 114.14 88.44 114.75 87.83 113.44"/>
          <polygon class="cls-19" points="87.84 107.28 88.89 106.67 88.87 112.83 87.83 113.44 87.84 107.28"/>
          <polygon class="cls-16" points="87.84 107.28 88.89 106.67 88.87 112.83 87.83 113.44 87.84 107.28"/>
          <polygon class="cls-19" points="87.34 106.42 88.39 105.81 89.01 105.46 87.96 106.07 87.34 106.42"/>
          <polygon class="cls-19" points="88.44 114.75 89.49 114.14 103.53 122.25 102.48 122.86 88.44 114.75"/>
          <polygon class="cls-19" points="103.58 115.8 104.63 115.19 104.61 122.72 103.56 123.33 103.58 115.8"/>
          <polygon class="cls-15" points="103.58 115.8 104.63 115.19 104.61 122.72 103.56 123.33 103.58 115.8"/>
          <polygon class="cls-19" points="102.96 114.73 104.01 114.12 104.63 115.19 103.58 115.8 102.96 114.73"/>
          <polygon class="cls-31" points="102.96 114.73 104.01 114.12 104.63 115.19 103.58 115.8 102.96 114.73"/>
          <polygon class="cls-19" points="141.65 94.75 141.13 94.45 148.81 98.82 149.33 99.13 141.65 94.75"/>
          <polygon class="cls-19" points="133.3 100.93 132.78 100.63 132.78 100.33 133.3 100.64 133.3 100.93"/>
          <polygon class="cls-19" points="133.3 100.64 132.78 100.33 132.78 99.49 133.3 99.79 133.3 100.64"/>
          <polygon class="cls-19" points="133.3 99.79 132.78 99.49 132.78 99.2 133.3 99.5 133.3 99.79"/>
          <polygon class="cls-10" points="133.3 100.93 132.78 100.63 132.78 100.33 133.3 100.64 133.3 100.93"/>
          <polygon class="cls-10" points="133.3 99.79 132.78 99.49 132.78 99.2 133.3 99.5 133.3 99.79"/>
          <polygon class="cls-19" points="133.3 99.5 132.78 99.2 141.13 94.37 141.65 94.68 133.3 99.5"/>
          <polygon class="cls-19" points="141.65 94.68 149.33 99.13 148.45 100.65 141.08 96.44 133.3 100.93 133.3 100.64 133.3 99.79 133.3 99.5 141.65 94.68"/>
          <polygon class="cls-21" points="107.4 114.75 106.87 114.44 132.78 99.49 133.3 99.79 107.4 114.75"/>
          <polygon class="cls-21" points="133.3 99.79 133.3 100.64 107.4 115.59 107.4 114.75 133.3 99.79"/>
          <polygon class="cls-16" points="133.3 99.79 133.3 100.64 107.4 115.59 107.4 114.75 133.3 99.79"/>
          <polygon class="cls-19" points="104.31 116.24 103.78 115.94 106.87 114.15 107.4 114.46 104.31 116.24"/>
          <polygon class="cls-19" points="107.4 114.46 107.4 114.75 107.4 115.59 107.4 115.88 104.31 117.67 104.31 116.24 107.4 114.46"/>
          <polygon class="cls-16" points="107.4 114.46 107.4 114.75 107.4 115.59 107.4 115.88 104.31 117.67 104.31 116.24 107.4 114.46"/>
          <g class="cls-42">
            <g class="cls-43">
              <polygon class="cls-9" points="80.14 109.16 79.77 109.35 65.89 101.34 65.28 100.27 65.29 94.04 65.66 93.83 79.54 101.84 80.16 102.91 80.14 109.16"/>
            </g>
          </g>
          <g class="cls-42">
            <g class="cls-48">
              <polygon class="cls-28" points="103.11 122.26 103 122.36 102.63 122.57 88.75 114.56 88.14 113.49 88.15 107.24 88.58 106.99 102.51 115.03 103.12 116.1 103.11 122.26"/>
            </g>
          </g>
          <g class="cls-32">
            <g class="cls-50">
              <polygon class="cls-27" points="93.66 117.39 88.75 114.56 88.14 113.49 88.15 107.24 88.58 106.99 91.48 108.67 93.66 117.39"/>
            </g>
          </g>
          <polygon class="cls-19" points="65.02 100.43 66.07 99.83 66.69 100.9 65.64 101.5 65.02 100.43"/>
          <g class="cls-32">
            <g class="cls-53">
              <polygon class="cls-30" points="97.34 119.52 94.98 118.15 92.8 109.43 95.16 110.79 97.34 119.52"/>
            </g>
          </g>
          <g class="cls-32">
            <g class="cls-54">
              <polygon class="cls-29" points="70.46 103.97 65.89 101.34 65.28 100.27 65.29 94.04 65.66 93.83 68.31 95.35 70.46 103.97"/>
            </g>
          </g>
          <g class="cls-32">
            <g class="cls-34">
              <polygon class="cls-26" points="74.14 106.1 71.77 104.73 69.62 96.11 71.99 97.48 74.14 106.1"/>
            </g>
          </g>
          <polygon class="cls-19" points="87.96 106.07 89.01 105.46 104.01 114.12 102.96 114.73 87.96 106.07"/>
          <path class="cls-19" d="M102.96,114.73l.62,1.07-.02,7.53-.62.35-15-8.66-.62-1.07.02-6.39-1.75-1.66-3.33-1.92-1.59-.27-.02,6.39-.62.35-15-8.66-.62-1.07.02-7.53.62-.35,15,8.66.62,1.07,1.63.29,3.27,1.89,1.78,1.68.62-.35,15,8.66ZM103.11,122.26l.02-6.16-.62-1.07-14.04-8.11-.62.35-.02,6.16.62,1.31,14.04,8.11.62-.6h0ZM80.14,109.16l.02-6.25-.62-1.07-13.88-8.01-.62.35-.02,6.25.62,1.07,13.88,8.01.62-.35h0Z"/>
          <path class="cls-10" d="M102.96,114.73l.62,1.07-.02,7.53-.62.35-15-8.66-.62-1.07.02-6.39-1.75-1.66-3.33-1.92-1.59-.27-.02,6.39-.62.35-15-8.66-.62-1.07.02-7.53.62-.35,15,8.66.62,1.07,1.63.29,3.27,1.89,1.78,1.68.62-.35,15,8.66ZM103.11,122.26l.02-6.16-.62-1.07-14.04-8.11-.62.35-.02,6.16.62,1.31,14.04,8.11.62-.6h0ZM80.14,109.16l.02-6.25-.62-1.07-13.88-8.01-.62.35-.02,6.25.62,1.07,13.88,8.01.62-.35h0Z"/>
          <polygon class="cls-19" points="82.29 102.85 83.34 102.25 86.61 104.14 85.56 104.74 82.29 102.85"/>
          <polygon class="cls-19" points="85.56 104.74 86.61 104.14 88.39 105.81 87.34 106.42 85.56 104.74"/>
          <polygon class="cls-10" points="85.56 104.74 86.61 104.14 88.39 105.81 87.34 106.42 85.56 104.74"/>
          <polygon class="cls-19" points="80.66 102.57 81.71 101.96 83.34 102.25 82.29 102.85 80.66 102.57"/>
          <polygon class="cls-19" points="80.05 101.5 81.09 100.89 81.71 101.96 80.66 102.57 80.05 101.5"/>
          <polygon class="cls-31" points="80.05 101.5 81.09 100.89 81.71 101.96 80.66 102.57 80.05 101.5"/>
          <polygon class="cls-19" points="65.05 92.84 66.09 92.23 81.09 100.89 80.05 101.5 65.05 92.84"/>
          <polygon class="cls-19" points="80.66 103.71 81.7 103.89 81.69 109.49 80.64 110.1 80.66 103.71"/>
          <polygon class="cls-16" points="80.66 103.71 81.7 103.89 81.69 109.49 80.64 110.1 80.66 103.71"/>
          <polygon class="cls-16" points="141.65 94.68 149.33 99.13 148.45 100.65 141.08 96.44 133.3 100.93 133.3 100.64 133.3 99.79 133.3 99.5 141.65 94.68"/>
          <polygon class="cls-10" points="104.31 117.67 103.79 117.37 103.78 115.94 104.31 116.24 104.31 117.67"/>
        </g>
      </g>
    </g>
  </g>
</svg>