<?xml version="1.0" encoding="UTF-8"?>
<svg xmlns="http://www.w3.org/2000/svg" viewBox="0 0 260.87 234.28">
  <defs>
    <style>
      .cls-1 {
        mix-blend-mode: screen;
      }

      .cls-1, .cls-2, .cls-3, .cls-4, .cls-5, .cls-6, .cls-7, .cls-8, .cls-9, .cls-10, .cls-11, .cls-12, .cls-13, .cls-14, .cls-15, .cls-16, .cls-17, .cls-18 {
        stroke-width: 0px;
      }

      .cls-1, .cls-3, .cls-4, .cls-6, .cls-15, .cls-18 {
        fill: #a17e85;
      }

      .cls-1, .cls-19 {
        opacity: .5;
      }

      .cls-2, .cls-20, .cls-21, .cls-3, .cls-4, .cls-5, .cls-22, .cls-23, .cls-24, .cls-25, .cls-6, .cls-19, .cls-26, .cls-27, .cls-28, .cls-18 {
        mix-blend-mode: multiply;
      }

      .cls-2, .cls-5, .cls-14 {
        fill: #ba9aa3;
      }

      .cls-2, .cls-28 {
        opacity: .7;
      }

      .cls-21 {
        opacity: .1;
      }

      .cls-3, .cls-26 {
        opacity: .6;
      }

      .cls-4, .cls-24 {
        opacity: .3;
      }

      .cls-5, .cls-25 {
        opacity: .2;
      }

      .cls-29 {
        isolation: isolate;
      }

      .cls-22 {
        opacity: .15;
      }

      .cls-23, .cls-18 {
        opacity: .4;
      }

      .cls-6, .cls-27 {
        opacity: .8;
      }

      .cls-7 {
        fill: #f57840;
      }

      .cls-8 {
        fill: #f7efe7;
      }

      .cls-9 {
        fill: #a8a9a9;
      }

      .cls-10 {
        fill: #d1c0b0;
      }

      .cls-11 {
        fill: #cae7e8;
      }

      .cls-12 {
        fill: #dadadb;
      }

      .cls-13 {
        fill: #b4a598;
      }

      .cls-16 {
        fill: #fbd163;
      }

      .cls-17 {
        fill: #ffc887;
      }
    </style>
  </defs>
  <g class="cls-29">
    <g id="Layer_1" data-name="Layer 1">
      <g>
        <g>
          <polygon class="cls-8" points="89.74 175.32 89.74 175.96 59.77 193.38 59.77 192.74 89.74 175.32"/>
          <g class="cls-27">
            <polygon class="cls-15" points="89.74 175.32 89.74 175.96 59.77 193.38 59.77 192.74 89.74 175.32"/>
          </g>
          <g class="cls-27">
            <polygon class="cls-15" points="90.67 176 89.74 175.51 89.74 175.96 59.77 193.38 60.75 193.38 90.67 176"/>
          </g>
          <path class="cls-8" d="M38.01,145.43l-29.97,17.42,51.73,29.89,29.97-17.42-51.73-29.89Z"/>
          <polygon class="cls-8" points="59.77 192.74 59.77 193.38 8.04 163.49 8.04 162.85 59.77 192.74"/>
          <g class="cls-24">
            <polygon class="cls-15" points="59.77 192.74 59.77 193.38 8.04 163.49 8.04 162.85 59.77 192.74"/>
          </g>
          <g>
            <polygon class="cls-8" points="51.13 167.48 51.13 167.8 38.01 145.43 51.13 167.48"/>
            <g class="cls-24">
              <polygon class="cls-15" points="51.13 167.48 51.13 167.8 38.01 145.43 51.13 167.48"/>
            </g>
            <polygon class="cls-8" points="89.74 175.32 51.12 167.8 51.13 167.48 89.74 175.32"/>
            <g class="cls-27">
              <polygon class="cls-15" points="89.74 175.32 51.12 167.8 51.13 167.48 89.74 175.32"/>
            </g>
            <g class="cls-27">
              <polygon class="cls-15" points="89.74 175.32 51.12 167.8 51.34 168.21 89.74 175.32"/>
            </g>
          </g>
          <polygon class="cls-10" points="53.04 187.67 55.59 189.14 55.91 188.96 53.36 187.48 53.04 187.67"/>
          <polygon class="cls-10" points="53.04 187.3 51.7 186.53 51.38 186.71 52.71 187.48 53.04 187.3"/>
          <g>
            <polygon class="cls-10" points="58.67 189.39 52.71 185.95 52.38 186.13 58.35 189.58 58.67 189.39"/>
            <polygon class="cls-10" points="58.99 189.58 58.67 189.76 60.8 190.99 61.12 190.81 58.99 189.58"/>
          </g>
        </g>
        <g>
          <polygon class="cls-8" points="139.42 195.06 139.41 195.7 109.44 213.12 109.44 212.48 139.42 195.06"/>
          <g class="cls-27">
            <polygon class="cls-15" points="139.42 195.06 139.41 195.7 109.44 213.12 109.44 212.48 139.42 195.06"/>
          </g>
          <g class="cls-27">
            <polygon class="cls-15" points="140.34 195.74 139.42 195.25 139.41 195.7 109.44 213.12 110.42 213.12 140.34 195.74"/>
          </g>
          <path class="cls-8" d="M87.68,165.16l-29.97,17.42,51.73,29.89,29.97-17.42-51.73-29.89Z"/>
          <polygon class="cls-8" points="109.44 212.48 109.44 213.12 57.71 183.22 57.71 182.58 109.44 212.48"/>
          <g class="cls-24">
            <polygon class="cls-15" points="109.44 212.48 109.44 213.12 57.71 183.22 57.71 182.58 109.44 212.48"/>
          </g>
          <g>
            <polygon class="cls-8" points="100.8 187.21 100.8 187.54 87.69 165.16 100.8 187.21"/>
            <g class="cls-24">
              <polygon class="cls-15" points="100.8 187.21 100.8 187.54 87.69 165.16 100.8 187.21"/>
            </g>
            <polygon class="cls-8" points="139.42 195.06 100.8 187.54 100.8 187.21 139.42 195.06"/>
            <g class="cls-27">
              <polygon class="cls-15" points="139.42 195.06 100.8 187.54 100.8 187.21 139.42 195.06"/>
            </g>
            <g class="cls-27">
              <polygon class="cls-15" points="139.42 195.06 100.8 187.54 101.02 187.95 139.42 195.06"/>
            </g>
          </g>
          <polygon class="cls-10" points="102.71 207.4 105.26 208.88 105.58 208.69 103.03 207.22 102.71 207.4"/>
          <polygon class="cls-10" points="102.71 207.03 101.37 206.26 101.05 206.45 102.39 207.22 102.71 207.03"/>
          <g>
            <polygon class="cls-10" points="108.34 209.13 102.38 205.68 102.06 205.87 108.02 209.31 108.34 209.13"/>
            <polygon class="cls-10" points="108.66 209.31 108.34 209.5 110.47 210.73 110.8 210.54 108.66 209.31"/>
          </g>
        </g>
        <g>
          <polygon class="cls-13" points="74.11 151.81 74.66 152.13 102.95 135.8 102.39 135.48 74.11 151.81"/>
          <polygon class="cls-13" points="75.91 152.86 76.47 153.18 104.75 136.85 104.19 136.53 75.91 152.86"/>
          <polygon class="cls-13" points="77.71 153.91 78.27 154.23 106.55 137.9 106 137.58 77.71 153.91"/>
          <path class="cls-13" d="M54.22,161.6s-.02.04-.04.06c.02.05.02.11-.01.16.13.01.24.04.33.09.08.05.13.11.13.18l.1.06c.11,0,.22.03.31.08.08.05.13.11.13.18l.1.06c.11,0,.22.03.31.08.08.05.13.11.13.18l.1.06c.11,0,.22.03.31.08.08.05.13.11.13.18l.1.06c.11,0,.22.03.31.08.08.05.13.11.13.18l.1.06c.11,0,.22.03.31.08.08.05.13.11.13.18l.1.06c.11,0,.22.03.31.08.08.05.13.11.13.18l.1.06c.11,0,.22.03.31.08.08.05.13.11.13.18l.1.06c.11,0,.22.03.31.08.08.05.13.11.13.18l.1.06c.11,0,.22.03.31.08.08.05.13.11.13.18l.1.06c.11,0,.22.03.31.08.08.05.13.11.13.18l.1.06c.11,0,.22.03.31.08.08.05.13.11.13.18l.1.06c.11,0,.22.03.31.08.08.05.13.11.13.18l.1.06c.11,0,.22.03.31.08.08.05.13.11.13.18l.1.06c.11,0,.22.03.31.08.08.05.13.11.13.18l.1.06c.11,0,.22.03.31.08.08.05.13.11.13.18l.14.08s.09-.02.14-.02c.02-.02.04-.03.07-.05.09-.05.21-.08.33-.08l.12-.07c0-.07.04-.14.13-.19.09-.05.21-.08.33-.08l.12-.07c0-.07.04-.14.13-.19.09-.05.21-.08.33-.08l.12-.07c0-.07.04-.14.13-.19.09-.05.21-.08.33-.08l.12-.07c0-.07.04-.14.14-.19.09-.05.21-.08.33-.08l.12-.07c0-.07.04-.14.13-.19.09-.05.21-.08.33-.08l.12-.07c0-.07.04-.14.13-.19.09-.05.21-.08.33-.08l.12-.07c0-.07.04-.14.13-.19.09-.05.21-.08.33-.08l.12-.07c0-.07.04-.14.13-.19.09-.05.21-.08.33-.08l.12-.07c0-.07.04-.14.13-.19.09-.05.21-.08.33-.08l.09-.05c-.05-.06-.06-.12-.03-.18l-.18-.1c-.09,0-.18-.03-.25-.07-.07-.04-.11-.09-.13-.15l-.16-.09c-.09,0-.18-.03-.25-.07-.07-.04-.11-.09-.13-.15l-.16-.09c-.09,0-.18-.03-.25-.07-.07-.04-.11-.09-.13-.15l-.16-.09c-.09,0-.18-.03-.25-.07-.07-.04-.11-.09-.13-.15l-.16-.09c-.09,0-.18-.03-.25-.07-.07-.04-.11-.09-.13-.15l-.16-.09c-.09,0-.18-.03-.25-.07-.07-.04-.11-.09-.13-.15l-.16-.09c-.09,0-.18-.03-.25-.07-.07-.04-.11-.09-.13-.15l-.16-.09c-.09,0-.18-.03-.25-.07-.07-.04-.11-.09-.13-.15l-.16-.09c-.09,0-.18-.03-.25-.07-.07-.04-.11-.09-.13-.15l-.16-.09c-.09,0-.18-.03-.25-.07-.07-.04-.11-.09-.13-.15l-.16-.09c-.09,0-.18-.03-.25-.07-.07-.04-.11-.09-.13-.15l-.16-.09c-.09,0-.18-.03-.25-.07-.07-.04-.11-.09-.13-.15l-.16-.09c-.09,0-.18-.03-.25-.07-.07-.04-.11-.09-.13-.15l-.16-.09c-.09,0-.18-.03-.25-.07-.07-.04-.11-.09-.13-.15l-.16-.09c-.09,0-.18-.03-.25-.07-.07-.04-.11-.09-.13-.15l-.16-.09c-.09,0-.18-.03-.25-.07-.07-.04-.11-.09-.13-.15l-.06-.03c-.08.01-.16.01-.23,0l-.09.05c-.02.05-.06.1-.13.14-.07.04-.15.06-.24.07l-.13.08c-.02.05-.06.1-.13.14-.07.04-.15.06-.24.07l-.13.08c-.02.05-.06.1-.13.14-.07.04-.15.06-.24.07l-.13.08c-.02.05-.06.1-.13.14s-.15.06-.24.07l-.13.08c-.02.05-.06.1-.13.14-.07.04-.15.06-.24.07l-.13.08c-.02.05-.06.1-.13.14-.07.04-.15.06-.24.07l-.13.08c-.02.05-.06.1-.13.14-.07.04-.15.06-.24.07l-.13.08c-.02.05-.06.1-.13.14-.07.04-.15.06-.24.07l-.13.08c-.02.05-.06.1-.13.14-.07.04-.15.06-.24.07l-.13.08c-.02.05-.06.1-.13.14-.07.04-.15.06-.24.07l-.13.08c-.02.05-.06.1-.13.14-.07.04-.15.06-.24.07l-.13.08Z"/>
          <polygon class="cls-8" points="49.35 162.02 49.35 162.66 79.33 180.08 79.32 179.44 49.35 162.02"/>
          <g class="cls-24">
            <polygon class="cls-15" points="49.35 162.02 49.35 162.66 79.33 180.08 79.32 179.44 49.35 162.02"/>
          </g>
          <path class="cls-8" d="M131.06,149.55l-51.73,29.89-29.97-17.42,51.73-29.89,29.97,17.42ZM54.19,161.84c.11,0,.22.03.31.08.08.05.13.11.13.18l.1.06c.11,0,.22.03.31.08.08.05.13.11.13.18l.1.06c.11,0,.22.03.31.08.08.05.13.11.13.18l.1.06c.11,0,.22.03.31.08.08.05.13.11.13.18l.1.06c.11,0,.22.03.31.08.08.05.13.11.13.18l.1.06c.11,0,.22.03.31.08.08.05.13.11.13.18l.1.06c.11,0,.22.03.31.08.08.05.13.11.13.18l.1.06c.11,0,.22.03.31.08.08.05.13.11.13.18l.1.06c.11,0,.22.03.31.08.08.05.13.11.13.18l.1.06c.11,0,.22.03.31.08.08.05.13.11.13.18l.1.06c.11,0,.22.03.31.08.08.05.13.11.13.18l.1.06c.11,0,.22.03.31.08.08.05.13.11.13.18l.1.06c.11,0,.22.03.31.08.08.05.13.11.13.18l.1.06c.11,0,.22.03.31.08.08.05.13.11.13.18l.1.06c.11,0,.22.03.31.08.08.05.13.11.13.18l.1.06c.11,0,.22.03.31.08.08.05.13.11.13.18l.14.08s.09-.02.14-.02c.02-.02.04-.03.07-.05.09-.05.21-.08.33-.08l.12-.07c0-.07.04-.14.13-.19.09-.05.21-.08.33-.08l.12-.07c0-.07.04-.14.13-.19.09-.05.21-.08.33-.08l.12-.07c0-.07.04-.14.13-.19.09-.05.21-.08.33-.08l.12-.07c0-.07.04-.14.14-.19.09-.05.21-.08.33-.08l.12-.07c0-.07.04-.14.13-.19.09-.05.21-.08.33-.08l.12-.07c0-.07.04-.14.13-.19.09-.05.21-.08.33-.08l.12-.07c0-.07.04-.14.13-.19.09-.05.21-.08.33-.08l.12-.07c0-.07.04-.14.13-.19.09-.05.21-.08.33-.08l.12-.07c0-.07.04-.14.13-.19.09-.05.21-.08.33-.08l.09-.05c-.05-.06-.06-.12-.03-.18l-.18-.1c-.09,0-.18-.03-.25-.07-.07-.04-.11-.09-.13-.15l-.16-.09c-.09,0-.18-.03-.25-.07-.07-.04-.11-.09-.13-.15l-.16-.09c-.09,0-.18-.03-.25-.07-.07-.04-.11-.09-.13-.15l-.16-.09c-.09,0-.18-.03-.25-.07-.07-.04-.11-.09-.13-.15l-.16-.09c-.09,0-.18-.03-.25-.07-.07-.04-.11-.09-.13-.15l-.16-.09c-.09,0-.18-.03-.25-.07-.07-.04-.11-.09-.13-.15l-.16-.09c-.09,0-.18-.03-.25-.07-.07-.04-.11-.09-.13-.15l-.16-.09c-.09,0-.18-.03-.25-.07-.07-.04-.11-.09-.13-.15l-.16-.09c-.09,0-.18-.03-.25-.07-.07-.04-.11-.09-.13-.15l-.16-.09c-.09,0-.18-.03-.25-.07-.07-.04-.11-.09-.13-.15l-.16-.09c-.09,0-.18-.03-.25-.07-.07-.04-.11-.09-.13-.15l-.16-.09c-.09,0-.18-.03-.25-.07-.07-.04-.11-.09-.13-.15l-.16-.09c-.09,0-.18-.03-.25-.07-.07-.04-.11-.09-.13-.15l-.16-.09c-.09,0-.18-.03-.25-.07-.07-.04-.11-.09-.13-.15l-.16-.09c-.09,0-.18-.03-.25-.07-.07-.04-.11-.09-.13-.15l-.16-.09c-.09,0-.18-.03-.25-.07-.07-.04-.11-.09-.13-.15l-.06-.03c-.08.01-.16.01-.23,0l-.09.05c-.02.05-.06.1-.13.14-.07.04-.15.06-.24.07l-.13.08c-.02.05-.06.1-.13.14-.07.04-.15.06-.24.07l-.13.08c-.02.05-.06.1-.13.14-.07.04-.15.06-.24.07l-.13.08c-.02.05-.06.1-.13.14-.07.04-.15.06-.24.07l-.13.08c-.02.05-.06.1-.13.14-.07.04-.15.06-.24.07l-.13.08c-.02.05-.06.1-.13.14-.07.04-.15.06-.24.07l-.13.08c-.02.05-.06.1-.13.14-.07.04-.15.06-.24.07l-.13.08c-.02.05-.06.1-.13.14-.07.04-.15.06-.24.07l-.13.08c-.02.05-.06.1-.13.14-.07.04-.15.06-.24.07l-.13.08c-.02.05-.06.1-.13.14-.07.04-.15.06-.24.07l-.13.08c-.02.05-.06.1-.13.14-.07.04-.15.06-.24.07l-.13.08s-.02.04-.04.06c.02.05.02.1,0,.17h0ZM74.66,152.13l28.28-16.33-.56-.32-28.28,16.33.56.32h0ZM76.47,153.18l28.28-16.33-.56-.32-28.28,16.33.56.32h0ZM78.27,154.23l28.28-16.33-.56-.32-28.28,16.33.56.32h0Z"/>
          <polygon class="cls-8" points="79.32 179.44 79.33 180.08 131.06 150.19 131.06 149.55 79.32 179.44"/>
          <g class="cls-27">
            <polygon class="cls-15" points="79.32 179.44 79.33 180.08 131.06 150.19 131.06 149.55 79.32 179.44"/>
          </g>
          <g class="cls-27">
            <polygon class="cls-15" points="80.36 180.08 79.33 180.08 131.06 150.19 131.06 149.73 131.98 150.25 80.36 180.08"/>
          </g>
        </g>
        <g>
          <polygon class="cls-13" points="168.14 171.03 168.69 171.35 196.98 155.02 196.42 154.7 168.14 171.03"/>
          <polygon class="cls-13" points="169.94 172.08 170.5 172.4 198.78 156.07 198.22 155.75 169.94 172.08"/>
          <polygon class="cls-13" points="171.74 173.12 172.3 173.45 200.58 157.12 200.03 156.79 171.74 173.12"/>
          <path class="cls-13" d="M148.25,180.82s-.02.04-.04.06c.02.05.02.11-.01.16.13.01.24.04.33.09.08.05.13.11.13.18l.1.06c.11,0,.22.03.31.08s.13.11.13.18l.1.06c.11,0,.22.03.31.08.08.05.13.11.13.18l.1.06c.11,0,.22.03.31.08.08.05.13.11.13.18l.1.06c.11,0,.22.03.31.08.08.05.13.11.13.18l.1.06c.11,0,.22.03.31.08.08.05.13.11.13.18l.1.06c.11,0,.22.03.31.08.08.05.13.11.13.18l.1.06c.11,0,.22.03.31.08.08.05.13.11.13.18l.1.06c.11,0,.22.03.31.08.08.05.13.11.13.18l.1.06c.11,0,.22.03.31.08.08.05.13.11.13.18l.1.06c.11,0,.22.03.31.08.08.05.13.11.13.18l.1.06c.11,0,.22.03.31.08.08.05.13.11.13.18l.1.06c.11,0,.22.03.31.08.08.05.13.11.13.18l.1.06c.11,0,.22.03.31.08.08.05.13.11.13.18l.1.06c.11,0,.22.03.31.08.08.05.13.11.13.18l.1.06c.11,0,.22.03.31.08.08.05.13.11.13.18l.14.08s.09-.02.14-.02c.02-.02.04-.03.07-.05.09-.05.21-.08.33-.08l.12-.07c0-.07.04-.14.13-.19.09-.05.21-.08.33-.08l.12-.07c0-.07.04-.14.13-.19.09-.05.21-.08.33-.08l.12-.07c0-.07.04-.14.13-.19.09-.05.21-.08.33-.08l.12-.07c0-.07.04-.14.14-.19.09-.05.21-.08.33-.08l.12-.07c0-.07.04-.14.13-.19.09-.05.21-.08.33-.08l.12-.07c0-.07.04-.14.13-.19.09-.05.21-.08.33-.08l.12-.07c0-.07.04-.14.13-.19.09-.05.21-.08.33-.08l.12-.07c0-.07.04-.14.13-.19.09-.05.21-.08.33-.08l.12-.07c0-.07.04-.14.13-.19.09-.05.21-.08.33-.08l.09-.05c-.05-.06-.06-.12-.03-.18l-.18-.1c-.09,0-.18-.03-.25-.07-.07-.04-.11-.09-.13-.15l-.16-.09c-.09,0-.18-.03-.25-.07-.07-.04-.11-.09-.13-.15l-.16-.09c-.09,0-.18-.03-.25-.07-.07-.04-.11-.09-.13-.15l-.16-.09c-.09,0-.18-.03-.25-.07-.07-.04-.11-.09-.13-.15l-.16-.09c-.09,0-.18-.03-.25-.07-.07-.04-.11-.09-.13-.15l-.16-.09c-.09,0-.18-.03-.25-.07-.07-.04-.11-.09-.13-.15l-.16-.09c-.09,0-.18-.03-.25-.07-.07-.04-.11-.09-.13-.15l-.16-.09c-.09,0-.18-.03-.25-.07-.07-.04-.11-.09-.13-.15l-.16-.09c-.09,0-.18-.03-.25-.07-.07-.04-.11-.09-.13-.15l-.16-.09c-.09,0-.18-.03-.25-.07-.07-.04-.11-.09-.13-.15l-.16-.09c-.09,0-.18-.03-.25-.07-.07-.04-.11-.09-.13-.15l-.16-.09c-.09,0-.18-.03-.25-.07-.07-.04-.11-.09-.13-.15l-.16-.09c-.09,0-.18-.03-.25-.07-.07-.04-.11-.09-.13-.15l-.16-.09c-.09,0-.18-.03-.25-.07-.07-.04-.11-.09-.13-.15l-.16-.09c-.09,0-.18-.03-.25-.07-.07-.04-.11-.09-.13-.15l-.16-.09c-.09,0-.18-.03-.25-.07-.07-.04-.11-.09-.13-.15l-.06-.03c-.08.01-.16.01-.23,0l-.09.05c-.02.05-.06.1-.13.14s-.15.06-.24.07l-.13.08c-.02.05-.06.1-.13.14-.07.04-.15.06-.24.07l-.13.08c-.02.05-.06.1-.13.14-.07.04-.15.06-.24.07l-.13.08c-.02.05-.06.1-.13.14-.07.04-.15.06-.24.07l-.13.08c-.02.05-.06.1-.13.14-.07.04-.15.06-.24.07l-.13.08c-.02.05-.06.1-.13.14-.07.04-.15.06-.24.07l-.13.08c-.02.05-.06.1-.13.14-.07.04-.15.06-.24.07l-.13.08c-.02.05-.06.1-.13.14-.07.04-.15.06-.24.07l-.13.08c-.02.05-.06.1-.13.14-.07.04-.15.06-.24.07l-.13.08c-.02.05-.06.1-.13.14-.07.04-.15.06-.24.07l-.13.08c-.02.05-.06.1-.13.14-.07.04-.15.06-.24.07l-.13.08Z"/>
          <polygon class="cls-8" points="143.38 181.24 143.38 181.88 173.36 199.3 173.36 198.66 143.38 181.24"/>
          <g class="cls-24">
            <polygon class="cls-15" points="143.38 181.24 143.38 181.88 173.36 199.3 173.36 198.66 143.38 181.24"/>
          </g>
          <path class="cls-8" d="M225.09,168.76l-51.73,29.89-29.97-17.42,51.73-29.89,29.97,17.42ZM148.22,181.05c.11,0,.22.03.31.08.08.05.13.11.13.18l.1.06c.11,0,.22.03.31.08.08.05.13.11.13.18l.1.06c.11,0,.22.03.31.08.08.05.13.11.13.18l.1.06c.11,0,.22.03.31.08.08.05.13.11.13.18l.1.06c.11,0,.22.03.31.08.08.05.13.11.13.18l.1.06c.11,0,.22.03.31.08.08.05.13.11.13.18l.1.06c.11,0,.22.03.31.08.08.05.13.11.13.18l.1.06c.11,0,.22.03.31.08.09.05.13.11.13.18l.1.06c.11,0,.22.03.31.08.08.05.13.11.13.18l.1.06c.11,0,.22.03.31.08.08.05.13.11.13.18l.1.06c.11,0,.22.03.31.08.08.05.13.11.13.18l.1.06c.11,0,.22.03.31.08.08.05.13.11.13.18l.1.06c.11,0,.22.03.31.08.08.05.13.11.13.18l.1.06c.11,0,.22.03.31.08.08.05.13.11.13.18l.1.06c.11,0,.22.03.31.08.08.05.13.11.13.18l.1.06c.11,0,.22.03.31.08.08.05.13.11.13.18l.14.08s.09-.02.14-.02c.02-.02.04-.03.07-.05.09-.05.21-.08.33-.08l.12-.07c0-.07.04-.14.13-.19.09-.05.21-.08.33-.08l.12-.07c0-.07.04-.14.13-.19.09-.05.21-.08.33-.08l.12-.07c0-.07.04-.14.13-.19.09-.05.21-.08.33-.08l.12-.07c0-.07.04-.14.14-.19.09-.05.21-.08.33-.08l.12-.07c0-.07.04-.14.13-.19.09-.05.21-.08.33-.08l.12-.07c0-.07.04-.14.13-.19.09-.05.21-.08.33-.08l.12-.07c0-.07.04-.14.13-.19.09-.05.21-.08.33-.08l.12-.07c0-.07.04-.14.13-.19.09-.05.21-.08.33-.08l.12-.07c0-.07.04-.14.13-.19.09-.05.21-.08.33-.08l.09-.05c-.05-.06-.06-.12-.03-.18l-.18-.1c-.09,0-.18-.03-.25-.07-.07-.04-.11-.09-.13-.15l-.16-.09c-.09,0-.18-.03-.25-.07-.07-.04-.11-.09-.13-.15l-.16-.09c-.09,0-.18-.03-.25-.07-.07-.04-.11-.09-.13-.15l-.16-.09c-.09,0-.18-.03-.25-.07-.07-.04-.11-.09-.13-.15l-.16-.09c-.09,0-.18-.03-.25-.07-.07-.04-.11-.09-.13-.15l-.16-.09c-.09,0-.18-.03-.25-.07-.07-.04-.11-.09-.13-.15l-.16-.09c-.09,0-.18-.03-.25-.07-.07-.04-.11-.09-.13-.15l-.16-.09c-.09,0-.18-.03-.25-.07-.07-.04-.11-.09-.13-.15l-.16-.09c-.09,0-.18-.03-.25-.07-.07-.04-.11-.09-.13-.15l-.16-.09c-.09,0-.18-.03-.25-.07-.07-.04-.11-.09-.13-.15l-.16-.09c-.09,0-.18-.03-.25-.07-.07-.04-.11-.09-.13-.15l-.16-.09c-.09,0-.18-.03-.25-.07-.07-.04-.11-.09-.13-.15l-.16-.09c-.09,0-.18-.03-.25-.07-.07-.04-.11-.09-.13-.15l-.16-.09c-.09,0-.18-.03-.25-.07-.07-.04-.11-.09-.13-.15l-.16-.09c-.09,0-.18-.03-.25-.07-.07-.04-.11-.09-.13-.15l-.16-.09c-.09,0-.18-.03-.25-.07-.07-.04-.11-.09-.13-.15l-.06-.03c-.08.01-.16.01-.23,0l-.09.05c-.02.05-.06.1-.13.14s-.15.06-.24.07l-.13.08c-.02.05-.06.1-.13.14-.07.04-.15.06-.24.07l-.13.08c-.02.05-.06.1-.13.14-.07.04-.15.06-.24.07l-.13.08c-.02.05-.06.1-.13.14-.07.04-.15.06-.24.07l-.13.08c-.02.05-.06.1-.13.14-.07.04-.15.06-.24.07l-.13.08c-.02.05-.06.1-.13.14-.07.04-.15.06-.24.07l-.13.08c-.02.05-.06.1-.13.14-.07.04-.15.06-.24.07l-.13.08c-.02.05-.06.1-.13.14-.07.04-.15.06-.24.07l-.13.08c-.02.05-.06.1-.13.14-.07.04-.15.06-.24.07l-.13.08c-.02.05-.06.1-.13.14-.07.04-.15.06-.24.07l-.13.08c-.02.05-.06.1-.13.14-.07.04-.15.06-.24.07l-.13.08s-.02.04-.04.06c.02.05.02.1,0,.17h0ZM168.69,171.35l28.28-16.33-.56-.32-28.28,16.33.56.32h0ZM170.5,172.4l28.28-16.33-.56-.32-28.28,16.33.56.32h0ZM172.3,173.45l28.28-16.33-.56-.32-28.28,16.33.56.32h0Z"/>
          <polygon class="cls-8" points="173.36 198.66 173.36 199.3 225.09 169.4 225.09 168.76 173.36 198.66"/>
          <g class="cls-27">
            <polygon class="cls-15" points="173.36 198.66 173.36 199.3 225.09 169.4 225.09 168.76 173.36 198.66"/>
          </g>
          <g class="cls-27">
            <polygon class="cls-15" points="174.39 199.3 173.36 199.3 225.09 169.4 225.09 168.95 226.01 169.47 174.39 199.3"/>
          </g>
        </g>
        <g>
          <polygon class="cls-8" points="130.95 187.51 221.81 134.71 221.98 105.18 131.12 157.98 130.95 187.51"/>
          <polygon class="cls-8" points="131.12 157.98 221.98 105.18 138.01 56.73 47.15 109.53 131.12 157.98"/>
          <polygon class="cls-1" points="149.89 147.07 149.91 162.13 157.83 157.55 157.83 142.46 73.8 94.04 65.92 98.62 149.89 147.07"/>
          <polygon class="cls-1" points="185.73 126.24 185.74 141.27 193.65 136.69 193.65 121.64 109.68 73.19 101.75 77.8 185.73 126.24"/>
          <polygon class="cls-8" points="47.15 109.53 46.98 139.06 130.95 187.51 131.12 157.98 47.15 109.53"/>
          <polygon class="cls-4" points="47.15 109.53 46.98 139.06 130.95 187.51 131.12 157.98 47.15 109.53"/>
          <polygon class="cls-2" points="221.89 119.86 221.98 105.18 131.12 157.98 130.95 187.51 161.98 187.78 252.83 134.98 221.89 119.86"/>
          <g class="cls-27">
            <polygon class="cls-15" points="196.88 130.96 217.93 118.79 217.93 116.17 196.88 128.34 196.88 130.96"/>
            <polygon class="cls-15" points="196.88 133.64 217.93 121.47 217.93 120.11 196.88 132.27 196.88 133.64"/>
            <polygon class="cls-15" points="196.88 134.71 217.93 122.54 217.93 122.1 196.88 134.26 196.88 134.71"/>
            <polygon class="cls-15" points="196.88 136.19 217.93 124.03 217.93 123.14 196.88 135.3 196.88 136.19"/>
            <polygon class="cls-15" points="196.88 137.9 217.93 125.74 217.93 124.44 196.88 136.6 196.88 137.9"/>
            <polygon class="cls-15" points="196.88 139.38 217.93 127.21 217.93 127.01 196.88 139.18 196.88 139.38"/>
            <polygon class="cls-15" points="196.88 138.83 217.93 126.66 217.93 126.09 196.88 138.26 196.88 138.83"/>
            <polygon class="cls-15" points="196.88 140.11 217.93 127.95 217.93 127.59 196.88 139.76 196.88 140.11"/>
            <polygon class="cls-15" points="196.88 141.38 217.93 129.21 217.93 128.32 196.88 140.49 196.88 141.38"/>
            <polygon class="cls-15" points="196.88 143.6 217.93 131.44 217.93 130.55 196.88 142.71 196.88 143.6"/>
            <polygon class="cls-15" points="196.88 142.28 217.93 130.11 217.93 129.67 196.88 141.83 196.88 142.28"/>
            <polygon class="cls-15" points="196.88 145.06 217.93 132.9 217.93 132.01 196.88 144.17 196.88 145.06"/>
          </g>
          <polygon class="cls-6" points="47.78 111.49 88.25 134.86 88.25 133.27 179.11 80.47 179.56 80.73 88.69 133.53 88.7 135.11 129.84 158.82 129.84 159.26 47.78 111.94 47.78 111.49"/>
          <polygon class="cls-1" points="92.85 135.92 183.71 83.12 174.69 77.88 83.83 130.68 83.83 146.91 92.86 152.12 92.85 135.92"/>
          <polygon class="cls-6" points="58.43 141.28 51.06 137.03 51.06 128.52 58.43 132.77 58.43 141.28"/>
          <polygon class="cls-6" points="67.74 146.71 60.37 142.46 60.37 133.95 67.74 138.21 67.74 146.71"/>
          <g class="cls-20">
            <polygon class="cls-15" points="135.95 181.12 156.05 169.51 156.05 163.02 135.95 174.62 135.95 181.12"/>
          </g>
        </g>
        <g>
          <polygon class="cls-2" points="137.76 146.6 138.37 148.74 137.34 151.15 133.79 152.54 129.27 152.54 125.27 151.15 78.75 123.42 82.63 123.18 94.45 127.66 100.04 124.45 137.76 146.6"/>
          <polygon class="cls-16" points="131.63 144.93 131.63 146.53 93.96 124.78 93.96 123.18 131.63 144.93"/>
          <polygon class="cls-4" points="131.63 144.93 131.63 146.53 93.96 124.78 93.96 123.18 131.63 144.93"/>
          <g>
            <polygon class="cls-11" points="84.78 118.9 74.74 119.16 74.74 119.48 122.69 147.13 127.91 144.1 127.91 143.78 84.78 118.9"/>
            <g class="cls-27">
              <polygon class="cls-15" points="127.91 143.78 127.91 144.1 122.69 147.13 122.69 146.81 127.91 143.78"/>
            </g>
            <g class="cls-24">
              <polygon class="cls-15" points="122.69 146.81 122.69 147.13 74.74 119.48 74.74 119.16 122.69 146.81"/>
            </g>
          </g>
          <polygon class="cls-16" points="134.37 144.27 95.9 122.06 93.96 123.18 131.63 144.93 126.41 147.97 88.74 126.22 86.81 127.34 86.8 128.94 125.27 151.15 128.24 151.86 131.81 151.29 134.62 149.66 135.59 147.59 135.6 145.99 134.37 144.27"/>
          <g>
            <polygon class="cls-7" points="113.7 134.86 109.77 137.17 109.76 138.26 116.98 142.43 120.91 140.11 120.92 139.03 113.7 134.86"/>
            <g class="cls-27">
              <polygon class="cls-15" points="120.92 139.03 120.91 140.11 116.98 142.43 116.99 141.34 120.92 139.03"/>
            </g>
            <g class="cls-24">
              <polygon class="cls-15" points="116.99 141.34 116.98 142.43 109.76 138.26 109.77 137.17 116.99 141.34"/>
            </g>
          </g>
          <g>
            <polygon class="cls-7" points="121.11 139.13 117.19 141.44 117.18 142.53 118.83 143.47 122.76 141.16 122.76 140.07 121.11 139.13"/>
            <g class="cls-27">
              <polygon class="cls-15" points="122.76 140.07 122.76 141.16 118.83 143.47 118.83 142.38 122.76 140.07"/>
            </g>
            <g class="cls-27">
              <polygon class="cls-15" points="123.95 141.06 122.76 140.34 122.76 141.16 118.83 143.47 120.58 143.47 123.95 141.49 123.95 141.06"/>
            </g>
            <g class="cls-24">
              <polygon class="cls-15" points="118.83 142.38 118.83 143.47 117.18 142.53 117.19 141.44 118.83 142.38"/>
            </g>
          </g>
          <g>
            <polygon class="cls-3" points="135.6 145.99 135.59 147.59 134.62 149.66 134.62 148.06 135.6 145.99"/>
            <polygon class="cls-4" points="125.28 149.55 125.27 151.15 86.8 128.94 86.81 127.34 125.28 149.55"/>
            <polygon class="cls-6" points="134.62 148.06 134.62 149.66 131.81 151.29 131.82 149.69 134.62 148.06"/>
            <polygon class="cls-18" points="128.25 150.26 128.24 151.86 125.27 151.15 125.28 149.55 128.25 150.26"/>
            <polygon class="cls-3" points="131.82 149.69 131.81 151.29 128.24 151.86 128.25 150.26 131.82 149.69"/>
          </g>
        </g>
        <g>
          <g class="cls-28">
            <path class="cls-14" d="M153.89,211.47l-3.76,5.21-6.92,3.98-9.03,2.13-8.43.1-10.36-2.32-6.89-4.02-3.72-5.24.02-5.66,3.76-5.21,6.92-3.98,9.03-2.13,9.77.03,9.02,2.19,6.89,4.02,3.71,5.24-.02,5.66Z"/>
          </g>
          <polygon class="cls-9" points="145.5 194.69 145.47 205.91 145.45 211.57 145.49 200.35 145.5 194.69"/>
          <polygon class="cls-8" points="100.1 205.43 100.07 216.65 96.35 211.41 96.38 200.19 100.1 205.43"/>
          <g class="cls-22">
            <polygon class="cls-15" points="100.1 205.43 100.07 216.65 96.35 211.41 96.38 200.19 100.1 205.43"/>
          </g>
          <polygon class="cls-8" points="145.49 200.35 145.45 211.57 141.7 216.78 141.73 205.56 145.49 200.35"/>
          <g class="cls-27">
            <polygon class="cls-15" points="145.49 200.35 145.45 211.57 141.7 216.78 141.73 205.56 145.49 200.35"/>
          </g>
          <polygon class="cls-8" points="106.32 209.9 106.29 221.12 100.07 216.65 100.1 205.43 106.32 209.9"/>
          <g class="cls-21">
            <polygon class="cls-15" points="106.32 209.9 106.29 221.12 100.07 216.65 100.1 205.43 106.32 209.9"/>
          </g>
          <polygon class="cls-8" points="141.73 205.56 141.7 216.78 134.78 220.76 134.81 209.54 141.73 205.56"/>
          <g class="cls-26">
            <polygon class="cls-15" points="141.73 205.56 141.7 216.78 134.78 220.76 134.81 209.54 141.73 205.56"/>
          </g>
          <polygon class="cls-8" points="116.01 211.65 115.97 222.87 106.96 220.68 106.99 209.46 116.01 211.65"/>
          <g class="cls-21">
            <polygon class="cls-15" points="116.01 211.65 115.97 222.87 106.96 220.68 106.99 209.46 116.01 211.65"/>
          </g>
          <polygon class="cls-8" points="134.81 209.54 134.78 220.76 125.75 222.9 125.78 211.68 134.81 209.54"/>
          <g class="cls-23">
            <polygon class="cls-15" points="134.81 209.54 134.78 220.76 125.75 222.9 125.78 211.68 134.81 209.54"/>
          </g>
          <path class="cls-8" d="M145.49,200.35l-3.76,5.22-6.92,3.98-9.03,2.13-9.77-.03-9.02-2.19-.67.44-6.22-4.47-3.72-5.24.02-5.66,3.76-5.22,6.92-3.98,9.03-2.13,9.77.03,9.02,2.19,6.89,4.02,3.71,5.24-.02,5.66ZM128.3,203.87l3.67-2.11,1.99-2.77.02-3-1.97-2.78-3.66-2.13-4.78-1.16-5.19-.02-4.79,1.13-3.67,2.11-1.99,2.77v3s1.96,2.78,1.96,2.78l3.66,2.13,4.78,1.16,5.19.02,4.79-1.13h0Z"/>
          <rect class="cls-8" x="115.27" y="212.39" width="11.22" height="9.77" transform="translate(-96.74 337.53) rotate(-89.84)"/>
          <g class="cls-25">
            <rect class="cls-15" x="115.27" y="212.39" width="11.22" height="9.77" transform="translate(-96.74 337.53) rotate(-89.84)"/>
          </g>
          <polygon class="cls-12" points="106.29 221.12 106.96 220.68 106.99 209.46 106.32 209.9 106.29 221.12"/>
          <polygon class="cls-6" points="106.29 221.12 106.96 220.68 106.99 209.46 106.32 209.9 106.29 221.12"/>
          <polygon class="cls-6" points="107.75 220.87 106.29 221.12 106.96 220.68 106.99 209.46 107.81 209.66 107.75 220.87"/>
          <g>
            <path class="cls-15" d="M132.01,193.2l-3.66-2.13-4.78-1.16-5.19-.02-4.79,1.13-3.67,2.11-1.99,2.77v3s1.96,2.78,1.96,2.78l3.66,2.13,4.78,1.16,5.19.02,4.79-1.13,3.67-2.11,1.99-2.77.02-3-1.97-2.78ZM122.89,203.18h-3.94s-.51-.14-.51-.14l.52-.12h3.94s.52.14.52.14l-.53.12Z"/>
            <g>
              <g class="cls-23">
                <rect class="cls-15" x="115.34" y="195.35" width="11.22" height="3.94" transform="translate(-76.71 317.71) rotate(-89.84)"/>
              </g>
              <g class="cls-19">
                <polygon class="cls-15" points="119 191.7 118.96 202.92 118.44 203.05 115.32 202.29 115.36 192.57 119 191.7"/>
              </g>
              <g class="cls-24">
                <polygon class="cls-15" points="126.57 192.6 126.53 202.32 123.42 203.06 122.9 202.93 122.93 191.71 126.57 192.6"/>
              </g>
              <g class="cls-26">
                <polygon class="cls-15" points="115.36 192.57 115.32 202.29 112.54 200.66 112.57 194.17 115.36 192.57"/>
              </g>
              <g class="cls-25">
                <polygon class="cls-15" points="129.34 194.22 129.32 200.71 126.53 202.32 126.57 192.6 129.34 194.22"/>
              </g>
              <g class="cls-28">
                <polygon class="cls-15" points="112.57 194.17 112.54 200.66 111.04 198.55 111.05 196.27 112.57 194.17"/>
              </g>
              <g class="cls-21">
                <polygon class="cls-15" points="130.84 196.33 130.83 198.61 129.32 200.71 129.34 194.22 130.84 196.33"/>
              </g>
            </g>
          </g>
        </g>
        <g>
          <polygon class="cls-17" points="145.3 143.7 209.32 106.5 209.43 73.61 145.42 110.82 145.3 143.7"/>
          <polygon class="cls-17" points="145.42 110.82 209.43 73.61 150.27 39.48 86.25 76.68 145.42 110.82"/>
          <polygon class="cls-1" points="158.64 103.13 158.66 113.74 164.24 110.52 164.24 99.88 105.03 65.77 99.48 69 158.64 103.13"/>
          <polygon class="cls-1" points="183.89 88.46 183.9 99.04 189.48 95.82 189.48 85.21 130.31 51.08 124.72 54.32 183.89 88.46"/>
          <polygon class="cls-17" points="86.25 76.68 86.13 109.57 145.3 143.7 145.42 110.82 86.25 76.68"/>
          <polygon class="cls-4" points="86.25 76.68 86.13 109.57 145.3 143.7 145.42 110.82 86.25 76.68"/>
          <g class="cls-27">
            <polygon class="cls-15" points="191.75 91.74 206.58 83.17 206.58 81.32 191.75 89.9 191.75 91.74"/>
            <polygon class="cls-15" points="191.75 93.63 206.58 85.06 206.58 84.1 191.75 92.67 191.75 93.63"/>
            <polygon class="cls-15" points="191.75 94.38 206.58 85.81 206.58 85.5 191.75 94.07 191.75 94.38"/>
            <polygon class="cls-15" points="191.75 95.43 206.58 86.86 206.58 86.23 191.75 94.8 191.75 95.43"/>
            <polygon class="cls-15" points="191.75 96.64 206.58 88.06 206.58 87.15 191.75 95.72 191.75 96.64"/>
            <polygon class="cls-15" points="191.75 97.68 206.58 89.11 206.58 88.96 191.75 97.53 191.75 97.68"/>
            <polygon class="cls-15" points="191.75 97.29 206.58 88.72 206.58 88.31 191.75 96.88 191.75 97.29"/>
            <polygon class="cls-15" points="191.75 98.19 206.58 89.62 206.58 89.37 191.75 97.94 191.75 98.19"/>
            <polygon class="cls-15" points="191.75 99.09 206.58 90.51 206.58 89.89 191.75 98.46 191.75 99.09"/>
            <polygon class="cls-15" points="191.75 100.65 206.58 92.08 206.58 91.45 191.75 100.03 191.75 100.65"/>
            <polygon class="cls-15" points="191.75 99.72 206.58 91.15 206.58 90.83 191.75 99.4 191.75 99.72"/>
            <polygon class="cls-15" points="191.75 101.68 206.58 93.11 206.58 92.48 191.75 101.05 191.75 101.68"/>
          </g>
          <polygon class="cls-6" points="86.69 78.06 115.21 94.53 115.21 93.4 179.23 56.2 179.55 56.39 115.52 93.59 115.53 94.71 144.51 111.41 144.51 111.72 86.69 78.38 86.69 78.06"/>
          <polygon class="cls-1" points="118.45 95.28 182.47 58.07 176.11 54.38 112.1 91.58 112.1 103.02 118.46 106.69 118.45 95.28"/>
          <polygon class="cls-6" points="94.2 111.13 89.01 108.13 89.01 102.14 94.2 105.13 94.2 111.13"/>
          <polygon class="cls-6" points="100.76 114.95 95.57 111.96 95.57 105.96 100.76 108.96 100.76 114.95"/>
          <g>
            <g class="cls-20">
              <path class="cls-15" d="M167.35,105.61l-16.22,9.36-2.26,1.3v8.27s0,.96,0,.96v5.87l2.26-1.3,16.22-9.36,4.81-2.77v-3.42s0-.18,0-.18v-8.94s0-.18,0-.18v-2.4l-4.81,2.77ZM151.13,127.62v-.96s16.06-9.27,16.06-9.27v.96l-16.06,9.27ZM167.19,118.52v.96l-16.06,9.27v-.96l16.06-9.27ZM151.13,126.48v-.96l16.06-9.27v.96l-16.06,9.27ZM151.13,125.34v-.96l16.06-9.27v.96l-16.06,9.27ZM151.13,124.2v-.96l16.06-9.27v.96l-16.06,9.27ZM151.13,123.06v-.96l16.06-9.27v.96l-16.06,9.27ZM151.13,121.92v-.96l16.06-9.27v.96l-16.06,9.27ZM151.13,120.78v-.96l16.06-9.27v.96l-16.06,9.27ZM151.13,119.64v-.96l16.06-9.27v.96l-16.06,9.27ZM151.13,118.5v-.96l16.06-9.27v.96l-16.06,9.27ZM151.13,117.37v-.96l16.06-9.27v.96l-16.06,9.27ZM151.13,116.23v-.96l16.06-9.27v.96l-16.06,9.27ZM149.03,116.48l1.95-1.13v.96l-1.95,1.13v-.96ZM149.03,117.62l1.95-1.13v.96l-1.95,1.13v-.96ZM149.03,118.76l1.95-1.13v.96l-1.95,1.13v-.96ZM149.03,119.9l1.95-1.13v.96l-1.95,1.13v-.96ZM149.03,121.04l1.95-1.13v.96l-1.95,1.13v-.96ZM149.03,122.18l1.95-1.13v.96s-1.95,1.13-1.95,1.13v-.96ZM149.03,123.31l1.95-1.13v.96l-1.95,1.13v-.96ZM149.03,124.45l1.95-1.13v.96l-1.95,1.13v-.96ZM149.03,125.59l1.95-1.13v.96l-1.95,1.13v-.96ZM149.03,126.73l1.95-1.13v.96l-1.95,1.13v-.96ZM149.03,127.87l1.95-1.13v.96l-1.95,1.13v-.96ZM149.03,129.01l1.95-1.13v.96l-1.95,1.13v-.96ZM149.03,131.11v-.96l1.95-1.13v.96l-1.95,1.13ZM151.13,129.89v-.96l16.06-9.27v.96l-16.06,9.27ZM172,117.85l-4.65,2.69v-.96l4.65-2.69v.96ZM172,116.71l-4.65,2.69v-.96s4.65-2.69,4.65-2.69v.96ZM172,115.57l-4.65,2.69v-.96l4.65-2.69v.96ZM172,114.43l-4.65,2.69v-.96l4.65-2.69v.96ZM172,113.29l-4.65,2.69v-.96l4.65-2.69v.96ZM172,112.15l-4.65,2.69v-.96l4.65-2.69v.96ZM172,111.01l-4.65,2.69v-.96l4.65-2.69v.96ZM172,109.87l-4.65,2.69v-.96l4.65-2.69v.96ZM172,108.74l-4.65,2.69v-.96l4.65-2.69v.96ZM172,107.6l-4.65,2.69v-.96l4.65-2.69v.96ZM172,106.46l-4.65,2.69v-.96l4.65-2.69v.96ZM172,105.32l-4.65,2.69v-.96l4.65-2.69v.96ZM167.35,106.86v-.96l4.65-2.69v.96l-4.65,2.69Z"/>
            </g>
            <g class="cls-20">
              <polygon class="cls-15" points="148.82 137.13 162.98 128.95 162.98 124.38 148.82 132.55 148.82 137.13"/>
            </g>
          </g>
          <polygon class="cls-2" points="209.35 97.89 209.43 73.61 145.42 110.82 145.3 143.7 155.6 143.75 221.98 105.18 209.35 97.89"/>
        </g>
        <g>
          <polygon class="cls-8" points="199.21 81.77 147.48 51.87 117.5 69.29 117.5 69.93 169.23 99.83 199.21 82.41 199.21 81.77 199.21 81.77"/>
          <g>
            <polygon class="cls-5" points="162.5 94.11 165.06 95.59 165.38 95.4 162.83 93.93 162.5 94.11"/>
            <polygon class="cls-5" points="162.5 93.74 161.17 92.97 160.85 93.16 162.18 93.93 162.5 93.74"/>
            <polygon class="cls-5" points="168.14 95.83 162.17 92.39 161.85 92.58 167.81 96.02 168.14 95.83"/>
            <polygon class="cls-5" points="168.46 96.02 168.14 96.21 170.27 97.44 170.59 97.25 168.46 96.02"/>
          </g>
          <g>
            <polygon class="cls-2" points="199.21 81.96 199.21 81.77 169.24 99.18 169.23 99.83 170.22 99.83 200.13 82.44 199.21 81.96"/>
            <g class="cls-25">
              <polygon class="cls-14" points="169.24 99.18 169.23 99.83 117.5 69.93 117.5 69.29 169.24 99.18"/>
            </g>
          </g>
          <g>
            <polygon class="cls-5" points="160.59 73.92 160.59 74.25 147.48 51.87 160.59 73.92"/>
            <polygon class="cls-2" points="160.59 73.92 160.59 74.25 163.54 75.16 199.21 81.77 160.59 73.92"/>
          </g>
        </g>
      </g>
    </g>
  </g>
</svg>